{
.appVersion = "1075";
DisplayStrings = (
"/maiEk-thai.narrow",
"/maiHanaKat-thai.narrow/poPla-thai"
);
copyright = "Copyright © 2018 by Cadson Demak Co.,Ltd.. All rights reserved.";
customParameters = (
{
name = vendorID;
value = CDK;
},
{
name = description;
value = "Copyright (c) 2018, Cadson Demak (info@cadsondemak.com)";
},
{
name = license;

glyphs = (
{
glyphname = A;
lastChange = "2018-02-18 14:34:41 +0000";
layers = (
{
anchors = (
{
name = bottom;
position = "{310, 0}";
},
{
name = ogonek;
position = "{576, 10}";
},
{
name = top;
position = "{310, 660}";
}
);
hints = (
{
horizontal = 1;
origin = "{0, 15}";
target = up;
type = BottomGhost;
},
{
horizontal = 1;
origin = "{1, 3}";
target = "{1, 2}";
},
{
horizontal = 1;
origin = "{0, 12}";
target = down;
type = TopGhost;
},
{
horizontal = 1;
origin = "{0, 12}";
target = "{0, 3}";
}
);
layerId = "5A4BD32C-A1D1-4EB1-A794-47BD06E3B809";
paths = (
{
closed = 1;
nodes = (
"89 0 LINE",
"145 259 OFFCURVE",
"213 454 OFFCURVE",
"323 651 CURVE",
"297 651 LINE",
"407 454 OFFCURVE",
"475 259 OFFCURVE",
"531 0 CURVE",
"605 0 LINE",
"539 273 OFFCURVE",
"464 487 OFFCURVE",
"348 700 CURVE",
"273 700 LINE",
"157 487 OFFCURVE",
"81 273 OFFCURVE",
"15 0 CURVE"
);
},
{
closed = 1;
nodes = (
"499 203 LINE",
"480 263 LINE",
"140 263 LINE",
"120 203 LINE"
);
}
);
width = 620;
}
);
note = A;
unicode = 0041;
},
{
glyphname = B;
lastChange = "2018-02-18 14:34:41 +0000";
layers = (
{
anchors = (
{
name = bottom;
position = "{308, 0}";
},
{
name = top;
position = "{308, 660}";
}
);
layerId = "5A4BD32C-A1D1-4EB1-A794-47BD06E3B809";
paths = (
{
closed = 1;
nodes = (
"326 0 LINE SMOOTH",
"501 0 OFFCURVE",
"572 84 OFFCURVE",
"572 194 CURVE SMOOTH",
"572 290 OFFCURVE",
"499 365 OFFCURVE",
"404 367 CURVE",
"404 350 LINE",
"473 356 OFFCURVE",
"540 419 OFFCURVE",
"540 516 CURVE SMOOTH",
"540 621 OFFCURVE",
"465 700 OFFCURVE",
"316 700 CURVE SMOOTH",
"86 700 LINE",
"86 0 LINE"
);
},
{
closed = 1;
nodes = (
"158 680 LINE",
"113 635 LINE",
"316 635 LINE SMOOTH",
"417 635 OFFCURVE",
"468 589 OFFCURVE",
"468 516 CURVE SMOOTH",
"468 437 OFFCURVE",
"425 385 OFFCURVE",
"313 385 CURVE SMOOTH",
"134 385 LINE",
"134 328 LINE",
"314 328 LINE SMOOTH",
"445 328 OFFCURVE",
"500 285 OFFCURVE",
"500 194 CURVE SMOOTH",
"500 97 OFFCURVE",
"445 60 OFFCURVE",
"316 60 CURVE SMOOTH",
"113 60 LINE",
"158 15 LINE"
);
}
);
width = 615;
}
);
note = B;
unicode = 0042;
},
{
glyphname = C;
lastChange = "2018-02-18 14:34:41 +0000";
layers = (
{
anchors = (
{
name = bottom;
position = "{352, 0}";
},
{
name = top;
position = "{352, 660}";
}
);
hints = (
{
horizontal = 1;
origin = "{0, 32}";
target = "{0, 8}";
},
{
horizontal = 1;
origin = "{0, 26}";
target = "{0, 14}";
},
{
origin = "{0, 29}";
target = "{0, 11}";
}
);
layerId = "5A4BD32C-A1D1-4EB1-A794-47BD06E3B809";
paths = (
{
closed = 1;
nodes = (
"440 -10 OFFCURVE",
"540 27 OFFCURVE",
"540 78 CURVE SMOOTH",
"540 98 OFFCURVE",
"525 111 OFFCURVE",
"509 112 CURVE",
"474 84 OFFCURVE",
"432 56 OFFCURVE",
"350 56 CURVE SMOOTH",
"217 56 OFFCURVE",
"126 138 OFFCURVE",
"126 348 CURVE SMOOTH",
"126 560 OFFCURVE",
"217 642 OFFCURVE",
"350 642 CURVE SMOOTH",
"410 642 OFFCURVE",
"448 623 OFFCURVE",
"478 600 CURVE SMOOTH",
"486 594 OFFCURVE",
"495 591 OFFCURVE",
"504 591 CURVE SMOOTH",
"522 591 OFFCURVE",
"538 604 OFFCURVE",
"546 630 CURVE",
"500 678 OFFCURVE",
"433 707 OFFCURVE",
"352 707 CURVE SMOOTH",
"180 707 OFFCURVE",
"52 602 OFFCURVE",
"52 348 CURVE SMOOTH",
"52 95 OFFCURVE",
"180 -10 OFFCURVE",
"352 -10 CURVE SMOOTH"
);
}
);
width = 596;
}
);
note = C;
unicode = 0043;
},
{
glyphname = D;
lastChange = "2018-02-18 14:34:41 +0000";
layers = (
{
anchors = (
{
name = bottom;
position = "{336, 0}";
},
{
name = center;
position = "{336, 350}";
},
{
name = top;
position = "{336, 650}";
}
);
hints = (
{
horizontal = 1;
origin = "{0, 8}";
target = "{1, 10}";
},
{
horizontal = 1;
origin = "{0, 7}";
target = "{1, 1}";
},
{
origin = "{0, 8}";
target = "{1, 10}";
},
{
origin = "{1, 5}";
target = "{0, 3}";
}
);
layerId = "5A4BD32C-A1D1-4EB1-A794-47BD06E3B809";
paths = (
{
closed = 1;
nodes = (
"293 0 LINE SMOOTH",
"487 0 OFFCURVE",
"615 125 OFFCURVE",
"615 350 CURVE SMOOTH",
"615 589 OFFCURVE",
"487 700 OFFCURVE",
"293 700 CURVE SMOOTH",
"86 700 LINE",
"86 0 LINE"
);
},
{
closed = 1;
nodes = (
"158 685 LINE",
"113 640 LINE",
"293 640 LINE SMOOTH",
"445 640 OFFCURVE",
"541 563 OFFCURVE",
"541 349 CURVE SMOOTH",
"541 149 OFFCURVE",
"445 60 OFFCURVE",
"293 60 CURVE SMOOTH",
"113 60 LINE",
"158 15 LINE"
);
}
);
width = 672;
}
);
note = D;
unicode = 0044;
},
{
glyphname = E;
lastChange = "2018-02-18 14:34:41 +0000";
layers = (
{
anchors = (
{
name = bottom;
position = "{280, 0}";
},
{
name = ogonek;
position = "{504, 10}";
},
{
name = top;
position = "{280, 670}";
},
{
name = topleft;
position = "{20, 700}";
}
);
hints = (
{
horizontal = 1;
origin = "{0, 11}";
target = "{0, 5}";
},
{
horizontal = 1;
origin = "{1, 3}";
target = "{1, 2}";
},
{
horizontal = 1;
origin = "{0, 10}";
target = "{0, 7}";
},
{
origin = "{0, 11}";
target = "{0, 5}";
}
);
layerId = "5A4BD32C-A1D1-4EB1-A794-47BD06E3B809";
paths = (
{
closed = 1;
nodes = (
"453 0 LINE SMOOTH",
"495 0 OFFCURVE",
"505 12 OFFCURVE",
"505 60 CURVE",
"113 60 LINE",
"158 15 LINE",
"158 685 LINE",
"113 640 LINE",
"504 640 LINE",
"504 700 LINE",
"86 700 LINE",
"86 0 LINE"
);
},
{
closed = 1;
nodes = (
"456 328 LINE",
"456 388 LINE",
"123 388 LINE",
"123 328 LINE"
);
}
);
width = 560;
}
);
note = E;
unicode = 0045;
},
{
glyphname = F;
lastChange = "2018-02-18 14:34:41 +0000";
layers = (
{
anchors = (
{
name = bottom;
position = "{122, 0}";
},
{
name = top;
position = "{292, 660}";
}
);
hints = (
{
horizontal = 1;
origin = "{0, 6}";
target = up;
type = BottomGhost;
},
{
horizontal = 1;
origin = "{1, 3}";
target = "{1, 2}";
},
{
horizontal = 1;
origin = "{0, 5}";
target = "{0, 2}";
},
{
origin = "{0, 6}";
target = "{0, 0}";
}
);
layerId = "5A4BD32C-A1D1-4EB1-A794-47BD06E3B809";
paths = (
{
closed = 1;
nodes = (
"158 0 LINE",
"158 685 LINE",
"113 640 LINE",
"498 640 LINE",
"498 700 LINE",
"86 700 LINE",
"86 0 LINE"
);
},
{
closed = 1;
nodes = (
"455 333 LINE",
"455 393 LINE",
"133 393 LINE",
"133 333 LINE"
);
}
);
width = 530;
}
);
note = F;
unicode = 0046;
},
{
glyphname = G;
lastChange = "2018-02-18 14:34:41 +0000";
layers = (
{
anchors = (
{
name = bottom;
position = "{377, 0}";
},
{
name = top;
position = "{377, 660}";
}
);
hints = (
{
horizontal = 1;
origin = "{0, 34}";
target = "{0, 13}";
},
{
horizontal = 1;
origin = "{0, 9}";
target = "{0, 4}";
},
{
horizontal = 1;
origin = "{0, 28}";
target = "{0, 19}";
},
{
origin = "{0, 31}";
target = "{0, 16}";
},
{
origin = "{0, 10}";
target = "{0, 2}";
}
);
layerId = "5A4BD32C-A1D1-4EB1-A794-47BD06E3B809";
paths = (
{
closed = 1;
nodes = (
"485 -10 OFFCURVE",
"565 33 OFFCURVE",
"604 73 CURVE",
"604 373 LINE",
"354 373 LINE",
"354 324 OFFCURVE",
"366 311 OFFCURVE",
"391 311 CURVE SMOOTH",
"577 311 LINE",
"532 356 LINE",
"532 101 LINE",
"504 71 OFFCURVE",
"441 53 OFFCURVE",
"376 53 CURVE SMOOTH",
"223 53 OFFCURVE",
"136 138 OFFCURVE",
"136 348 CURVE SMOOTH",
"136 560 OFFCURVE",
"233 644 OFFCURVE",
"376 644 CURVE SMOOTH",
"446 644 OFFCURVE",
"487 620 OFFCURVE",
"524 589 CURVE SMOOTH",
"549 568 OFFCURVE",
"576 566 OFFCURVE",
"601 610 CURVE",
"561 667 OFFCURVE",
"475 707 OFFCURVE",
"377 707 CURVE SMOOTH",
"195 707 OFFCURVE",
"62 602 OFFCURVE",
"62 348 CURVE SMOOTH",
"62 95 OFFCURVE",
"185 -10 OFFCURVE",
"377 -10 CURVE SMOOTH"
);
}
);
width = 666;
}
);
note = G;
unicode = 0047;
},
{
glyphname = H;
lastChange = "2018-02-18 14:34:41 +0000";
layers = (
{
anchors = (
{
name = bottom;
position = "{340, 0}";
},
{
name = center;
position = "{340, 350}";
},
{
name = top;
position = "{340, 650}";
},
{
name = topleft;
position = "{20, 700}";
}
);
hints = (
{
horizontal = 1;
origin = "{1, 3}";
target = up;
type = BottomGhost;
},
{
horizontal = 1;
origin = "{2, 3}";
target = "{2, 2}";
},
{
horizontal = 1;
origin = "{1, 2}";
target = down;
type = TopGhost;
},
{
origin = "{1, 3}";
target = "{1, 0}";
},
{
origin = "{0, 3}";
target = "{0, 0}";
}
);
layerId = "5A4BD32C-A1D1-4EB1-A794-47BD06E3B809";
paths = (
{
closed = 1;
nodes = (
"594 0 LINE",
"594 700 LINE",
"522 700 LINE",
"522 0 LINE"
);
},
{
closed = 1;
nodes = (
"158 0 LINE",
"158 700 LINE",
"86 700 LINE",
"86 0 LINE"
);
},
{
closed = 1;
nodes = (
"547 330 LINE",
"547 390 LINE",
"133 390 LINE",
"133 330 LINE"
);
}
);
width = 680;
}
);
note = H;
unicode = 0048;
},
{
glyphname = I;
lastChange = "2018-02-18 14:34:41 +0000";
layers = (
{
anchors = (
{
name = bottom;
position = "{175, 0}";
},
{
name = ogonek;
position = "{246, 10}";
},
{
name = top;
position = "{175, 660}";
},
{
name = topleft;
position = "{0, 700}";
}
);
hints = (
{
horizontal = 1;
origin = "{0, 3}";
},
{
horizontal = 1;
origin = "{0, 2}";
},
{
origin = "{0, 3}";
target = "{0, 0}";
}
);
layerId = "5A4BD32C-A1D1-4EB1-A794-47BD06E3B809";
paths = (
{
closed = 1;
nodes = (
"211 0 LINE",
"211 700 LINE",
"139 700 LINE",
"139 0 LINE"
);
}
);
width = 350;
}
);
note = I;
unicode = 0049;
},
{
glyphname = J;
lastChange = "2018-02-18 14:34:41 +0000";
layers = (
{
anchors = (
{
name = bottom;
position = "{214, 0}";
},
{
name = top;
position = "{303, 660}";
}
);
hints = (
{
horizontal = 1;
origin = "{0, 17}";
target = "{0, 8}";
},
{
horizontal = 1;
origin = "{0, 4}";
target = down;
type = TopGhost;
},
{
origin = "{0, 5}";
target = "{0, 2}";
}
);
layerId = "5A4BD32C-A1D1-4EB1-A794-47BD06E3B809";
paths = (
{
closed = 1;
nodes = (
"267 -10 OFFCURVE",
"339 64 OFFCURVE",
"339 183 CURVE SMOOTH",
"339 700 LINE",
"267 700 LINE",
"267 183 LINE SMOOTH",
"267 100 OFFCURVE",
"231 52 OFFCURVE",
"149 52 CURVE SMOOTH",
"99 52 OFFCURVE",
"63 70 OFFCURVE",
"51 70 CURVE SMOOTH",
"37 70 OFFCURVE",
"24 55 OFFCURVE",
"24 17 CURVE",
"46 5 OFFCURVE",
"99 -10 OFFCURVE",
"147 -10 CURVE SMOOTH"
);
}
);
width = 427;
}
);
note = J;
unicode = 004A;
},
{
glyphname = K;
lastChange = "2018-02-18 14:34:41 +0000";
layers = (
{
anchors = (
{
name = bottom;
position = "{305, 0}";
},
{
name = top;
position = "{305, 660}";
}
);
layerId = "5A4BD32C-A1D1-4EB1-A794-47BD06E3B809";
paths = (
{
closed = 1;
nodes = (
"557 -8 OFFCURVE",
"572 -4 OFFCURVE",
"585 3 CURVE",
"402 289 LINE SMOOTH",
"361 353 OFFCURVE",
"317 392 OFFCURVE",
"231 392 CURVE SMOOTH",
"131 392 LINE",
"131 330 LINE",
"211 330 LINE SMOOTH",
"274 330 OFFCURVE",
"306 324 OFFCURVE",
"340 268 CURVE SMOOTH",
"492 22 LINE SMOOTH",
"503 4 OFFCURVE",
"514 -8 OFFCURVE",
"542 -8 CURVE SMOOTH"
);
},
{
closed = 1;
nodes = (
"172 0 LINE",
"172 700 LINE",
"100 700 LINE",
"100 0 LINE"
);
},
{
closed = 1;
nodes = (
"301 344 LINE",
"577 700 LINE",
"494 700 LINE",
"239 366 LINE"
);
}
);
width = 610;
}
);
note = K;
unicode = 004B;
},
{
glyphname = L;
lastChange = "2018-02-18 14:34:41 +0000";
layers = (
{
anchors = (
{
name = bottom;
position = "{292, 0}";
},
{
name = center;
position = "{257, 350}";
},
{
name = top;
position = "{122, 700}";
},
{
name = topright;
position = "{493, 700}";
}
);
hints = (
{
horizontal = 1;
origin = "{0, 6}";
target = "{0, 3}";
},
{
horizontal = 1;
origin = "{0, 5}";
target = down;
type = TopGhost;
},
{
origin = "{0, 6}";
target = "{0, 3}";
}
);
layerId = "5A4BD32C-A1D1-4EB1-A794-47BD06E3B809";
paths = (
{
closed = 1;
nodes = (
"498 0 LINE",
"498 60 LINE",
"113 60 LINE",
"158 15 LINE",
"158 700 LINE",
"86 700 LINE",
"86 0 LINE"
);
}
);
width = 513;
}
);
note = L;
unicode = 004C;
},
{
glyphname = M;
lastChange = "2018-02-18 14:34:41 +0000";
layers = (
{
anchors = (
{
name = bottom;
position = "{415, 0}";
},
{
name = top;
position = "{415, 660}";
}
);
layerId = "5A4BD32C-A1D1-4EB1-A794-47BD06E3B809";
paths = (
{
closed = 1;
nodes = (
"521 533 OFFCURVE",
"471 416 OFFCURVE",
"404 172 CURVE",
"426 173 LINE",
"359 416 OFFCURVE",
"308 533 OFFCURVE",
"231 700 CURVE",
"151 700 LINE",
"119 497 OFFCURVE",
"88 243 OFFCURVE",
"76 0 CURVE",
"148 0 LINE",
"160 245 OFFCURVE",
"191 469 OFFCURVE",
"213 644 CURVE",
"191 627 LINE",
"263 466 OFFCURVE",
"312 325 OFFCURVE",
"389 60 CURVE",
"441 60 LINE",
"518 324 OFFCURVE",
"563 466 OFFCURVE",
"636 626 CURVE",
"616 644 LINE",
"638 469 OFFCURVE",
"669 245 OFFCURVE",
"681 0 CURVE",
"753 0 LINE",
"741 243 OFFCURVE",
"710 497 OFFCURVE",
"678 700 CURVE",
"598 700 LINE"
);
}
);
width = 829;
}
);
note = M;
unicode = 004D;
},
{
glyphname = N;
lastChange = "2018-02-18 14:34:41 +0000";
layers = (
{
anchors = (
{
name = bottom;
position = "{343, 0}";
},
{
name = top;
position = "{343, 660}";
}
);
hints = (
{
horizontal = 1;
origin = "{0, 24}";
target = up;
type = BottomGhost;
},
{
horizontal = 1;
origin = "{0, 23}";
target = down;
type = TopGhost;
},
{
horizontal = 1;
origin = "{0, 23}";
target = "{0, 2}";
},
{
origin = "{0, 24}";
target = "{0, 0}";
},
{
origin = "{0, 7}";
target = "{0, 14}";
}
);
layerId = "5A4BD32C-A1D1-4EB1-A794-47BD06E3B809";
paths = (
{
closed = 1;
nodes = (
"158 0 LINE",
"158 648 LINE",
"130 638 LINE",
"488 165 LINE SMOOTH",
"517 126 OFFCURVE",
"527 87 OFFCURVE",
"527 54 CURVE SMOOTH",
"527 0 LINE",
"577 0 LINE SMOOTH",
"594 0 OFFCURVE",
"603 10 OFFCURVE",
"603 27 CURVE SMOOTH",
"603 51 OFFCURVE",
"599 90 OFFCURVE",
"599 137 CURVE SMOOTH",
"599 700 LINE",
"527 700 LINE",
"527 178 LINE",
"555 188 LINE",
"182 680 LINE SMOOTH",
"168 698 OFFCURVE",
"160 700 OFFCURVE",
"144 700 CURVE SMOOTH",
"86 700 LINE",
"86 0 LINE"
);
}
);
width = 689;
}
);
note = N;
unicode = 004E;
},
{
glyphname = O;
lastChange = "2018-02-18 14:34:41 +0000";
layers = (
{
anchors = (
{
name = bottom;
position = "{340, 0}";
},
{
name = center;
position = "{340, 350}";
},
{
name = ogonek;
position = "{439, 31}";
},
{
name = top;
position = "{340, 660}";
},
{
name = topleft;
position = "{20, 700}";
},
{
name = topright;
position = "{482, 639}";
}
);
hints = (
{
horizontal = 1;
origin = "{0, 11}";
target = "{1, 11}";
},
{
horizontal = 1;
origin = "{0, 5}";
target = "{1, 5}";
},
{
origin = "{0, 8}";
target = "{1, 2}";
},
{
origin = "{1, 8}";
target = "{0, 2}";
}
);
layerId = "5A4BD32C-A1D1-4EB1-A794-47BD06E3B809";
paths = (
{
closed = 1;
nodes = (
"525 -9 OFFCURVE",
"632 114 OFFCURVE",
"632 351 CURVE SMOOTH",
"632 583 OFFCURVE",
"525 704 OFFCURVE",
"340 704 CURVE SMOOTH",
"155 704 OFFCURVE",
"48 583 OFFCURVE",
"48 351 CURVE SMOOTH",
"48 114 OFFCURVE",
"155 -9 OFFCURVE",
"340 -9 CURVE SMOOTH"
);
},
{
closed = 1;
nodes = (
"198 55 OFFCURVE",
"122 151 OFFCURVE",
"122 351 CURVE SMOOTH",
"122 549 OFFCURVE",
"198 640 OFFCURVE",
"340 640 CURVE SMOOTH",
"482 640 OFFCURVE",
"558 549 OFFCURVE",
"558 351 CURVE SMOOTH",
"558 151 OFFCURVE",
"482 55 OFFCURVE",
"340 55 CURVE SMOOTH"
);
}
);
width = 680;
}
);
note = O;
unicode = 004F;
},
{
glyphname = P;
lastChange = "2018-02-18 14:34:41 +0000";
layers = (
{
anchors = (
{
name = bottom;
position = "{308, 0}";
},
{
name = top;
position = "{308, 660}";
}
);
hints = (
{
horizontal = 1;
origin = "{0, 9}";
target = up;
type = BottomGhost;
},
{
horizontal = 1;
origin = "{0, 0}";
target = "{0, 20}";
},
{
horizontal = 1;
origin = "{0, 8}";
target = "{0, 12}";
},
{
origin = "{0, 9}";
target = "{0, 10}";
},
{
origin = "{0, 16}";
target = "{0, 4}";
}
);
layerId = "5A4BD32C-A1D1-4EB1-A794-47BD06E3B809";
paths = (
{
closed = 1;
nodes = (
"123 251 LINE",
"294 251 LINE SMOOTH",
"477 251 OFFCURVE",
"572 328 OFFCURVE",
"572 477 CURVE SMOOTH",
"572 624 OFFCURVE",
"477 700 OFFCURVE",
"294 700 CURVE SMOOTH",
"86 700 LINE",
"86 0 LINE",
"158 0 LINE",
"158 684 LINE",
"113 638 LINE",
"294 638 LINE SMOOTH",
"437 638 OFFCURVE",
"500 589 OFFCURVE",
"500 477 CURVE SMOOTH",
"500 363 OFFCURVE",
"437 313 OFFCURVE",
"294 313 CURVE SMOOTH",
"123 313 LINE"
);
}
);
width = 615;
}
);
note = P;
unicode = 0050;
},
{
glyphname = Q;
lastChange = "2018-02-18 14:34:41 +0000";
layers = (
{
components = (
{
name = O;
}
);
layerId = "5A4BD32C-A1D1-4EB1-A794-47BD06E3B809";
paths = (
{
closed = 1;
nodes = (
"491 1 OFFCURVE",
"430 83 OFFCURVE",
"390 149 CURVE",
"314 149 LINE",
"363 68 OFFCURVE",
"409 -5 OFFCURVE",
"440 -53 CURVE SMOOTH",
"451 -70 OFFCURVE",
"467 -82 OFFCURVE",
"485 -82 CURVE SMOOTH",
"507 -82 OFFCURVE",
"527 -71 OFFCURVE",
"540 -57 CURVE"
);
}
);
width = 680;
}
);
note = Q;
unicode = 0051;
},
{
glyphname = R;
lastChange = "2018-02-18 14:34:41 +0000";
layers = (
{
anchors = (
{
name = bottom;
position = "{315, 0}";
},
{
name = top;
position = "{313, 660}";
}
);
hints = (
{
horizontal = 1;
origin = "{0, 23}";
target = up;
type = BottomGhost;
},
{
horizontal = 1;
origin = "{1, 8}";
target = "{1, 7}";
},
{
horizontal = 1;
origin = "{0, 19}";
target = "{0, 2}";
},
{
horizontal = 1;
origin = "{1, 16}";
target = up;
type = BottomGhost;
},
{
origin = "{0, 23}";
target = "{0, 0}";
},
{
origin = "{0, 6}";
target = "{0, 15}";
}
);
layerId = "5A4BD32C-A1D1-4EB1-A794-47BD06E3B809";
paths = (
{
closed = 1;
nodes = (
"158 0 LINE",
"158 684 LINE",
"113 638 LINE",
"313 638 LINE SMOOTH",
"434 638 OFFCURVE",
"497 590 OFFCURVE",
"497 498 CURVE SMOOTH",
"497 405 OFFCURVE",
"423 357 OFFCURVE",
"308 357 CURVE SMOOTH",
"231 357 LINE",
"286 297 LINE",
"347 297 LINE SMOOTH",
"482 297 OFFCURVE",
"572 388 OFFCURVE",
"572 498 CURVE SMOOTH",
"572 610 OFFCURVE",
"493 700 OFFCURVE",
"313 700 CURVE SMOOTH",
"105 700 LINE SMOOTH",
"92 700 OFFCURVE",
"86 691 OFFCURVE",
"86 678 CURVE SMOOTH",
"86 0 LINE"
);
},
{
closed = 1;
nodes = (
"557 -8 OFFCURVE",
"572 -4 OFFCURVE",
"585 3 CURVE",
"444 240 LINE SMOOTH",
"402 311 OFFCURVE",
"322 357 OFFCURVE",
"231 357 CURVE SMOOTH",
"136 357 LINE",
"136 295 LINE",
"226 295 LINE SMOOTH",
"289 295 OFFCURVE",
"339 286 OFFCURVE",
"378 218 CURVE SMOOTH",
"492 22 LINE SMOOTH",
"502 4 OFFCURVE",
"514 -8 OFFCURVE",
"542 -8 CURVE SMOOTH"
);
}
);
width = 629;
}
);
note = R;
unicode = 0052;
},
{
glyphname = S;
lastChange = "2018-02-18 14:34:41 +0000";
layers = (
{
anchors = (
{
name = bottom;
position = "{321, 0}";
},
{
name = top;
position = "{321, 660}";
}
);
hints = (
{
horizontal = 1;
origin = "{0, 38}";
target = "{0, 29}";
},
{
horizontal = 1;
origin = "{0, 20}";
target = "{0, 8}";
},
{
origin = "{0, 23}";
target = "{0, 5}";
},
{
origin = "{0, 26}";
target = "{0, 2}";
}
);
layerId = "5A4BD32C-A1D1-4EB1-A794-47BD06E3B809";
paths = (
{
closed = 1;
nodes = (
"487 -9 OFFCURVE",
"585 75 OFFCURVE",
"585 200 CURVE SMOOTH",
"585 452 OFFCURVE",
"161 369 OFFCURVE",
"161 529 CURVE SMOOTH",
"161 608 OFFCURVE",
"217 650 OFFCURVE",
"322 650 CURVE SMOOTH",
"401 650 OFFCURVE",
"460 605 OFFCURVE",
"485 554 CURVE SMOOTH",
"494 535 OFFCURVE",
"507 527 OFFCURVE",
"526 527 CURVE SMOOTH",
"541 527 OFFCURVE",
"557 531 OFFCURVE",
"566 540 CURVE",
"534 660 OFFCURVE",
"435 710 OFFCURVE",
"322 710 CURVE SMOOTH",
"173 710 OFFCURVE",
"89 638 OFFCURVE",
"89 529 CURVE SMOOTH",
"89 287 OFFCURVE",
"511 396 OFFCURVE",
"511 194 CURVE SMOOTH",
"511 111 OFFCURVE",
"438 53 OFFCURVE",
"324 53 CURVE SMOOTH",
"203 53 OFFCURVE",
"141 113 OFFCURVE",
"122 198 CURVE",
"87 197 OFFCURVE",
"69 177 OFFCURVE",
"69 152 CURVE SMOOTH",
"69 65 OFFCURVE",
"177 -9 OFFCURVE",
"322 -9 CURVE SMOOTH"
);
}
);
width = 642;
}
);
note = S;
unicode = 0053;
},
{
glyphname = T;
lastChange = "2018-02-18 14:34:41 +0000";
layers = (
{
anchors = (
{
name = bottom;
position = "{268, 0}";
},
{
name = center;
position = "{268, 350}";
},
{
name = top;
position = "{268, 660}";
}
);
hints = (
{
horizontal = 1;
origin = "{0, 3}";
target = up;
type = BottomGhost;
},
{
horizontal = 1;
origin = "{1, 7}";
target = "{1, 8}";
},
{
origin = "{0, 3}";
target = "{0, 0}";
}
);
layerId = "5A4BD32C-A1D1-4EB1-A794-47BD06E3B809";
paths = (
{
closed = 1;
nodes = (
"303 0 LINE",
"303 666 LINE",
"231 666 LINE",
"231 0 LINE"
);
},
{
closed = 1;
nodes = (
"487 640 LINE SMOOTH",
"511 640 OFFCURVE",
"523 654 OFFCURVE",
"523 676 CURVE SMOOTH",
"523 683 OFFCURVE",
"521 691 OFFCURVE",
"519 700 CURVE",
"15 700 LINE",
"15 640 LINE"
);
}
);
width = 534;
}
);
note = T;
unicode = 0054;
},
{
glyphname = U;
lastChange = "2018-02-18 14:34:41 +0000";
layers = (
{
anchors = (
{
name = bottom;
position = "{354, 0}";
},
{
name = ogonek;
position = "{445, 10}";
},
{
name = top;
position = "{354, 650}";
},
{
name = topright;
position = "{625, 673}";
}
);
hints = (
{
horizontal = 1;
origin = "{0, 17}";
target = "{0, 8}";
},
{
horizontal = 1;
origin = "{0, 13}";
target = down;
type = TopGhost;
},
{
origin = "{0, 14}";
target = "{0, 11}";
},
{
origin = "{0, 5}";
target = "{0, 2}";
}
);
layerId = "5A4BD32C-A1D1-4EB1-A794-47BD06E3B809";
paths = (
{
closed = 1;
nodes = (
"546 -9 OFFCURVE",
"625 78 OFFCURVE",
"625 252 CURVE SMOOTH",
"625 700 LINE",
"553 700 LINE",
"553 242 LINE SMOOTH",
"553 115 OFFCURVE",
"497 53 OFFCURVE",
"356 53 CURVE SMOOTH",
"219 53 OFFCURVE",
"158 114 OFFCURVE",
"158 242 CURVE SMOOTH",
"158 700 LINE",
"86 700 LINE",
"86 252 LINE SMOOTH",
"86 83 OFFCURVE",
"167 -9 OFFCURVE",
"356 -9 CURVE SMOOTH"
);
}
);
width = 708;
}
);
note = U;
unicode = 0055;
},
{
glyphname = V;
lastChange = "2018-02-18 14:34:41 +0000";
layers = (
{
anchors = (
{
name = bottom;
position = "{319, 0}";
},
{
name = top;
position = "{319, 660}";
}
);
layerId = "5A4BD32C-A1D1-4EB1-A794-47BD06E3B809";
paths = (
{
closed = 1;
nodes = (
"357 0 LINE",
"609 700 LINE",
"531 700 LINE",
"304 52 LINE",
"334 52 LINE",
"107 700 LINE",
"29 700 LINE",
"282 0 LINE"
);
}
);
width = 638;
}
);
note = V;
unicode = 0056;
},
{
glyphname = W;
lastChange = "2018-02-18 14:34:41 +0000";
layers = (
{
anchors = (
{
name = bottom;
position = "{428, 0}";
},
{
name = top;
position = "{428, 660}";
}
);
hints = (
{
horizontal = 1;
origin = "{0, 31}";
target = up;
type = BottomGhost;
},
{
horizontal = 1;
origin = "{0, 12}";
target = down;
type = TopGhost;
},
{
horizontal = 1;
place = "{0, 101}";
},
{
horizontal = 1;
origin = "{0, 28}";
target = down;
type = TopGhost;
},
{
origin = "{0, 12}";
target = "{0, 11}";
}
);
layerId = "5A4BD32C-A1D1-4EB1-A794-47BD06E3B809";
paths = (
{
closed = 1;
nodes = (
"277 0 LINE",
"351 246 OFFCURVE",
"397 406 OFFCURVE",
"436 588 CURVE",
"420 588 LINE",
"458 406 OFFCURVE",
"506 246 OFFCURVE",
"579 0 CURVE",
"661 0 LINE",
"729 223 OFFCURVE",
"798 447 OFFCURVE",
"836 700 CURVE",
"768 700 LINE",
"735 466 OFFCURVE",
"672 263 OFFCURVE",
"609 59 CURVE",
"632 60 LINE",
"566 262 OFFCURVE",
"527 411 OFFCURVE",
"447 700 CURVE",
"405 700 LINE",
"331 411 OFFCURVE",
"291 262 OFFCURVE",
"224 60 CURVE",
"247 59 LINE",
"182 263 OFFCURVE",
"117 466 OFFCURVE",
"82 700 CURVE",
"10 700 LINE",
"52 447 OFFCURVE",
"123 223 OFFCURVE",
"195 0 CURVE"
);
}
);
width = 856;
}
);
note = W;
unicode = 0057;
},
{
glyphname = X;
lastChange = "2018-02-18 14:34:41 +0000";
layers = (
{
anchors = (
{
name = bottom;
position = "{291, 0}";
},
{
name = top;
position = "{291, 660}";
}
);
layerId = "5A4BD32C-A1D1-4EB1-A794-47BD06E3B809";
paths = (
{
closed = 1;
nodes = (
"495 353 OFFCURVE",
"177 407 OFFCURVE",
"114 700 CURVE",
"39 700 LINE",
"101 387 OFFCURVE",
"429 313 OFFCURVE",
"481 0 CURVE",
"558 0 LINE"
);
},
{
closed = 1;
nodes = (
"153 313 OFFCURVE",
"481 387 OFFCURVE",
"543 700 CURVE",
"468 700 LINE",
"405 407 OFFCURVE",
"87 353 OFFCURVE",
"24 0 CURVE",
"101 0 LINE"
);
}
);
width = 582;
}
);
note = X;
unicode = 0058;
},
{
glyphname = Y;
lastChange = "2018-02-18 14:34:41 +0000";
layers = (
{
anchors = (
{
name = bottom;
position = "{295, 0}";
},
{
name = top;
position = "{295, 660}";
},
{
name = topleft;
position = "{20, 700}";
}
);
hints = (
{
horizontal = 1;
origin = "{0, 9}";
target = up;
type = BottomGhost;
},
{
horizontal = 1;
origin = "{0, 7}";
target = down;
type = TopGhost;
},
{
origin = "{0, 9}";
target = "{0, 0}";
}
);
layerId = "5A4BD32C-A1D1-4EB1-A794-47BD06E3B809";
paths = (
{
closed = 1;
nodes = (
"331 0 LINE",
"331 294 LINE",
"570 700 LINE",
"493 700 LINE",
"275 325 LINE",
"317 325 LINE",
"98 700 LINE",
"20 700 LINE",
"259 294 LINE",
"259 0 LINE"
);
}
);
width = 590;
}
);
note = Y;
unicode = 0059;
},
{
glyphname = Z;
lastChange = "2018-02-18 14:34:41 +0000";
layers = (
{
anchors = (
{
name = bottom;
position = "{290, 0}";
},
{
name = top;
position = "{290, 660}";
}
);
hints = (
{
horizontal = 1;
origin = "{0, 11}";
target = "{0, 10}";
},
{
horizontal = 1;
origin = "{0, 6}";
target = "{0, 7}";
},
{
origin = "{0, 7}";
target = "{0, 0}";
}
);
layerId = "5A4BD32C-A1D1-4EB1-A794-47BD06E3B809";
paths = (
{
closed = 1;
nodes = (
"528 0 LINE",
"528 60 LINE",
"93 60 LINE",
"113 22 LINE",
"520 636 LINE",
"520 700 LINE",
"52 700 LINE",
"52 640 LINE",
"486 640 LINE",
"466 677 LINE",
"54 60 LINE",
"54 0 LINE"
);
}
);
width = 580;
}
);
note = Z;
unicode = 005A;
},
{
glyphname = a;
lastChange = "2018-02-18 14:34:41 +0000";
layers = (
{
anchors = (
{
name = bottom;
position = "{279, 0}";
},
{
name = ogonek;
position = "{502, 10}";
},
{
name = top;
position = "{277, 550}";
}
);
hints = (
{
horizontal = 1;
origin = "{1, 19}";
target = "{1, 6}";
},
{
horizontal = 1;
origin = "{1, 12}";
target = "{1, 13}";
},
{
horizontal = 1;
origin = "{0, 12}";
target = down;
type = TopGhost;
},
{
horizontal = 1;
origin = "{0, 18}";
target = "{0, 9}";
},
{
horizontal = 1;
place = "{439.09, 31.91}";
},
{
origin = "{1, 16}";
target = "{1, 9}";
},
{
origin = "{0, 22}";
target = "{0, 5}";
}
);
layerId = "5A4BD32C-A1D1-4EB1-A794-47BD06E3B809";
paths = (
{
closed = 1;
nodes = (
"477 -5 OFFCURVE",
"497 4 OFFCURVE",
"510 17 CURVE",
"487 42 OFFCURVE",
"476 61 OFFCURVE",
"476 137 CURVE SMOOTH",
"476 373 LINE SMOOTH",
"476 489 OFFCURVE",
"399 560 OFFCURVE",
"276 560 CURVE SMOOTH",
"177 560 OFFCURVE",
"103 513 OFFCURVE",
"51 451 CURVE",
"70 424 OFFCURVE",
"95 408 OFFCURVE",
"111 424 CURVE SMOOTH",
"151 464 OFFCURVE",
"195 504 OFFCURVE",
"273 504 CURVE SMOOTH",
"366 504 OFFCURVE",
"408 459 OFFCURVE",
"408 373 CURVE SMOOTH",
"408 116 LINE SMOOTH",
"408 32 OFFCURVE",
"432 -5 OFFCURVE",
"461 -5 CURVE SMOOTH"
);
},
{
closed = 1;
nodes = (
"321 -12 OFFCURVE",
"394 44 OFFCURVE",
"422 103 CURVE",
"422 185 LINE",
"377 100 OFFCURVE",
"306 44 OFFCURVE",
"223 44 CURVE SMOOTH",
"155 44 OFFCURVE",
"120 74 OFFCURVE",
"120 133 CURVE SMOOTH",
"120 221 OFFCURVE",
"206 279 OFFCURVE",
"422 286 CURVE",
"422 342 LINE",
"199 334 OFFCURVE",
"50 269 OFFCURVE",
"50 132 CURVE SMOOTH",
"50 39 OFFCURVE",
"126 -12 OFFCURVE",
"218 -12 CURVE SMOOTH"
);
}
);
width = 558;
}
);
note = a;
unicode = 0061;
},
{
glyphname = b;
lastChange = "2018-02-18 14:34:41 +0000";
layers = (
{
hints = (
{
horizontal = 1;
origin = "{1, 3}";
target = "{1, 22}";
},
{
horizontal = 1;
origin = "{1, 16}";
target = "{1, 9}";
},
{
origin = "{0, 3}";
target = "{0, 0}";
},
{
origin = "{1, 19}";
target = "{1, 6}";
}
);
layerId = "5A4BD32C-A1D1-4EB1-A794-47BD06E3B809";
paths = (
{
closed = 1;
nodes = (
"171 108 CURVE SMOOTH",
"171 791 LINE",
"101 791 LINE",
"101 132 LINE SMOOTH",
"101 62 OFFCURVE",
"91 32 OFFCURVE",
"82 12 CURVE",
"95 4 OFFCURVE",
"113 0 OFFCURVE",
"132 0 CURVE SMOOTH",
"159 0 OFFCURVE",
"171 49 OFFCURVE"
);
},
{
closed = 1;
nodes = (
"143 84 LINE",
"183 22 OFFCURVE",
"245 -12 OFFCURVE",
"333 -12 CURVE SMOOTH",
"464 -12 OFFCURVE",
"570 78 OFFCURVE",
"570 283 CURVE SMOOTH",
"570 466 OFFCURVE",
"480 560 OFFCURVE",
"338 560 CURVE SMOOTH",
"264 560 OFFCURVE",
"200 535 OFFCURVE",
"148 491 CURVE",
"148 427 LINE",
"196 472 OFFCURVE",
"261 504 OFFCURVE",
"338 504 CURVE SMOOTH",
"435 504 OFFCURVE",
"500 433 OFFCURVE",
"500 283 CURVE SMOOTH",
"500 126 OFFCURVE",
"436 46 OFFCURVE",
"333 46 CURVE SMOOTH",
"250 46 OFFCURVE",
"187 87 OFFCURVE",
"149 155 CURVE"
);
}
);
width = 610;
}
);
note = b;
unicode = 0062;
},
{
glyphname = c;
lastChange = "2018-02-18 14:34:41 +0000";
layers = (
{
anchors = (
{
name = bottom;
position = "{287, 0}";
},
{
name = top;
position = "{287, 550}";
}
);
hints = (
{
horizontal = 1;
origin = "{0, 13}";
target = "{0, 22}";
},
{
horizontal = 1;
origin = "{0, 28}";
target = "{0, 7}";
},
{
origin = "{0, 10}";
target = "{0, 25}";
}
);
layerId = "5A4BD32C-A1D1-4EB1-A794-47BD06E3B809";
paths = (
{
closed = 1;
nodes = (
"445 375 OFFCURVE",
"458 375 CURVE SMOOTH",
"471 375 OFFCURVE",
"491 381 OFFCURVE",
"503 387 CURVE",
"492 491 OFFCURVE",
"413 560 OFFCURVE",
"287 560 CURVE SMOOTH",
"138 560 OFFCURVE",
"40 452 OFFCURVE",
"40 277 CURVE SMOOTH",
"40 110 OFFCURVE",
"128 -12 OFFCURVE",
"296 -12 CURVE SMOOTH",
"420 -12 OFFCURVE",
"489 56 OFFCURVE",
"489 95 CURVE SMOOTH",
"489 115 OFFCURVE",
"476 135 OFFCURVE",
"456 135 CURVE",
"432 91 OFFCURVE",
"387 44 OFFCURVE",
"296 44 CURVE SMOOTH",
"174 44 OFFCURVE",
"110 138 OFFCURVE",
"110 277 CURVE SMOOTH",
"110 434 OFFCURVE",
"187 506 OFFCURVE",
"287 506 CURVE SMOOTH",
"378 506 OFFCURVE",
"420 465 OFFCURVE",
"434 404 CURVE SMOOTH",
"440 378 OFFCURVE"
);
}
);
width = 547;
}
);
note = c;
unicode = 0063;
},
{
glyphname = d;
lastChange = "2018-02-18 14:34:41 +0000";
layers = (
{
hints = (
{
horizontal = 1;
origin = "{0, 25}";
target = "{0, 6}";
},
{
horizontal = 1;
origin = "{0, 12}";
target = "{0, 19}";
},
{
origin = "{0, 22}";
target = "{0, 9}";
},
{
origin = "{1, 8}";
target = "{1, 5}";
}
);
layerId = "5A4BD32C-A1D1-4EB1-A794-47BD06E3B809";
paths = (
{
closed = 1;
nodes = (
"363 -12 OFFCURVE",
"410 20 OFFCURVE",
"456 81 CURVE",
"454 154 LINE",
"413 87 OFFCURVE",
"362 44 OFFCURVE",
"278 44 CURVE SMOOTH",
"172 44 OFFCURVE",
"110 122 OFFCURVE",
"110 272 CURVE SMOOTH",
"110 419 OFFCURVE",
"171 506 OFFCURVE",
"292 506 CURVE SMOOTH",
"357 506 OFFCURVE",
"429 470 OFFCURVE",
"451 431 CURVE",
"455 498 LINE",
"436 521 OFFCURVE",
"368 560 OFFCURVE",
"292 560 CURVE SMOOTH",
"131 560 OFFCURVE",
"40 451 OFFCURVE",
"40 272 CURVE SMOOTH",
"40 69 OFFCURVE",
"151 -12 OFFCURVE",
"273 -12 CURVE SMOOTH"
);
},
{
closed = 1;
nodes = (
"488 -4 OFFCURVE",
"504 0 OFFCURVE",
"521 8 CURVE",
"515 29 OFFCURVE",
"507 73 OFFCURVE",
"507 128 CURVE SMOOTH",
"507 781 LINE",
"439 781 LINE",
"439 124 LINE SMOOTH",
"439 54 OFFCURVE",
"447 23 OFFCURVE",
"455 8 CURVE SMOOTH",
"459 0 OFFCURVE",
"466 -4 OFFCURVE",
"475 -4 CURVE SMOOTH"
);
}
);
width = 598;
}
);
note = d;
unicode = 0064;
},
{
glyphname = e;
lastChange = "2018-02-18 14:34:41 +0000";
layers = (
{
anchors = (
{
name = bottom;
position = "{290, 0}";
},
{
name = ogonek;
position = "{391, 10}";
},
{
name = top;
position = "{286, 550}";
}
);
hints = (
{
horizontal = 1;
origin = "{0, 29}";
target = "{0, 8}";
},
{
horizontal = 1;
place = "{128, 2042}";
},
{
horizontal = 1;
origin = "{0, 19}";
target = "{0, 18}";
},
{
horizontal = 1;
origin = "{0, 14}";
target = "{0, 23}";
},
{
origin = "{0, 26}";
target = "{0, 11}";
},
{
origin = "{0, 17}";
target = "{0, 20}";
}
);
layerId = "5A4BD32C-A1D1-4EB1-A794-47BD06E3B809";
paths = (
{
closed = 1;
nodes = (
"410 -12 OFFCURVE",
"484 43 OFFCURVE",
"509 128 CURVE",
"481 147 OFFCURVE",
"455 158 OFFCURVE",
"444 134 CURVE SMOOTH",
"417 76 OFFCURVE",
"377 46 OFFCURVE",
"290 46 CURVE SMOOTH",
"179 46 OFFCURVE",
"120 123 OFFCURVE",
"120 278 CURVE SMOOTH",
"120 424 OFFCURVE",
"174 506 OFFCURVE",
"286 506 CURVE SMOOTH",
"403 506 OFFCURVE",
"450 426 OFFCURVE",
"450 322 CURVE",
"102 322 LINE",
"102 268 LINE",
"520 268 LINE",
"520 450 OFFCURVE",
"452 560 OFFCURVE",
"289 560 CURVE SMOOTH",
"151 560 OFFCURVE",
"50 471 OFFCURVE",
"50 275 CURVE SMOOTH",
"50 79 OFFCURVE",
"148 -12 OFFCURVE",
"290 -12 CURVE SMOOTH"
);
}
);
width = 560;
}
);
note = e;
unicode = 0065;
},
{
glyphname = f;
lastChange = "2018-02-18 14:34:41 +0000";
layers = (
{
hints = (
{
horizontal = 1;
origin = "{0, 17}";
target = up;
type = BottomGhost;
},
{
horizontal = 1;
origin = "{1, 3}";
target = "{1, 2}";
},
{
horizontal = 1;
origin = "{0, 4}";
target = "{0, 13}";
},
{
origin = "{0, 17}";
target = "{0, 0}";
}
);
layerId = "5A4BD32C-A1D1-4EB1-A794-47BD06E3B809";
paths = (
{
closed = 1;
nodes = (
"183 0 LINE",
"183 623 LINE SMOOTH",
"183 691 OFFCURVE",
"215 724 OFFCURVE",
"269 724 CURVE SMOOTH",
"293 724 OFFCURVE",
"319 719 OFFCURVE",
"338 709 CURVE",
"348 709 OFFCURVE",
"358 754 OFFCURVE",
"338 766 CURVE SMOOTH",
"318 778 OFFCURVE",
"295 782 OFFCURVE",
"271 782 CURVE SMOOTH",
"187 782 OFFCURVE",
"115 734 OFFCURVE",
"115 624 CURVE SMOOTH",
"115 0 LINE"
);
},
{
closed = 1;
nodes = (
"307 497 LINE",
"307 549 LINE",
"12 549 LINE",
"12 497 LINE"
);
}
);
width = 335;
}
);
note = f;
unicode = 0066;
},
{
glyphname = g;
lastChange = "2018-02-18 14:34:41 +0000";
layers = (
{
anchors = (
{
name = bottom;
position = "{293, 0}";
},
{
name = top;
position = "{293, 550}";
}
);
hints = (
{
horizontal = 1;
origin = "{0, 25}";
target = "{1, 11}";
},
{
horizontal = 1;
origin = "{1, 5}";
target = "{0, 5}";
},
{
horizontal = 1;
origin = "{2, 11}";
target = "{3, 11}";
},
{
horizontal = 1;
origin = "{4, 2}";
target = "{4, 5}";
},
{
horizontal = 1;
origin = "{3, 5}";
target = "{2, 5}";
},
{
origin = "{2, 8}";
target = "{3, 2}";
},
{
origin = "{3, 8}";
target = "{2, 2}";
},
{
origin = "{0, 15}";
target = "{0, 8}";
},
{
origin = "{0, 22}";
target = "{1, 2}";
},
{
origin = "{1, 8}";
target = "{0, 2}";
}
);
layerId = "5A4BD32C-A1D1-4EB1-A794-47BD06E3B809";
paths = (
{
closed = 1;
nodes = (
"465 -202 OFFCURVE",
"546 -140 OFFCURVE",
"546 -46 CURVE SMOOTH",
"546 47 OFFCURVE",
"460 100 OFFCURVE",
"309 100 CURVE SMOOTH",
"170 100 OFFCURVE",
"148 123 OFFCURVE",
"148 145 CURVE SMOOTH",
"148 165 OFFCURVE",
"164 184 OFFCURVE",
"279 184 CURVE",
"192 217 LINE",
"131 213 OFFCURVE",
"88 181 OFFCURVE",
"88 141 CURVE SMOOTH",
"88 101 OFFCURVE",
"114 70 OFFCURVE",
"154 60 CURVE",
"154 57 LINE",
"96 39 OFFCURVE",
"50 -2 OFFCURVE",
"50 -60 CURVE SMOOTH",
"50 -140 OFFCURVE",
"111 -202 OFFCURVE",
"289 -202 CURVE SMOOTH"
);
},
{
closed = 1;
nodes = (
"179 -146 OFFCURVE",
"121 -112 OFFCURVE",
"121 -52 CURVE SMOOTH",
"121 -1 OFFCURVE",
"165 38 OFFCURVE",
"293 38 CURVE SMOOTH",
"428 38 OFFCURVE",
"475 9 OFFCURVE",
"475 -52 CURVE SMOOTH",
"475 -120 OFFCURVE",
"400 -146 OFFCURVE",
"289 -146 CURVE SMOOTH"
);
},
{
closed = 1;
nodes = (
"412 184 OFFCURVE",
"500 235 OFFCURVE",
"500 376 CURVE SMOOTH",
"500 494 OFFCURVE",
"415 560 OFFCURVE",
"298 560 CURVE SMOOTH",
"141 560 OFFCURVE",
"72 488 OFFCURVE",
"72 364 CURVE SMOOTH",
"72 261 OFFCURVE",
"156 184 OFFCURVE",
"279 184 CURVE SMOOTH"
);
},
{
closed = 1;
nodes = (
"193 240 OFFCURVE",
"142 282 OFFCURVE",
"142 372 CURVE SMOOTH",
"142 462 OFFCURVE",
"184 506 OFFCURVE",
"285 506 CURVE SMOOTH",
"389 506 OFFCURVE",
"429 463 OFFCURVE",
"429 372 CURVE SMOOTH",
"429 282 OFFCURVE",
"393 240 OFFCURVE",
"285 240 CURVE SMOOTH"
);
},
{
closed = 1;
nodes = (
"467 510 OFFCURVE",
"513 515 OFFCURVE",
"563 515 CURVE",
"571 563 OFFCURVE",
"558 579 OFFCURVE",
"530 579 CURVE SMOOTH",
"488 579 OFFCURVE",
"440 553 OFFCURVE",
"406 516 CURVE",
"445 481 LINE"
);
}
);
width = 585;
}
);
note = g;
unicode = 0067;
},
{
glyphname = h;
lastChange = "2018-02-18 14:34:41 +0000";
layers = (
{
anchors = (
{
name = bottom;
position = "{315, 0}";
},
{
name = center;
position = "{315, 275}";
},
{
name = top;
position = "{125, 710}";
}
);
hints = (
{
horizontal = 1;
origin = "{1, 3}";
target = up;
type = BottomGhost;
},
{
horizontal = 1;
origin = "{0, 11}";
target = "{0, 4}";
},
{
origin = "{1, 3}";
target = "{1, 0}";
},
{
origin = "{0, 15}";
target = "{0, 0}";
}
);
layerId = "5A4BD32C-A1D1-4EB1-A794-47BD06E3B809";
paths = (
{
closed = 1;
nodes = (
"539 0 LINE",
"539 376 LINE SMOOTH",
"539 487 OFFCURVE",
"469 560 OFFCURVE",
"353 560 CURVE SMOOTH",
"257 560 OFFCURVE",
"186 517 OFFCURVE",
"144 483 CURVE",
"144 415 LINE",
"193 463 OFFCURVE",
"273 504 OFFCURVE",
"347 504 CURVE SMOOTH",
"429 504 OFFCURVE",
"471 454 OFFCURVE",
"471 369 CURVE SMOOTH",
"471 0 LINE"
);
},
{
closed = 1;
nodes = (
"159 0 LINE",
"159 791 LINE",
"91 791 LINE",
"91 0 LINE"
);
}
);
width = 630;
}
);
note = h;
unicode = 0068;
},
{
glyphname = k;
lastChange = "2018-02-18 14:34:41 +0000";
layers = (
{
hints = (
{
horizontal = 1;
place = "{-0.75, 15.75}";
},
{
origin = "{1, 2}";
target = "{1, 3}";
}
);
layerId = "5A4BD32C-A1D1-4EB1-A794-47BD06E3B809";
paths = (
{
closed = 1;
nodes = (
"205 265 LINE",
"256 265 OFFCURVE",
"290 251 OFFCURVE",
"309 220 CURVE SMOOTH",
"437 15 LINE SMOOTH",
"449 -4 OFFCURVE",
"470 -8 OFFCURVE",
"521 15 CURVE",
"361 259 LINE SMOOTH",
"335 299 OFFCURVE",
"290 316 OFFCURVE",
"239 316 CURVE"
);
},
{
closed = 1;
nodes = (
"159 791 LINE",
"91 791 LINE",
"91 0 LINE",
"159 0 LINE"
);
},
{
closed = 1;
nodes = (
"145 261 LINE",
"205 265 LINE SMOOTH",
"249 268 OFFCURVE",
"285 293 OFFCURVE",
"310 324 CURVE SMOOTH",
"495 549 LINE",
"411 549 LINE",
"261 357 LINE SMOOTH",
"245 336 OFFCURVE",
"227 326 OFFCURVE",
"198 325 CURVE SMOOTH",
"145 323 LINE"
);
}
);
width = 547;
}
);
note = k;
unicode = 006B;
},
{
glyphname = l;
lastChange = "2018-02-18 14:34:41 +0000";
layers = (
{
anchors = (
{
name = bottom;
position = "{134, 0}";
},
{
name = center;
position = "{134, 275}";
},
{
name = top;
position = "{134, 750}";
},
{
name = topright;
position = "{248, 550}";
}
);
hints = (
{
horizontal = 1;
origin = "{0, 0}";
target = up;
type = BottomGhost;
},
{
origin = "{0, 0}";
target = "{0, 1}";
}
);
layerId = "5A4BD32C-A1D1-4EB1-A794-47BD06E3B809";
paths = (
{
closed = 1;
nodes = (
"100 0 LINE",
"168 0 LINE",
"168 791 LINE",
"100 791 LINE"
);
}
);
width = 268;
}
);
note = l;
unicode = 006C;
},
{
glyphname = m;
lastChange = "2018-02-18 14:34:41 +0000";
layers = (
{
anchors = (
{
name = bottom;
position = "{456, 0}";
},
{
name = top;
position = "{456, 550}";
}
);
hints = (
{
horizontal = 1;
origin = "{1, 11}";
target = up;
type = BottomGhost;
},
{
horizontal = 1;
origin = "{2, 11}";
target = "{2, 4}";
},
{
origin = "{1, 11}";
target = "{1, 0}";
},
{
origin = "{2, 15}";
target = "{2, 0}";
},
{
origin = "{0, 15}";
target = "{0, 0}";
}
);
layerId = "5A4BD32C-A1D1-4EB1-A794-47BD06E3B809";
paths = (
{
closed = 1;
nodes = (
"821 0 LINE",
"821 395 LINE SMOOTH",
"821 497 OFFCURVE",
"753 560 OFFCURVE",
"661 560 CURVE SMOOTH",
"569 560 OFFCURVE",
"512 525 OFFCURVE",
"457 465 CURVE",
"471 407 LINE",
"522 471 OFFCURVE",
"582 506 OFFCURVE",
"647 506 CURVE SMOOTH",
"720 506 OFFCURVE",
"752 466 OFFCURVE",
"752 392 CURVE SMOOTH",
"752 0 LINE"
);
},
{
closed = 1;
nodes = (
"160 0 LINE",
"160 491 LINE SMOOTH",
"160 533 OFFCURVE",
"148 549 OFFCURVE",
"131 549 CURVE SMOOTH",
"119 549 OFFCURVE",
"99 543 OFFCURVE",
"80 534 CURVE",
"92 503 OFFCURVE",
"92 398 OFFCURVE",
"92 363 CURVE SMOOTH",
"92 0 LINE"
);
},
{
closed = 1;
nodes = (
"491 0 LINE",
"491 404 LINE SMOOTH",
"491 503 OFFCURVE",
"413 560 OFFCURVE",
"331 560 CURVE SMOOTH",
"244 560 OFFCURVE",
"190 527 OFFCURVE",
"137 468 CURVE",
"142 406 LINE",
"192 465 OFFCURVE",
"245 506 OFFCURVE",
"319 506 CURVE SMOOTH",
"382 506 OFFCURVE",
"423 465 OFFCURVE",
"423 402 CURVE SMOOTH",
"423 0 LINE"
);
}
);
width = 912;
}
);
note = m;
unicode = 006D;
},
{
glyphname = n;
lastChange = "2018-02-18 14:34:41 +0000";
layers = (
{
anchors = (
{
name = bottom;
position = "{305, 0}";
},
{
name = top;
position = "{305, 550}";
}
);
hints = (
{
horizontal = 1;
origin = "{1, 11}";
target = up;
type = BottomGhost;
},
{
horizontal = 1;
origin = "{0, 16}";
target = "{0, 9}";
},
{
horizontal = 1;
origin = "{0, 23}";
target = up;
type = BottomGhost;
},
{
origin = "{1, 11}";
target = "{1, 0}";
},
{
origin = "{0, 20}";
target = "{0, 5}";
}
);
layerId = "5A4BD32C-A1D1-4EB1-A794-47BD06E3B809";
paths = (
{
closed = 1;
nodes = (
"495 -5 OFFCURVE",
"514 0 OFFCURVE",
"529 7 CURVE",
"521 31 OFFCURVE",
"520 52 OFFCURVE",
"520 128 CURVE SMOOTH",
"520 372 LINE SMOOTH",
"520 499 OFFCURVE",
"464 560 OFFCURVE",
"349 560 CURVE SMOOTH",
"257 560 OFFCURVE",
"193 520 OFFCURVE",
"139 470 CURVE",
"139 398 LINE",
"202 465 OFFCURVE",
"269 506 OFFCURVE",
"342 506 CURVE SMOOTH",
"419 506 OFFCURVE",
"452 466 OFFCURVE",
"452 373 CURVE SMOOTH",
"452 102 LINE SMOOTH",
"452 18 OFFCURVE",
"457 -5 OFFCURVE",
"477 -5 CURVE SMOOTH"
);
},
{
closed = 1;
nodes = (
"158 0 LINE",
"158 491 LINE SMOOTH",
"158 533 OFFCURVE",
"146 549 OFFCURVE",
"129 549 CURVE SMOOTH",
"117 549 OFFCURVE",
"97 543 OFFCURVE",
"78 534 CURVE",
"90 503 OFFCURVE",
"90 398 OFFCURVE",
"90 363 CURVE SMOOTH",
"90 0 LINE"
);
}
);
width = 610;
}
);
note = n;
unicode = 006E;
},
{
glyphname = o;
lastChange = "2018-02-18 14:34:41 +0000";
layers = (
{
anchors = (
{
name = bottom;
position = "{274, 0}";
},
{
name = center;
position = "{274, 275}";
},
{
name = ogonek;
position = "{359, 10}";
},
{
name = top;
position = "{274, 550}";
},
{
name = topright;
position = "{413, 474}";
}
);
hints = (
{
horizontal = 1;
origin = "{0, 11}";
target = "{1, 11}";
},
{
horizontal = 1;
origin = "{1, 5}";
target = "{0, 5}";
},
{
origin = "{0, 8}";
target = "{1, 2}";
},
{
origin = "{1, 8}";
target = "{0, 2}";
}
);
layerId = "5A4BD32C-A1D1-4EB1-A794-47BD06E3B809";
paths = (
{
closed = 1;
nodes = (
"442 -12 OFFCURVE",
"508 101 OFFCURVE",
"508 275 CURVE SMOOTH",
"508 449 OFFCURVE",
"442 560 OFFCURVE",
"274 560 CURVE SMOOTH",
"106 560 OFFCURVE",
"40 449 OFFCURVE",
"40 275 CURVE SMOOTH",
"40 101 OFFCURVE",
"106 -12 OFFCURVE",
"274 -12 CURVE SMOOTH"
);
},
{
closed = 1;
nodes = (
"151 44 OFFCURVE",
"110 130 OFFCURVE",
"110 275 CURVE SMOOTH",
"110 419 OFFCURVE",
"151 504 OFFCURVE",
"274 504 CURVE SMOOTH",
"396 504 OFFCURVE",
"438 419 OFFCURVE",
"438 275 CURVE SMOOTH",
"438 130 OFFCURVE",
"396 44 OFFCURVE",
"274 44 CURVE SMOOTH"
);
}
);
width = 548;
}
);
note = o;
unicode = 006F;
},
{
glyphname = p;
lastChange = "2018-02-18 14:34:41 +0000";
layers = (
{
hints = (
{
horizontal = 1;
origin = "{0, 25}";
target = "{0, 18}";
},
{
horizontal = 1;
origin = "{0, 12}";
target = "{0, 5}";
},
{
origin = "{1, 11}";
target = "{1, 0}";
},
{
origin = "{0, 15}";
target = "{0, 2}";
}
);
layerId = "5A4BD32C-A1D1-4EB1-A794-47BD06E3B809";
paths = (
{
closed = 1;
nodes = (
"453 -12 OFFCURVE",
"558 90 OFFCURVE",
"558 275 CURVE SMOOTH",
"558 479 OFFCURVE",
"460 560 OFFCURVE",
"328 560 CURVE SMOOTH",
"252 560 OFFCURVE",
"180 525 OFFCURVE",
"134 462 CURVE",
"136 393 LINE",
"176 450 OFFCURVE",
"241 504 OFFCURVE",
"328 504 CURVE SMOOTH",
"433 504 OFFCURVE",
"486 428 OFFCURVE",
"486 275 CURVE SMOOTH",
"486 122 OFFCURVE",
"415 44 OFFCURVE",
"305 44 CURVE SMOOTH",
"238 44 OFFCURVE",
"169 62 OFFCURVE",
"129 94 CURVE",
"129 32 LINE",
"160 10 OFFCURVE",
"225 -12 OFFCURVE",
"305 -12 CURVE SMOOTH"
);
},
{
closed = 1;
nodes = (
"160 -220 LINE",
"160 491 LINE SMOOTH",
"160 533 OFFCURVE",
"148 549 OFFCURVE",
"131 549 CURVE SMOOTH",
"119 549 OFFCURVE",
"99 543 OFFCURVE",
"80 534 CURVE",
"92 503 OFFCURVE",
"92 398 OFFCURVE",
"92 363 CURVE SMOOTH",
"92 -220 LINE"
);
}
);
width = 598;
}
);
note = p;
unicode = 0070;
},
{
glyphname = q;
lastChange = "2018-02-18 14:34:41 +0000";
layers = (
{
hints = (
{
horizontal = 1;
origin = "{1, 9}";
target = "{1, 16}";
},
{
horizontal = 1;
origin = "{1, 22}";
target = "{1, 3}";
},
{
origin = "{1, 6}";
target = "{1, 19}";
},
{
origin = "{0, 1}";
target = "{0, 2}";
}
);
layerId = "5A4BD32C-A1D1-4EB1-A794-47BD06E3B809";
paths = (
{
closed = 1;
nodes = (
"439 425 CURVE SMOOTH",
"439 -220 LINE",
"507 -220 LINE",
"507 357 LINE SMOOTH",
"507 406 OFFCURVE",
"514 503 OFFCURVE",
"526 534 CURVE",
"502 546 OFFCURVE",
"499 549 OFFCURVE",
"475 549 CURVE SMOOTH",
"453 549 OFFCURVE",
"439 508 OFFCURVE"
);
},
{
closed = 1;
nodes = (
"467 478 LINE",
"409 537 OFFCURVE",
"362 560 OFFCURVE",
"276 560 CURVE SMOOTH",
"144 560 OFFCURVE",
"40 470 OFFCURVE",
"40 277 CURVE SMOOTH",
"40 88 OFFCURVE",
"135 -12 OFFCURVE",
"275 -12 CURVE SMOOTH",
"358 -12 OFFCURVE",
"392 2 OFFCURVE",
"457 40 CURVE",
"457 103 LINE",
"411 60 OFFCURVE",
"363 40 OFFCURVE",
"292 40 CURVE SMOOTH",
"168 40 OFFCURVE",
"111 120 OFFCURVE",
"111 277 CURVE SMOOTH",
"111 416 OFFCURVE",
"165 507 OFFCURVE",
"281 507 CURVE SMOOTH",
"354 507 OFFCURVE",
"413 473 OFFCURVE",
"458 404 CURVE"
);
}
);
width = 608;
}
);
note = q;
unicode = 0071;
},
{
glyphname = r;
lastChange = "2018-02-18 14:34:41 +0000";
layers = (
{
anchors = (
{
name = bottom;
position = "{119, 0}";
},
{
name = top;
position = "{200, 550}";
}
);
hints = (
{
horizontal = 1;
origin = "{0, 20}";
target = up;
type = BottomGhost;
},
{
horizontal = 1;
origin = "{0, 4}";
target = "{0, 13}";
},
{
origin = "{0, 20}";
target = "{0, 0}";
}
);
layerId = "5A4BD32C-A1D1-4EB1-A794-47BD06E3B809";
paths = (
{
closed = 1;
nodes = (
"153 0 LINE",
"153 303 LINE SMOOTH",
"153 442 OFFCURVE",
"231 495 OFFCURVE",
"301 495 CURVE SMOOTH",
"330 495 OFFCURVE",
"354 489 OFFCURVE",
"367 482 CURVE",
"380 497 OFFCURVE",
"383 524 OFFCURVE",
"364 542 CURVE SMOOTH",
"354 552 OFFCURVE",
"332 557 OFFCURVE",
"306 557 CURVE SMOOTH",
"223 557 OFFCURVE",
"142 475 OFFCURVE",
"134 385 CURVE",
"153 383 LINE",
"153 550 LINE",
"85 550 LINE",
"85 0 LINE"
);
}
);
width = 400;
}
);
note = r;
unicode = 0072;
},
{
glyphname = s;
lastChange = "2018-02-18 14:34:41 +0000";
layers = (
{
anchors = (
{
name = bottom;
position = "{243, 0}";
},
{
name = top;
position = "{243, 550}";
}
);
hints = (
{
horizontal = 1;
origin = "{0, 3}";
target = "{0, 30}";
},
{
horizontal = 1;
place = "{256.29, 56.54}";
},
{
horizontal = 1;
place = "{437.35, 24.65}";
},
{
horizontal = 1;
origin = "{0, 12}";
target = "{0, 21}";
},
{
origin = "{0, 24}";
target = "{0, 9}";
},
{
origin = "{0, 27}";
target = "{0, 6}";
}
);
layerId = "5A4BD32C-A1D1-4EB1-A794-47BD06E3B809";
paths = (
{
closed = 1;
nodes = (
"47 74 CURVE SMOOTH",
"77 30 OFFCURVE",
"140 -12 OFFCURVE",
"245 -12 CURVE SMOOTH",
"360 -12 OFFCURVE",
"445 48 OFFCURVE",
"445 151 CURVE SMOOTH",
"445 360 OFFCURVE",
"121 269 OFFCURVE",
"121 408 CURVE SMOOTH",
"121 477 OFFCURVE",
"168 506 OFFCURVE",
"232 506 CURVE SMOOTH",
"293 506 OFFCURVE",
"333 487 OFFCURVE",
"364 451 CURVE SMOOTH",
"382 430 OFFCURVE",
"402 432 OFFCURVE",
"430 462 CURVE",
"390 527 OFFCURVE",
"317 560 OFFCURVE",
"235 560 CURVE SMOOTH",
"153 560 OFFCURVE",
"53 513 OFFCURVE",
"53 405 CURVE SMOOTH",
"53 212 OFFCURVE",
"377 298 OFFCURVE",
"377 151 CURVE SMOOTH",
"377 89 OFFCURVE",
"335 44 OFFCURVE",
"249 44 CURVE SMOOTH",
"169 44 OFFCURVE",
"117 72 OFFCURVE",
"70 134 CURVE",
"46 127 OFFCURVE",
"30 99 OFFCURVE"
);
}
);
width = 485;
}
);
note = s;
unicode = 0073;
},
{
glyphname = t;
lastChange = "2018-02-18 14:34:41 +0000";
layers = (
{
anchors = (
{
name = bottom;
position = "{249, 0}";
},
{
name = center;
position = "{190, 278}";
},
{
name = top;
position = "{150, 660}";
},
{
name = topright;
position = "{328, 630}";
}
);
hints = (
{
horizontal = 1;
origin = "{0, 17}";
target = "{0, 8}";
},
{
horizontal = 1;
origin = "{1, 3}";
target = "{1, 2}";
},
{
horizontal = 1;
origin = "{0, 13}";
target = down;
type = TopGhost;
},
{
origin = "{0, 14}";
target = "{0, 11}";
},
{
place = "{342, 1581}";
}
);
layerId = "5A4BD32C-A1D1-4EB1-A794-47BD06E3B809";
paths = (
{
closed = 1;
nodes = (
"291 -12 OFFCURVE",
"322 -7 OFFCURVE",
"342 4 CURVE SMOOTH",
"369 19 OFFCURVE",
"357 55 OFFCURVE",
"342 65 CURVE",
"320 56 OFFCURVE",
"288 48 OFFCURVE",
"256 48 CURVE SMOOTH",
"213 48 OFFCURVE",
"184 71 OFFCURVE",
"184 132 CURVE SMOOTH",
"184 700 LINE",
"116 700 LINE",
"116 119 LINE SMOOTH",
"116 37 OFFCURVE",
"174 -12 OFFCURVE",
"259 -12 CURVE SMOOTH"
);
},
{
closed = 1;
nodes = (
"328 496 LINE",
"328 550 LINE",
"12 550 LINE",
"12 496 LINE"
);
}
);
width = 374;
}
);
note = t;
unicode = 0074;
},
{
glyphname = u;
lastChange = "2018-02-18 14:34:41 +0000";
layers = (
{
anchors = (
{
name = bottom;
position = "{305, 0}";
},
{
name = ogonek;
position = "{558, 10}";
},
{
name = top;
position = "{305, 550}";
},
{
name = topright;
position = "{518, 523}";
}
);
hints = (
{
horizontal = 1;
origin = "{0, 15}";
target = "{0, 6}";
},
{
origin = "{0, 12}";
target = "{0, 9}";
},
{
origin = "{1, 8}";
target = "{1, 5}";
}
);
layerId = "5A4BD32C-A1D1-4EB1-A794-47BD06E3B809";
paths = (
{
closed = 1;
nodes = (
"348 -12 OFFCURVE",
"438 33 OFFCURVE",
"467 106 CURVE",
"461 166 LINE",
"421 87 OFFCURVE",
"348 42 OFFCURVE",
"272 42 CURVE SMOOTH",
"190 42 OFFCURVE",
"159 87 OFFCURVE",
"159 180 CURVE SMOOTH",
"159 550 LINE",
"91 550 LINE",
"91 173 LINE SMOOTH",
"91 51 OFFCURVE",
"145 -12 OFFCURVE",
"260 -12 CURVE SMOOTH"
);
},
{
closed = 1;
nodes = (
"505 -5 OFFCURVE",
"517 -1 OFFCURVE",
"533 7 CURVE",
"527 25 OFFCURVE",
"518 52 OFFCURVE",
"518 113 CURVE SMOOTH",
"518 550 LINE",
"449 550 LINE",
"449 104 LINE SMOOTH",
"449 28 OFFCURVE",
"454 -5 OFFCURVE",
"490 -5 CURVE SMOOTH"
);
}
);
width = 609;
}
);
note = u;
unicode = 0075;
},
{
glyphname = v;
lastChange = "2018-02-18 14:34:41 +0000";
layers = (
{
layerId = "5A4BD32C-A1D1-4EB1-A794-47BD06E3B809";
paths = (
{
closed = 1;
nodes = (
"275 0 LINE",
"359 246 OFFCURVE",
"462 507 OFFCURVE",
"462 529 CURVE SMOOTH",
"462 542 OFFCURVE",
"453 553 OFFCURVE",
"436 553 CURVE SMOOTH",
"423 553 OFFCURVE",
"411 550 OFFCURVE",
"401 547 CURVE",
"347 386 OFFCURVE",
"286 217 OFFCURVE",
"227 56 CURVE",
"258 56 LINE",
"93 526 LINE SMOOTH",
"86 546 OFFCURVE",
"74 555 OFFCURVE",
"52 555 CURVE SMOOTH",
"36 555 OFFCURVE",
"24 551 OFFCURVE",
"16 547 CURVE",
"210 0 LINE"
);
}
);
width = 485;
}
);
note = v;
unicode = 0076;
},
{
glyphname = w;
lastChange = "2018-02-18 14:34:41 +0000";
layers = (
{
anchors = (
{
name = bottom;
position = "{380, 0}";
},
{
name = top;
position = "{380, 550}";
}
);
layerId = "5A4BD32C-A1D1-4EB1-A794-47BD06E3B809";
paths = (
{
closed = 1;
nodes = (
"256 0 LINE",
"390 484 LINE",
"366 484 LINE",
"498 0 LINE",
"560 0 LINE",
"639 241 OFFCURVE",
"712 478 OFFCURVE",
"712 516 CURVE SMOOTH",
"712 544 OFFCURVE",
"696 556 OFFCURVE",
"677 556 CURVE SMOOTH",
"664 556 OFFCURVE",
"654 553 OFFCURVE",
"643 547 CURVE",
"622 427 OFFCURVE",
"562 207 OFFCURVE",
"521 65 CURVE",
"543 65 LINE",
"412 550 LINE",
"346 550 LINE",
"213 65 LINE",
"238 65 LINE",
"100 527 LINE SMOOTH",
"94 547 OFFCURVE",
"82 555 OFFCURVE",
"60 555 CURVE SMOOTH",
"44 555 OFFCURVE",
"32 551 OFFCURVE",
"24 547 CURVE",
"192 0 LINE"
);
}
);
width = 760;
}
);
note = w;
unicode = 0077;
},
{
glyphname = x;
lastChange = "2018-02-18 14:34:41 +0000";
layers = (
{
layerId = "5A4BD32C-A1D1-4EB1-A794-47BD06E3B809";
paths = (
{
closed = 1;
nodes = (
"468 0 LINE",
"106 550 LINE",
"28 550 LINE",
"390 0 LINE"
);
},
{
closed = 1;
nodes = (
"94 0 LINE",
"456 548 LINE",
"378 550 LINE",
"16 0 LINE"
);
}
);
width = 484;
}
);
note = x;
unicode = 0078;
},
{
glyphname = y;
lastChange = "2018-02-18 14:34:41 +0000";
layers = (
{
anchors = (
{
name = bottom;
position = "{348, 0}";
},
{
name = top;
position = "{243, 550}";
}
);
layerId = "5A4BD32C-A1D1-4EB1-A794-47BD06E3B809";
paths = (
{
closed = 1;
nodes = (
"167 -194 OFFCURVE",
"222 -151 OFFCURVE",
"261 -42 CURVE SMOOTH",
"474 550 LINE",
"402 550 LINE",
"230 65 LINE",
"260 65 LINE",
"86 550 LINE",
"14 550 LINE",
"210 9 LINE",
"177 -108 OFFCURVE",
"133 -137 OFFCURVE",
"89 -137 CURVE SMOOTH",
"61 -137 OFFCURVE",
"31 -129 OFFCURVE",
"18 -120 CURVE",
"7 -128 OFFCURVE",
"1 -139 OFFCURVE",
"1 -152 CURVE SMOOTH",
"1 -179 OFFCURVE",
"36 -194 OFFCURVE",
"83 -194 CURVE SMOOTH"
);
}
);
width = 485;
}
);
note = y;
unicode = 0079;
},
{
glyphname = z;
lastChange = "2018-02-18 14:34:41 +0000";
layers = (
{
anchors = (
{
name = bottom;
position = "{250, 0}";
},
{
name = top;
position = "{250, 550}";
}
);
hints = (
{
horizontal = 1;
origin = "{0, 11}";
target = "{0, 3}";
},
{
horizontal = 1;
origin = "{0, 7}";
target = "{0, 6}";
},
{
origin = "{0, 11}";
target = "{0, 0}";
}
);
layerId = "5A4BD32C-A1D1-4EB1-A794-47BD06E3B809";
paths = (
{
closed = 1;
nodes = (
"470 0 LINE",
"470 58 LINE",
"77 58 LINE",
"95 22 LINE",
"462 503 LINE",
"462 550 LINE",
"56 550 LINE",
"56 492 LINE",
"416 492 LINE",
"398 528 LINE",
"30 48 LINE",
"30 0 LINE"
);
}
);
width = 500;
}
);
note = z;
unicode = 007A;
},
{
glyphname = AE;
lastChange = "2018-02-18 14:34:41 +0000";
layers = (
{
anchors = (
{
name = bottom;
position = "{465, 0}";
},
{
name = top;
position = "{465, 700}";
}
);
hints = (
{
horizontal = 1;
origin = "{2, 14}";
target = "{2, 5}";
},
{
horizontal = 1;
origin = "{0, 2}";
target = "{0, 1}";
},
{
horizontal = 1;
origin = "{1, 3}";
target = "{1, 2}";
},
{
horizontal = 1;
origin = "{2, 11}";
target = "{2, 18}";
},
{
origin = "{2, 0}";
target = "{2, 6}";
}
);
layerId = "5A4BD32C-A1D1-4EB1-A794-47BD06E3B809";
paths = (
{
closed = 1;
nodes = (
"486 266 LINE",
"145 266 LINE",
"116 206 LINE",
"486 206 LINE"
);
},
{
closed = 1;
nodes = (
"832 343 LINE",
"832 403 LINE",
"520 403 LINE",
"520 343 LINE"
);
},
{
closed = 1;
nodes = (
"470 0 LINE",
"818 0 LINE SMOOTH",
"860 0 OFFCURVE",
"870 12 OFFCURVE",
"870 60 CURVE",
"490 60 LINE",
"535 15 LINE",
"535 664 LINE",
"514 640 LINE",
"875 640 LINE",
"875 700 LINE",
"425 700 LINE",
"206 507 OFFCURVE",
"64 243 OFFCURVE",
"15 0 CURVE",
"89 0 LINE",
"133 233 OFFCURVE",
"284 491 OFFCURVE",
"461 640 CURVE",
"500 640 LINE",
"470 657 LINE"
);
}
);
width = 930;
}
);
leftMetricsKey = A;
note = AE;
rightMetricsKey = E;
unicode = 00C6;
},
{
glyphname = Eth;
lastChange = "2018-02-18 14:34:41 +0000";
layers = (
{
components = (
{
name = D;
}
);
layerId = "5A4BD32C-A1D1-4EB1-A794-47BD06E3B809";
paths = (
{
closed = 1;
nodes = (
"346 327 LINE",
"346 384 LINE",
"1 384 LINE",
"1 327 LINE"
);
}
);
width = 672;
}
);
note = Eth;
unicode = 00D0;
},
{
glyphname = Dcroat;
lastChange = "2018-02-18 14:34:41 +0000";
layers = (
{
components = (
{
name = D;
}
);
layerId = "5A4BD32C-A1D1-4EB1-A794-47BD06E3B809";
paths = (
{
closed = 1;
nodes = (
"346 327 LINE",
"346 384 LINE",
"1 384 LINE",
"1 327 LINE"
);
}
);
width = 672;
}
);
note = Dcroat;
unicode = 0110;
},
{
glyphname = Eacute;
lastChange = "2018-02-18 14:34:41 +0000";
layers = (
{
background = {
paths = (
{
closed = 1;
nodes = (
"554 0 LINE",
"571 179 LINE",
"544 179 LINE",
"538 124 OFFCURVE",
"520 40 OFFCURVE",
"456 40 CURVE SMOOTH",
"201 40 LINE",
"201 659 LINE",
"441 659 LINE SMOOTH",
"516 659 OFFCURVE",
"525 567 OFFCURVE",
"528 527 CURVE",
"555 527 LINE",
"555 700 LINE",
"16 700 LINE",
"16 673 LINE",
"44 673 LINE SMOOTH",
"83 673 OFFCURVE",
"103 662 OFFCURVE",
"103 637 CURVE SMOOTH",
"103 62 LINE SMOOTH",
"103 37 OFFCURVE",
"83 26 OFFCURVE",
"44 26 CURVE SMOOTH",
"16 26 LINE",
"16 0 LINE"
);
},
{
closed = 1;
nodes = (
"455 251 LINE",
"455 485 LINE",
"431 485 LINE",
"427 436 OFFCURVE",
"424 388 OFFCURVE",
"379 388 CURVE SMOOTH",
"162 388 LINE",
"162 348 LINE",
"379 348 LINE SMOOTH",
"424 348 OFFCURVE",
"427 300 OFFCURVE",
"431 251 CURVE"
);
},
{
closed = 1;
nodes = (
"398 865 LINE SMOOTH",
"420 877 OFFCURVE",
"432 890 OFFCURVE",
"432 907 CURVE SMOOTH",
"432 922 OFFCURVE",
"420 937 OFFCURVE",
"398 937 CURVE SMOOTH",
"377 937 OFFCURVE",
"362 921 OFFCURVE",
"354 914 CURVE SMOOTH",
"239 807 LINE",
"256 782 LINE"
);
}
);
};
components = (
{
name = E;
},
{
name = acutecomb;
transform = "{1, 0, 0, 1, 153, 120}";
}
);
layerId = "5A4BD32C-A1D1-4EB1-A794-47BD06E3B809";
width = 560;
}
);
note = Eacute;
unicode = 00C9;
},
{
glyphname = Ebreve;
lastChange = "2018-02-18 14:34:41 +0000";
layers = (
{
background = {
paths = (
{
closed = 1;
nodes = (
"554 0 LINE",
"571 179 LINE",
"544 179 LINE",
"538 124 OFFCURVE",
"520 40 OFFCURVE",
"456 40 CURVE SMOOTH",
"201 40 LINE",
"201 659 LINE",
"441 659 LINE SMOOTH",
"516 659 OFFCURVE",
"525 567 OFFCURVE",
"528 527 CURVE",
"555 527 LINE",
"555 700 LINE",
"16 700 LINE",
"16 673 LINE",
"44 673 LINE SMOOTH",
"83 673 OFFCURVE",
"103 662 OFFCURVE",
"103 637 CURVE SMOOTH",
"103 62 LINE SMOOTH",
"103 37 OFFCURVE",
"83 26 OFFCURVE",
"44 26 CURVE SMOOTH",
"16 26 LINE",
"16 0 LINE"
);
},
{
closed = 1;
nodes = (
"455 251 LINE",
"455 485 LINE",
"431 485 LINE",
"427 436 OFFCURVE",
"424 388 OFFCURVE",
"379 388 CURVE SMOOTH",
"162 388 LINE",
"162 348 LINE",
"379 348 LINE SMOOTH",
"424 348 OFFCURVE",
"427 300 OFFCURVE",
"431 251 CURVE"
);
},
{
closed = 1;
nodes = (
"432 776 OFFCURVE",
"474 832 OFFCURVE",
"478 907 CURVE",
"445 907 LINE",
"439 848 OFFCURVE",
"397 822 OFFCURVE",
"333 822 CURVE SMOOTH",
"269 822 OFFCURVE",
"226 848 OFFCURVE",
"219 907 CURVE",
"186 907 LINE",
"190 829 OFFCURVE",
"232 776 OFFCURVE",
"333 776 CURVE SMOOTH"
);
}
);
};
components = (
{
name = E;
},
{
name = brevecomb;
transform = "{1, 0, 0, 1, 280, 120}";
}
);
layerId = "5A4BD32C-A1D1-4EB1-A794-47BD06E3B809";
width = 560;
}
);
note = Ebreve;
unicode = 0114;
},
{
glyphname = Ecaron;
lastChange = "2018-02-18 14:34:41 +0000";
layers = (
{
background = {
paths = (
{
closed = 1;
nodes = (
"554 0 LINE",
"571 179 LINE",
"544 179 LINE",
"538 124 OFFCURVE",
"520 40 OFFCURVE",
"456 40 CURVE SMOOTH",
"201 40 LINE",
"201 659 LINE",
"441 659 LINE SMOOTH",
"516 659 OFFCURVE",
"525 567 OFFCURVE",
"528 527 CURVE",
"555 527 LINE",
"555 700 LINE",
"16 700 LINE",
"16 673 LINE",
"44 673 LINE SMOOTH",
"83 673 OFFCURVE",
"103 662 OFFCURVE",
"103 637 CURVE SMOOTH",
"103 62 LINE SMOOTH",
"103 37 OFFCURVE",
"83 26 OFFCURVE",
"44 26 CURVE SMOOTH",
"16 26 LINE",
"16 0 LINE"
);
},
{
closed = 1;
nodes = (
"455 251 LINE",
"455 485 LINE",
"431 485 LINE",
"427 436 OFFCURVE",
"424 388 OFFCURVE",
"379 388 CURVE SMOOTH",
"162 388 LINE",
"162 348 LINE",
"379 348 LINE SMOOTH",
"424 348 OFFCURVE",
"427 300 OFFCURVE",
"431 251 CURVE"
);
},
{
closed = 1;
nodes = (
"357 782 LINE",
"481 911 LINE",
"462 932 LINE",
"354 847 LINE",
"346 840 OFFCURVE",
"337 836 OFFCURVE",
"331 836 CURVE SMOOTH",
"325 836 OFFCURVE",
"317 840 OFFCURVE",
"307 847 CURVE",
"199 932 LINE",
"180 911 LINE",
"304 782 LINE"
);
}
);
};
components = (
{
name = E;
},
{
name = caroncomb;
transform = "{1, 0, 0, 1, 282, 120}";
}
);
layerId = "5A4BD32C-A1D1-4EB1-A794-47BD06E3B809";
width = 560;
}
);
note = Ecaron;
unicode = 011A;
},
{
glyphname = Ecircumflex;
lastChange = "2018-02-18 14:34:41 +0000";
layers = (
{
background = {
paths = (
{
closed = 1;
nodes = (
"554 0 LINE",
"571 179 LINE",
"544 179 LINE",
"538 124 OFFCURVE",
"520 40 OFFCURVE",
"456 40 CURVE SMOOTH",
"201 40 LINE",
"201 659 LINE",
"441 659 LINE SMOOTH",
"516 659 OFFCURVE",
"525 567 OFFCURVE",
"528 527 CURVE",
"555 527 LINE",
"555 700 LINE",
"16 700 LINE",
"16 673 LINE",
"44 673 LINE SMOOTH",
"83 673 OFFCURVE",
"103 662 OFFCURVE",
"103 637 CURVE SMOOTH",
"103 62 LINE SMOOTH",
"103 37 OFFCURVE",
"83 26 OFFCURVE",
"44 26 CURVE SMOOTH",
"16 26 LINE",
"16 0 LINE"
);
},
{
closed = 1;
nodes = (
"455 251 LINE",
"455 485 LINE",
"431 485 LINE",
"427 436 OFFCURVE",
"424 388 OFFCURVE",
"379 388 CURVE SMOOTH",
"162 388 LINE",
"162 348 LINE",
"379 348 LINE SMOOTH",
"424 348 OFFCURVE",
"427 300 OFFCURVE",
"431 251 CURVE"
);
},
{
closed = 1;
nodes = (
"304 868 LINE SMOOTH",
"312 874 OFFCURVE",
"322 879 OFFCURVE",
"328 879 CURVE SMOOTH",
"334 879 OFFCURVE",
"342 874 OFFCURVE",
"351 868 CURVE",
"459 782 LINE",
"478 803 LINE",
"354 932 LINE",
"301 932 LINE",
"177 803 LINE",
"196 782 LINE"
);
}
);
};
components = (
{
name = E;
},
{
name = circumflexcomb;
transform = "{1, 0, 0, 1, 281, 120}";
}
);
layerId = "5A4BD32C-A1D1-4EB1-A794-47BD06E3B809";
width = 560;
}
);
note = Ecircumflex;
unicode = 00CA;
},
{
glyphname = Ecircumflexacute;
lastChange = "2018-02-18 14:34:41 +0000";
layers = (
{
background = {
paths = (
{
closed = 1;
nodes = (
"554 0 LINE",
"571 179 LINE",
"544 179 LINE",
"538 124 OFFCURVE",
"520 40 OFFCURVE",
"456 40 CURVE SMOOTH",
"201 40 LINE",
"201 659 LINE",
"441 659 LINE SMOOTH",
"516 659 OFFCURVE",
"525 567 OFFCURVE",
"528 527 CURVE",
"555 527 LINE",
"555 700 LINE",
"16 700 LINE",
"16 673 LINE",
"44 673 LINE SMOOTH",
"83 673 OFFCURVE",
"103 662 OFFCURVE",
"103 637 CURVE SMOOTH",
"103 62 LINE SMOOTH",
"103 37 OFFCURVE",
"83 26 OFFCURVE",
"44 26 CURVE SMOOTH",
"16 26 LINE",
"16 0 LINE"
);
},
{
closed = 1;
nodes = (
"455 251 LINE",
"455 485 LINE",
"431 485 LINE",
"427 436 OFFCURVE",
"424 388 OFFCURVE",
"379 388 CURVE SMOOTH",
"162 388 LINE",
"162 348 LINE",
"379 348 LINE SMOOTH",
"424 348 OFFCURVE",
"427 300 OFFCURVE",
"431 251 CURVE"
);
},
{
closed = 1;
nodes = (
"290 862 LINE SMOOTH",
"300 870 OFFCURVE",
"310 878 OFFCURVE",
"318 878 CURVE SMOOTH",
"324 878 OFFCURVE",
"332 873 OFFCURVE",
"341 867 CURVE",
"447 781 LINE",
"466 803 LINE",
"344 932 LINE",
"293 932 LINE",
"171 803 LINE",
"189 781 LINE"
);
},
{
closed = 1;
nodes = (
"555 960 LINE SMOOTH",
"578 972 OFFCURVE",
"591 988 OFFCURVE",
"591 1003 CURVE SMOOTH",
"591 1017 OFFCURVE",
"580 1034 OFFCURVE",
"557 1034 CURVE SMOOTH",
"538 1034 OFFCURVE",
"521 1018 OFFCURVE",
"511 1008 CURVE SMOOTH",
"415 915 LINE",
"433 893 LINE"
);
}
);
};
components = (
{
name = E;
},
{
name = circumflexacute;
transform = "{1, 0, 0, 1, 275, 120}";
}
);
layerId = "5A4BD32C-A1D1-4EB1-A794-47BD06E3B809";
width = 560;
}
);
note = Ecircumflexacute;
unicode = 1EBE;
},
{
glyphname = Ecircumflexdotbelow;
lastChange = "2018-02-18 14:34:41 +0000";
layers = (
{
background = {
paths = (
{
closed = 1;
nodes = (
"554 0 LINE",
"571 179 LINE",
"544 179 LINE",
"538 124 OFFCURVE",
"520 40 OFFCURVE",
"456 40 CURVE SMOOTH",
"201 40 LINE",
"201 659 LINE",
"441 659 LINE SMOOTH",
"516 659 OFFCURVE",
"525 567 OFFCURVE",
"528 527 CURVE",
"555 527 LINE",
"555 700 LINE",
"16 700 LINE",
"16 673 LINE",
"44 673 LINE SMOOTH",
"83 673 OFFCURVE",
"103 662 OFFCURVE",
"103 637 CURVE SMOOTH",
"103 62 LINE SMOOTH",
"103 37 OFFCURVE",
"83 26 OFFCURVE",
"44 26 CURVE SMOOTH",
"16 26 LINE",
"16 0 LINE"
);
},
{
closed = 1;
nodes = (
"350 -159 OFFCURVE",
"368 -140 OFFCURVE",
"368 -112 CURVE SMOOTH",
"368 -84 OFFCURVE",
"350 -64 OFFCURVE",
"322 -64 CURVE SMOOTH",
"294 -64 OFFCURVE",
"275 -84 OFFCURVE",
"275 -112 CURVE SMOOTH",
"275 -140 OFFCURVE",
"294 -159 OFFCURVE",
"322 -159 CURVE SMOOTH"
);
},
{
closed = 1;
nodes = (
"455 251 LINE",
"455 485 LINE",
"431 485 LINE",
"427 436 OFFCURVE",
"424 388 OFFCURVE",
"379 388 CURVE SMOOTH",
"162 388 LINE",
"162 348 LINE",
"379 348 LINE SMOOTH",
"424 348 OFFCURVE",
"427 300 OFFCURVE",
"431 251 CURVE"
);
},
{
closed = 1;
nodes = (
"294 868 LINE SMOOTH",
"302 874 OFFCURVE",
"312 879 OFFCURVE",
"318 879 CURVE SMOOTH",
"324 879 OFFCURVE",
"332 874 OFFCURVE",
"341 868 CURVE",
"449 782 LINE",
"468 803 LINE",
"344 932 LINE",
"291 932 LINE",
"167 803 LINE",
"186 782 LINE"
);
}
);
};
components = (
{
name = E;
},
{
name = dotbelowcomb;
transform = "{1, 0, 0, 1, 168, 0}";
},
{
name = circumflexcomb;
transform = "{1, 0, 0, 1, 281, 120}";
}
);
layerId = "5A4BD32C-A1D1-4EB1-A794-47BD06E3B809";
width = 560;
}
);
note = Ecircumflexdotbelow;
unicode = 1EC6;
},
{
glyphname = Ecircumflexgrave;
lastChange = "2018-02-18 14:34:41 +0000";
layers = (
{
background = {
paths = (
{
closed = 1;
nodes = (
"554 0 LINE",
"571 179 LINE",
"544 179 LINE",
"538 124 OFFCURVE",
"520 40 OFFCURVE",
"456 40 CURVE SMOOTH",
"201 40 LINE",
"201 659 LINE",
"441 659 LINE SMOOTH",
"516 659 OFFCURVE",
"525 567 OFFCURVE",
"528 527 CURVE",
"555 527 LINE",
"555 700 LINE",
"16 700 LINE",
"16 673 LINE",
"44 673 LINE SMOOTH",
"83 673 OFFCURVE",
"103 662 OFFCURVE",
"103 637 CURVE SMOOTH",
"103 62 LINE SMOOTH",
"103 37 OFFCURVE",
"83 26 OFFCURVE",
"44 26 CURVE SMOOTH",
"16 26 LINE",
"16 0 LINE"
);
},
{
closed = 1;
nodes = (
"455 251 LINE",
"455 485 LINE",
"431 485 LINE",
"427 436 OFFCURVE",
"424 388 OFFCURVE",
"379 388 CURVE SMOOTH",
"162 388 LINE",
"162 348 LINE",
"379 348 LINE SMOOTH",
"424 348 OFFCURVE",
"427 300 OFFCURVE",
"431 251 CURVE"
);
},
{
closed = 1;
nodes = (
"227 915 LINE",
"132 1008 LINE SMOOTH",
"122 1018 OFFCURVE",
"105 1034 OFFCURVE",
"85 1034 CURVE SMOOTH",
"63 1034 OFFCURVE",
"52 1017 OFFCURVE",
"52 1003 CURVE SMOOTH",
"52 988 OFFCURVE",
"65 972 OFFCURVE",
"88 960 CURVE SMOOTH",
"210 893 LINE"
);
},
{
closed = 1;
nodes = (
"290 862 LINE SMOOTH",
"300 870 OFFCURVE",
"310 878 OFFCURVE",
"318 878 CURVE SMOOTH",
"324 878 OFFCURVE",
"332 873 OFFCURVE",
"341 867 CURVE",
"447 781 LINE",
"466 803 LINE",
"344 932 LINE",
"293 932 LINE",
"171 803 LINE",
"189 781 LINE"
);
}
);
};
components = (
{
name = E;
},
{
name = circumflexgrave;
transform = "{1, 0, 0, 1, 280, 120}";
}
);
layerId = "5A4BD32C-A1D1-4EB1-A794-47BD06E3B809";
width = 560;
}
);
note = Ecircumflexgrave;
unicode = 1EC0;
},
{
glyphname = Ecircumflexhookabove;
lastChange = "2018-02-18 14:34:41 +0000";
layers = (
{
background = {
paths = (
{
closed = 1;
nodes = (
"554 0 LINE",
"571 179 LINE",
"544 179 LINE",
"538 124 OFFCURVE",
"520 40 OFFCURVE",
"456 40 CURVE SMOOTH",
"201 40 LINE",
"201 659 LINE",
"441 659 LINE SMOOTH",
"516 659 OFFCURVE",
"525 567 OFFCURVE",
"528 527 CURVE",
"555 527 LINE",
"555 700 LINE",
"16 700 LINE",
"16 673 LINE",
"44 673 LINE SMOOTH",
"83 673 OFFCURVE",
"103 662 OFFCURVE",
"103 637 CURVE SMOOTH",
"103 62 LINE SMOOTH",
"103 37 OFFCURVE",
"83 26 OFFCURVE",
"44 26 CURVE SMOOTH",
"16 26 LINE",
"16 0 LINE"
);
},
{
closed = 1;
nodes = (
"455 251 LINE",
"455 485 LINE",
"431 485 LINE",
"427 436 OFFCURVE",
"424 388 OFFCURVE",
"379 388 CURVE SMOOTH",
"162 388 LINE",
"162 348 LINE",
"379 348 LINE SMOOTH",
"424 348 OFFCURVE",
"427 300 OFFCURVE",
"431 251 CURVE"
);
},
{
closed = 1;
nodes = (
"286 858 LINE",
"297 868 OFFCURVE",
"309 878 OFFCURVE",
"318 878 CURVE SMOOTH",
"324 878 OFFCURVE",
"332 873 OFFCURVE",
"341 867 CURVE",
"447 781 LINE",
"466 803 LINE",
"344 932 LINE",
"293 932 LINE",
"171 803 LINE",
"189 781 LINE"
);
},
{
closed = 1;
nodes = (
"493 898 LINE",
"474 905 OFFCURVE",
"464 912 OFFCURVE",
"464 926 CURVE SMOOTH",
"464 954 OFFCURVE",
"544 965 OFFCURVE",
"544 1010 CURVE SMOOTH",
"544 1047 OFFCURVE",
"502 1063 OFFCURVE",
"460 1063 CURVE SMOOTH",
"429 1063 OFFCURVE",
"384 1053 OFFCURVE",
"384 1022 CURVE SMOOTH",
"384 1010 OFFCURVE",
"395 1001 OFFCURVE",
"405 1001 CURVE SMOOTH",
"434 1001 OFFCURVE",
"421 1040 OFFCURVE",
"464 1040 CURVE SMOOTH",
"483 1040 OFFCURVE",
"494 1028 OFFCURVE",
"494 1013 CURVE SMOOTH",
"494 973 OFFCURVE",
"421 965 OFFCURVE",
"421 925 CURVE SMOOTH",
"421 901 OFFCURVE",
"437 880 OFFCURVE",
"484 880 CURVE"
);
}
);
};
components = (
{
name = E;
},
{
name = circumflexhookabove;
transform = "{1, 0, 0, 1, 280, 120}";
}
);
layerId = "5A4BD32C-A1D1-4EB1-A794-47BD06E3B809";
width = 560;
}
);
note = Ecircumflexhookabove;
unicode = 1EC2;
},
{
glyphname = Ecircumflextilde;
lastChange = "2018-02-18 14:34:41 +0000";
layers = (
{
background = {
paths = (
{
closed = 1;
nodes = (
"554 0 LINE",
"571 179 LINE",
"544 179 LINE",
"538 124 OFFCURVE",
"520 40 OFFCURVE",
"456 40 CURVE SMOOTH",
"201 40 LINE",
"201 659 LINE",
"441 659 LINE SMOOTH",
"516 659 OFFCURVE",
"525 567 OFFCURVE",
"528 527 CURVE",
"555 527 LINE",
"555 700 LINE",
"16 700 LINE",
"16 673 LINE",
"44 673 LINE SMOOTH",
"83 673 OFFCURVE",
"103 662 OFFCURVE",
"103 637 CURVE SMOOTH",
"103 62 LINE SMOOTH",
"103 37 OFFCURVE",
"83 26 OFFCURVE",
"44 26 CURVE SMOOTH",
"16 26 LINE",
"16 0 LINE"
);
},
{
closed = 1;
nodes = (
"455 251 LINE",
"455 485 LINE",
"431 485 LINE",
"427 436 OFFCURVE",
"424 388 OFFCURVE",
"379 388 CURVE SMOOTH",
"162 388 LINE",
"162 348 LINE",
"379 348 LINE SMOOTH",
"424 348 OFFCURVE",
"427 300 OFFCURVE",
"431 251 CURVE"
);
},
{
closed = 1;
nodes = (
"290 862 LINE SMOOTH",
"300 870 OFFCURVE",
"310 878 OFFCURVE",
"318 878 CURVE SMOOTH",
"324 878 OFFCURVE",
"332 873 OFFCURVE",
"341 867 CURVE",
"447 781 LINE",
"466 803 LINE",
"344 932 LINE",
"293 932 LINE",
"171 803 LINE",
"189 781 LINE"
);
},
{
closed = 1;
nodes = (
"193 997 OFFCURVE",
"211 1018 OFFCURVE",
"242 1018 CURVE SMOOTH",
"291 1018 OFFCURVE",
"338 964 OFFCURVE",
"387 964 CURVE SMOOTH",
"440 964 OFFCURVE",
"469 1012 OFFCURVE",
"481 1063 CURVE",
"460 1075 LINE",
"447 1035 OFFCURVE",
"431 1012 OFFCURVE",
"398 1012 CURVE SMOOTH",
"351 1012 OFFCURVE",
"302 1065 OFFCURVE",
"253 1065 CURVE SMOOTH",
"202 1065 OFFCURVE",
"170 1021 OFFCURVE",
"160 970 CURVE",
"180 958 LINE"
);
}
);
};
components = (
{
name = E;
},
{
name = circumflextilde;
transform = "{1, 0, 0, 1, 280, 120}";
}
);
layerId = "5A4BD32C-A1D1-4EB1-A794-47BD06E3B809";
width = 560;
}
);
note = Ecircumflextilde;
unicode = 1EC4;
},
{
glyphname = Edieresis;
lastChange = "2018-02-18 14:34:41 +0000";
layers = (
{
background = {
paths = (
{
closed = 1;
nodes = (
"554 0 LINE",
"571 179 LINE",
"544 179 LINE",
"538 124 OFFCURVE",
"520 40 OFFCURVE",
"456 40 CURVE SMOOTH",
"201 40 LINE",
"201 659 LINE",
"441 659 LINE SMOOTH",
"516 659 OFFCURVE",
"525 567 OFFCURVE",
"528 527 CURVE",
"555 527 LINE",
"555 700 LINE",
"16 700 LINE",
"16 673 LINE",
"44 673 LINE SMOOTH",
"83 673 OFFCURVE",
"103 662 OFFCURVE",
"103 637 CURVE SMOOTH",
"103 62 LINE SMOOTH",
"103 37 OFFCURVE",
"83 26 OFFCURVE",
"44 26 CURVE SMOOTH",
"16 26 LINE",
"16 0 LINE"
);
},
{
closed = 1;
nodes = (
"455 251 LINE",
"455 485 LINE",
"431 485 LINE",
"427 436 OFFCURVE",
"424 388 OFFCURVE",
"379 388 CURVE SMOOTH",
"162 388 LINE",
"162 348 LINE",
"379 348 LINE SMOOTH",
"424 348 OFFCURVE",
"427 300 OFFCURVE",
"431 251 CURVE"
);
},
{
closed = 1;
nodes = (
"254 781 OFFCURVE",
"272 800 OFFCURVE",
"272 827 CURVE SMOOTH",
"272 855 OFFCURVE",
"254 875 OFFCURVE",
"225 875 CURVE SMOOTH",
"197 875 OFFCURVE",
"179 855 OFFCURVE",
"179 827 CURVE SMOOTH",
"179 800 OFFCURVE",
"197 781 OFFCURVE",
"225 781 CURVE SMOOTH"
);
},
{
closed = 1;
nodes = (
"470 781 OFFCURVE",
"488 800 OFFCURVE",
"488 827 CURVE SMOOTH",
"488 855 OFFCURVE",
"470 875 OFFCURVE",
"441 875 CURVE SMOOTH",
"412 875 OFFCURVE",
"394 855 OFFCURVE",
"394 827 CURVE SMOOTH",
"394 800 OFFCURVE",
"412 781 OFFCURVE",
"441 781 CURVE SMOOTH"
);
}
);
};
components = (
{
name = E;
},
{
name = dieresiscomb;
transform = "{1, 0, 0, 1, 281, 120}";
}
);
layerId = "5A4BD32C-A1D1-4EB1-A794-47BD06E3B809";
width = 560;
}
);
note = Edieresis;
unicode = 00CB;
},
{
glyphname = Edotaccent;
lastChange = "2018-02-18 14:34:41 +0000";
layers = (
{
background = {
paths = (
{
closed = 1;
nodes = (
"554 0 LINE",
"571 179 LINE",
"544 179 LINE",
"538 124 OFFCURVE",
"520 40 OFFCURVE",
"456 40 CURVE SMOOTH",
"201 40 LINE",
"201 659 LINE",
"441 659 LINE SMOOTH",
"516 659 OFFCURVE",
"525 567 OFFCURVE",
"528 527 CURVE",
"555 527 LINE",
"555 700 LINE",
"16 700 LINE",
"16 673 LINE",
"44 673 LINE SMOOTH",
"83 673 OFFCURVE",
"103 662 OFFCURVE",
"103 637 CURVE SMOOTH",
"103 62 LINE SMOOTH",
"103 37 OFFCURVE",
"83 26 OFFCURVE",
"44 26 CURVE SMOOTH",
"16 26 LINE",
"16 0 LINE"
);
},
{
closed = 1;
nodes = (
"455 251 LINE",
"455 485 LINE",
"431 485 LINE",
"427 436 OFFCURVE",
"424 388 OFFCURVE",
"379 388 CURVE SMOOTH",
"162 388 LINE",
"162 348 LINE",
"379 348 LINE SMOOTH",
"424 348 OFFCURVE",
"427 300 OFFCURVE",
"431 251 CURVE"
);
},
{
closed = 1;
nodes = (
"362 765 OFFCURVE",
"380 784 OFFCURVE",
"380 811 CURVE SMOOTH",
"380 839 OFFCURVE",
"362 858 OFFCURVE",
"334 858 CURVE SMOOTH",
"305 858 OFFCURVE",
"287 839 OFFCURVE",
"287 811 CURVE SMOOTH",
"287 784 OFFCURVE",
"305 765 OFFCURVE",
"334 765 CURVE SMOOTH"
);
}
);
};
components = (
{
name = E;
},
{
name = dotaccentcomb;
transform = "{1, 0, 0, 1, 280, 120}";
}
);
layerId = "5A4BD32C-A1D1-4EB1-A794-47BD06E3B809";
width = 560;
}
);
note = Edotaccent;
unicode = 0116;
},
{
glyphname = Edotbelow;
lastChange = "2018-02-18 14:34:41 +0000";
layers = (
{
background = {
paths = (
{
closed = 1;
nodes = (
"554 0 LINE",
"571 179 LINE",
"544 179 LINE",
"538 124 OFFCURVE",
"520 40 OFFCURVE",
"456 40 CURVE SMOOTH",
"201 40 LINE",
"201 659 LINE",
"441 659 LINE SMOOTH",
"516 659 OFFCURVE",
"525 567 OFFCURVE",
"528 527 CURVE",
"555 527 LINE",
"555 700 LINE",
"16 700 LINE",
"16 673 LINE",
"44 673 LINE SMOOTH",
"83 673 OFFCURVE",
"103 662 OFFCURVE",
"103 637 CURVE SMOOTH",
"103 62 LINE SMOOTH",
"103 37 OFFCURVE",
"83 26 OFFCURVE",
"44 26 CURVE SMOOTH",
"16 26 LINE",
"16 0 LINE"
);
},
{
closed = 1;
nodes = (
"343 -159 OFFCURVE",
"361 -140 OFFCURVE",
"361 -112 CURVE SMOOTH",
"361 -84 OFFCURVE",
"343 -64 OFFCURVE",
"315 -64 CURVE SMOOTH",
"287 -64 OFFCURVE",
"268 -84 OFFCURVE",
"268 -112 CURVE SMOOTH",
"268 -140 OFFCURVE",
"287 -159 OFFCURVE",
"315 -159 CURVE SMOOTH"
);
},
{
closed = 1;
nodes = (
"455 251 LINE",
"455 485 LINE",
"431 485 LINE",
"427 436 OFFCURVE",
"424 388 OFFCURVE",
"379 388 CURVE SMOOTH",
"162 388 LINE",
"162 348 LINE",
"379 348 LINE SMOOTH",
"424 348 OFFCURVE",
"427 300 OFFCURVE",
"431 251 CURVE"
);
}
);
};
components = (
{
name = E;
},
{
name = dotbelowcomb;
transform = "{1, 0, 0, 1, 168, 0}";
}
);
layerId = "5A4BD32C-A1D1-4EB1-A794-47BD06E3B809";
width = 560;
}
);
note = Edotbelow;
unicode = 1EB8;
},
{
glyphname = Egrave;
lastChange = "2018-02-18 14:34:41 +0000";
layers = (
{
background = {
paths = (
{
closed = 1;
nodes = (
"554 0 LINE",
"571 179 LINE",
"544 179 LINE",
"538 124 OFFCURVE",
"520 40 OFFCURVE",
"456 40 CURVE SMOOTH",
"201 40 LINE",
"201 659 LINE",
"441 659 LINE SMOOTH",
"516 659 OFFCURVE",
"525 567 OFFCURVE",
"528 527 CURVE",
"555 527 LINE",
"555 700 LINE",
"16 700 LINE",
"16 673 LINE",
"44 673 LINE SMOOTH",
"83 673 OFFCURVE",
"103 662 OFFCURVE",
"103 637 CURVE SMOOTH",
"103 62 LINE SMOOTH",
"103 37 OFFCURVE",
"83 26 OFFCURVE",
"44 26 CURVE SMOOTH",
"16 26 LINE",
"16 0 LINE"
);
},
{
closed = 1;
nodes = (
"455 251 LINE",
"455 485 LINE",
"431 485 LINE",
"427 436 OFFCURVE",
"424 388 OFFCURVE",
"379 388 CURVE SMOOTH",
"162 388 LINE",
"162 348 LINE",
"379 348 LINE SMOOTH",
"424 348 OFFCURVE",
"427 300 OFFCURVE",
"431 251 CURVE"
);
},
{
closed = 1;
nodes = (
"425 807 LINE",
"310 913 LINE",
"301 922 OFFCURVE",
"285 937 OFFCURVE",
"265 937 CURVE SMOOTH",
"245 937 OFFCURVE",
"233 924 OFFCURVE",
"233 908 CURVE SMOOTH",
"233 890 OFFCURVE",
"245 876 OFFCURVE",
"264 865 CURVE SMOOTH",
"407 782 LINE"
);
}
);
};
components = (
{
name = E;
},
{
name = gravecomb;
transform = "{1, 0, 0, 1, 280, 120}";
}
);
layerId = "5A4BD32C-A1D1-4EB1-A794-47BD06E3B809";
width = 560;
}
);
note = Egrave;
unicode = 00C8;
},
{
glyphname = Ehookabove;
lastChange = "2018-02-18 14:34:41 +0000";
layers = (
{
background = {
paths = (
{
closed = 1;
nodes = (
"554 0 LINE",
"571 179 LINE",
"544 179 LINE",
"538 124 OFFCURVE",
"520 40 OFFCURVE",
"456 40 CURVE SMOOTH",
"201 40 LINE",
"201 659 LINE",
"441 659 LINE SMOOTH",
"516 659 OFFCURVE",
"525 567 OFFCURVE",
"528 527 CURVE",
"555 527 LINE",
"555 700 LINE",
"16 700 LINE",
"16 673 LINE",
"44 673 LINE SMOOTH",
"83 673 OFFCURVE",
"103 662 OFFCURVE",
"103 637 CURVE SMOOTH",
"103 62 LINE SMOOTH",
"103 37 OFFCURVE",
"83 26 OFFCURVE",
"44 26 CURVE SMOOTH",
"16 26 LINE",
"16 0 LINE"
);
},
{
closed = 1;
nodes = (
"455 251 LINE",
"455 485 LINE",
"431 485 LINE",
"427 436 OFFCURVE",
"424 388 OFFCURVE",
"379 388 CURVE SMOOTH",
"162 388 LINE",
"162 348 LINE",
"379 348 LINE SMOOTH",
"424 348 OFFCURVE",
"427 300 OFFCURVE",
"431 251 CURVE"
);
},
{
closed = 1;
nodes = (
"367 798 LINE",
"348 805 OFFCURVE",
"336 811 OFFCURVE",
"336 828 CURVE SMOOTH",
"336 861 OFFCURVE",
"425 876 OFFCURVE",
"425 927 CURVE SMOOTH",
"425 969 OFFCURVE",
"389 991 OFFCURVE",
"336 991 CURVE SMOOTH",
"289 991 OFFCURVE",
"248 974 OFFCURVE",
"248 940 CURVE SMOOTH",
"248 923 OFFCURVE",
"256 915 OFFCURVE",
"271 915 CURVE SMOOTH",
"294 915 OFFCURVE",
"296 934 OFFCURVE",
"299 942 CURVE SMOOTH",
"304 956 OFFCURVE",
"321 962 OFFCURVE",
"337 962 CURVE SMOOTH",
"358 962 OFFCURVE",
"371 947 OFFCURVE",
"371 930 CURVE SMOOTH",
"371 885 OFFCURVE",
"289 874 OFFCURVE",
"289 828 CURVE SMOOTH",
"289 801 OFFCURVE",
"307 778 OFFCURVE",
"358 778 CURVE"
);
}
);
};
components = (
{
name = E;
},
{
name = hookabovecomb;
transform = "{1, 0, 0, 1, 111, 120}";
}
);
layerId = "5A4BD32C-A1D1-4EB1-A794-47BD06E3B809";
width = 560;
}
);
note = Ehookabove;
unicode = 1EBA;
},
{
glyphname = Emacron;
lastChange = "2018-02-18 14:34:41 +0000";
layers = (
{
background = {
paths = (
{
closed = 1;
nodes = (
"554 0 LINE",
"571 179 LINE",
"544 179 LINE",
"538 124 OFFCURVE",
"520 40 OFFCURVE",
"456 40 CURVE SMOOTH",
"201 40 LINE",
"201 659 LINE",
"441 659 LINE SMOOTH",
"516 659 OFFCURVE",
"525 567 OFFCURVE",
"528 527 CURVE",
"555 527 LINE",
"555 700 LINE",
"16 700 LINE",
"16 673 LINE",
"44 673 LINE SMOOTH",
"83 673 OFFCURVE",
"103 662 OFFCURVE",
"103 637 CURVE SMOOTH",
"103 62 LINE SMOOTH",
"103 37 OFFCURVE",
"83 26 OFFCURVE",
"44 26 CURVE SMOOTH",
"16 26 LINE",
"16 0 LINE"
);
},
{
closed = 1;
nodes = (
"455 251 LINE",
"455 485 LINE",
"431 485 LINE",
"427 436 OFFCURVE",
"424 388 OFFCURVE",
"379 388 CURVE SMOOTH",
"162 388 LINE",
"162 348 LINE",
"379 348 LINE SMOOTH",
"424 348 OFFCURVE",
"427 300 OFFCURVE",
"431 251 CURVE"
);
},
{
closed = 1;
nodes = (
"495 782 LINE",
"495 824 LINE",
"162 824 LINE",
"162 782 LINE"
);
}
);
};
components = (
{
name = E;
},
{
name = macroncomb;
transform = "{1, 0, 0, 1, 280, 120}";
}
);
layerId = "5A4BD32C-A1D1-4EB1-A794-47BD06E3B809";
width = 560;
}
);
note = Emacron;
unicode = 0112;
},
{
glyphname = Eogonek;
lastChange = "2018-02-18 14:34:41 +0000";
layers = (
{
background = {
paths = (
{
closed = 1;
nodes = (
"554 0 LINE",
"571 179 LINE",
"544 179 LINE",
"538 124 OFFCURVE",
"520 40 OFFCURVE",
"456 40 CURVE SMOOTH",
"201 40 LINE",
"201 659 LINE",
"441 659 LINE SMOOTH",
"516 659 OFFCURVE",
"525 567 OFFCURVE",
"528 527 CURVE",
"555 527 LINE",
"555 700 LINE",
"16 700 LINE",
"16 673 LINE",
"44 673 LINE SMOOTH",
"83 673 OFFCURVE",
"103 662 OFFCURVE",
"103 637 CURVE SMOOTH",
"103 62 LINE SMOOTH",
"103 37 OFFCURVE",
"83 26 OFFCURVE",
"44 26 CURVE SMOOTH",
"16 26 LINE",
"16 0 LINE"
);
},
{
closed = 1;
nodes = (
"496 -196 OFFCURVE",
"524 -189 OFFCURVE",
"549 -172 CURVE",
"543 -152 LINE",
"527 -158 OFFCURVE",
"510 -162 OFFCURVE",
"497 -162 CURVE SMOOTH",
"464 -162 OFFCURVE",
"437 -146 OFFCURVE",
"437 -106 CURVE SMOOTH",
"437 -66 OFFCURVE",
"464 -26 OFFCURVE",
"510 4 CURVE",
"469 4 LINE",
"416 -22 OFFCURVE",
"376 -64 OFFCURVE",
"376 -114 CURVE SMOOTH",
"376 -147 OFFCURVE",
"395 -196 OFFCURVE",
"470 -196 CURVE SMOOTH"
);
},
{
closed = 1;
nodes = (
"455 251 LINE",
"455 485 LINE",
"431 485 LINE",
"427 436 OFFCURVE",
"424 388 OFFCURVE",
"379 388 CURVE SMOOTH",
"162 388 LINE",
"162 348 LINE",
"379 348 LINE SMOOTH",
"424 348 OFFCURVE",
"427 300 OFFCURVE",
"431 251 CURVE"
);
}
);
};
components = (
{
name = E;
},
{
name = ogonekcomb;
transform = "{1, 0, 0, 1, 429, 0}";
}
);
layerId = "5A4BD32C-A1D1-4EB1-A794-47BD06E3B809";
width = 560;
}
);
note = Eogonek;
unicode = 0118;
},
{
glyphname = Etilde;
lastChange = "2018-02-18 14:34:41 +0000";
layers = (
{
background = {
paths = (
{
closed = 1;
nodes = (
"554 0 LINE",
"571 179 LINE",
"544 179 LINE",
"538 124 OFFCURVE",
"520 40 OFFCURVE",
"456 40 CURVE SMOOTH",
"201 40 LINE",
"201 659 LINE",
"441 659 LINE SMOOTH",
"516 659 OFFCURVE",
"525 567 OFFCURVE",
"528 527 CURVE",
"555 527 LINE",
"555 700 LINE",
"16 700 LINE",
"16 673 LINE",
"44 673 LINE SMOOTH",
"83 673 OFFCURVE",
"103 662 OFFCURVE",
"103 637 CURVE SMOOTH",
"103 62 LINE SMOOTH",
"103 37 OFFCURVE",
"83 26 OFFCURVE",
"44 26 CURVE SMOOTH",
"16 26 LINE",
"16 0 LINE"
);
},
{
closed = 1;
nodes = (
"455 251 LINE",
"455 485 LINE",
"431 485 LINE",
"427 436 OFFCURVE",
"424 388 OFFCURVE",
"379 388 CURVE SMOOTH",
"162 388 LINE",
"162 348 LINE",
"379 348 LINE SMOOTH",
"424 348 OFFCURVE",
"427 300 OFFCURVE",
"431 251 CURVE"
);
},
{
closed = 1;
nodes = (
"190 817 OFFCURVE",
"208 838 OFFCURVE",
"241 838 CURVE SMOOTH",
"292 838 OFFCURVE",
"341 784 OFFCURVE",
"392 784 CURVE SMOOTH",
"450 784 OFFCURVE",
"480 832 OFFCURVE",
"492 884 CURVE",
"471 895 LINE",
"455 855 OFFCURVE",
"439 833 OFFCURVE",
"405 833 CURVE SMOOTH",
"356 833 OFFCURVE",
"304 886 OFFCURVE",
"253 886 CURVE SMOOTH",
"199 886 OFFCURVE",
"166 842 OFFCURVE",
"154 790 CURVE",
"176 779 LINE"
);
}
);
};
components = (
{
name = E;
},
{
name = tildecomb;
transform = "{1, 0, 0, 1, 280, 120}";
}
);
layerId = "5A4BD32C-A1D1-4EB1-A794-47BD06E3B809";
width = 560;
}
);
note = Etilde;
unicode = 1EBC;
},
{
glyphname = Hbar;
lastChange = "2018-02-18 14:34:41 +0000";
layers = (
{
components = (
{
name = H;
}
);
hints = (
{
horizontal = 1;
place = "{524, 60}";
}
);
layerId = "5A4BD32C-A1D1-4EB1-A794-47BD06E3B809";
paths = (
{
closed = 1;
nodes = (
"670 524 LINE",
"670 584 LINE",
"10 584 LINE",
"10 524 LINE"
);
}
);
width = 680;
}
);
note = Hbar;
unicode = 0126;
},
{
glyphname = Lslash;
lastChange = "2018-02-18 14:34:41 +0000";
layers = (
{
layerId = "5A4BD32C-A1D1-4EB1-A794-47BD06E3B809";
paths = (
{
closed = 1;
nodes = (
"369 458 LINE",
"369 527 LINE",
"181 452 LINE",
"181 791 LINE",
"109 791 LINE",
"109 423 LINE",
"17 386 LINE",
"17 317 LINE",
"109 354 LINE",
"109 0 LINE",
"534 0 LINE",
"534 59 LINE",
"181 59 LINE",
"181 384 LINE"
);
}
);
width = 547;
}
);
note = Lslash;
unicode = 0141;
},
{
glyphname = Nacute;
lastChange = "2018-02-18 14:34:41 +0000";
layers = (
{
background = {
paths = (
{
closed = 1;
nodes = (
"247 0 LINE",
"247 26 LINE",
"217 26 LINE SMOOTH",
"179 26 OFFCURVE",
"159 37 OFFCURVE",
"159 62 CURVE SMOOTH",
"159 642 LINE",
"587 0 LINE",
"645 0 LINE",
"645 637 LINE SMOOTH",
"645 662 OFFCURVE",
"665 673 OFFCURVE",
"703 673 CURVE SMOOTH",
"733 673 LINE",
"733 700 LINE",
"508 700 LINE",
"508 673 LINE",
"537 673 LINE SMOOTH",
"576 673 OFFCURVE",
"595 662 OFFCURVE",
"595 637 CURVE SMOOTH",
"595 126 LINE",
"217 700 LINE",
"22 700 LINE",
"22 673 LINE",
"51 673 LINE SMOOTH",
"90 673 OFFCURVE",
"109 662 OFFCURVE",
"109 637 CURVE SMOOTH",
"109 62 LINE SMOOTH",
"109 37 OFFCURVE",
"90 26 OFFCURVE",
"51 26 CURVE SMOOTH",
"22 26 LINE",
"22 0 LINE"
);
},
{
closed = 1;
nodes = (
"458 865 LINE SMOOTH",
"480 877 OFFCURVE",
"492 890 OFFCURVE",
"492 907 CURVE SMOOTH",
"492 922 OFFCURVE",
"480 937 OFFCURVE",
"458 937 CURVE SMOOTH",
"437 937 OFFCURVE",
"422 921 OFFCURVE",
"414 914 CURVE SMOOTH",
"299 807 LINE",
"316 782 LINE"
);
}
);
};
components = (
{
name = N;
},
{
name = acutecomb;
transform = "{1, 0, 0, 1, 216, 110}";
}
);
layerId = "5A4BD32C-A1D1-4EB1-A794-47BD06E3B809";
width = 689;
}
);
note = Nacute;
unicode = 0143;
},
{
glyphname = Ncaron;
lastChange = "2018-02-18 14:34:41 +0000";
layers = (
{
background = {
paths = (
{
closed = 1;
nodes = (
"247 0 LINE",
"247 26 LINE",
"217 26 LINE SMOOTH",
"179 26 OFFCURVE",
"159 37 OFFCURVE",
"159 62 CURVE SMOOTH",
"159 642 LINE",
"587 0 LINE",
"645 0 LINE",
"645 637 LINE SMOOTH",
"645 662 OFFCURVE",
"665 673 OFFCURVE",
"703 673 CURVE SMOOTH",
"733 673 LINE",
"733 700 LINE",
"508 700 LINE",
"508 673 LINE",
"537 673 LINE SMOOTH",
"576 673 OFFCURVE",
"595 662 OFFCURVE",
"595 637 CURVE SMOOTH",
"595 126 LINE",
"217 700 LINE",
"22 700 LINE",
"22 673 LINE",
"51 673 LINE SMOOTH",
"90 673 OFFCURVE",
"109 662 OFFCURVE",
"109 637 CURVE SMOOTH",
"109 62 LINE SMOOTH",
"109 37 OFFCURVE",
"90 26 OFFCURVE",
"51 26 CURVE SMOOTH",
"22 26 LINE",
"22 0 LINE"
);
},
{
closed = 1;
nodes = (
"403 782 LINE",
"527 911 LINE",
"508 932 LINE",
"400 847 LINE",
"392 840 OFFCURVE",
"383 836 OFFCURVE",
"377 836 CURVE SMOOTH",
"371 836 OFFCURVE",
"363 840 OFFCURVE",
"353 847 CURVE",
"245 932 LINE",
"226 911 LINE",
"350 782 LINE"
);
}
);
};
components = (
{
name = N;
},
{
name = caroncomb;
transform = "{1, 0, 0, 1, 345, 110}";
}
);
layerId = "5A4BD32C-A1D1-4EB1-A794-47BD06E3B809";
width = 689;
}
);
note = Ncaron;
unicode = 0147;
},
{
glyphname = Ncommaaccent;
lastChange = "2018-02-18 14:34:41 +0000";
layers = (
{
background = {
paths = (
{
closed = 1;
nodes = (
"247 0 LINE",
"247 26 LINE",
"217 26 LINE SMOOTH",
"179 26 OFFCURVE",
"159 37 OFFCURVE",
"159 62 CURVE SMOOTH",
"159 642 LINE",
"587 0 LINE",
"645 0 LINE",
"645 637 LINE SMOOTH",
"645 662 OFFCURVE",
"665 673 OFFCURVE",
"703 673 CURVE SMOOTH",
"733 673 LINE",
"733 700 LINE",
"508 700 LINE",
"508 673 LINE",
"537 673 LINE SMOOTH",
"576 673 OFFCURVE",
"595 662 OFFCURVE",
"595 637 CURVE SMOOTH",
"595 126 LINE",
"217 700 LINE",
"22 700 LINE",
"22 673 LINE",
"51 673 LINE SMOOTH",
"90 673 OFFCURVE",
"109 662 OFFCURVE",
"109 637 CURVE SMOOTH",
"109 62 LINE SMOOTH",
"109 37 OFFCURVE",
"90 26 OFFCURVE",
"51 26 CURVE SMOOTH",
"22 26 LINE",
"22 0 LINE"
);
},
{
closed = 1;
nodes = (
"369 -258 OFFCURVE",
"413 -198 OFFCURVE",
"413 -135 CURVE SMOOTH",
"413 -87 OFFCURVE",
"389 -67 OFFCURVE",
"360 -67 CURVE SMOOTH",
"331 -67 OFFCURVE",
"314 -87 OFFCURVE",
"314 -111 CURVE SMOOTH",
"314 -145 OFFCURVE",
"349 -152 OFFCURVE",
"349 -187 CURVE SMOOTH",
"349 -223 OFFCURVE",
"323 -256 OFFCURVE",
"296 -282 CURVE",
"313 -299 LINE"
);
}
);
};
components = (
{
name = N;
},
{
name = commaaccentcomb;
transform = "{1, 0, 0, 1, 93, 0}";
}
);
layerId = "5A4BD32C-A1D1-4EB1-A794-47BD06E3B809";
width = 689;
}
);
note = Ncommaaccent;
unicode = 0145;
},
{
glyphname = Ndotaccent;
lastChange = "2018-02-18 14:34:41 +0000";
layers = (
{
background = {
paths = (
{
closed = 1;
nodes = (
"247 0 LINE",
"247 26 LINE",
"217 26 LINE SMOOTH",
"179 26 OFFCURVE",
"159 37 OFFCURVE",
"159 62 CURVE SMOOTH",
"159 642 LINE",
"587 0 LINE",
"645 0 LINE",
"645 637 LINE SMOOTH",
"645 662 OFFCURVE",
"665 673 OFFCURVE",
"703 673 CURVE SMOOTH",
"733 673 LINE",
"733 700 LINE",
"508 700 LINE",
"508 673 LINE",
"537 673 LINE SMOOTH",
"576 673 OFFCURVE",
"595 662 OFFCURVE",
"595 637 CURVE SMOOTH",
"595 126 LINE",
"217 700 LINE",
"22 700 LINE",
"22 673 LINE",
"51 673 LINE SMOOTH",
"90 673 OFFCURVE",
"109 662 OFFCURVE",
"109 637 CURVE SMOOTH",
"109 62 LINE SMOOTH",
"109 37 OFFCURVE",
"90 26 OFFCURVE",
"51 26 CURVE SMOOTH",
"22 26 LINE",
"22 0 LINE"
);
},
{
closed = 1;
nodes = (
"405 765 OFFCURVE",
"423 784 OFFCURVE",
"423 811 CURVE SMOOTH",
"423 839 OFFCURVE",
"405 858 OFFCURVE",
"377 858 CURVE SMOOTH",
"348 858 OFFCURVE",
"330 839 OFFCURVE",
"330 811 CURVE SMOOTH",
"330 784 OFFCURVE",
"348 765 OFFCURVE",
"377 765 CURVE SMOOTH"
);
}
);
};
components = (
{
name = N;
},
{
name = dotaccentcomb;
transform = "{1, 0, 0, 1, 343, 110}";
}
);
layerId = "5A4BD32C-A1D1-4EB1-A794-47BD06E3B809";
width = 689;
}
);
note = Ndotaccent;
unicode = 1E44;
},
{
glyphname = Ndotbelow;
lastChange = "2018-02-18 14:34:41 +0000";
layers = (
{
background = {
paths = (
{
closed = 1;
nodes = (
"247 0 LINE",
"247 26 LINE",
"217 26 LINE SMOOTH",
"179 26 OFFCURVE",
"159 37 OFFCURVE",
"159 62 CURVE SMOOTH",
"159 642 LINE",
"587 0 LINE",
"645 0 LINE",
"645 637 LINE SMOOTH",
"645 662 OFFCURVE",
"665 673 OFFCURVE",
"703 673 CURVE SMOOTH",
"733 673 LINE",
"733 700 LINE",
"508 700 LINE",
"508 673 LINE",
"537 673 LINE SMOOTH",
"576 673 OFFCURVE",
"595 662 OFFCURVE",
"595 637 CURVE SMOOTH",
"595 126 LINE",
"217 700 LINE",
"22 700 LINE",
"22 673 LINE",
"51 673 LINE SMOOTH",
"90 673 OFFCURVE",
"109 662 OFFCURVE",
"109 637 CURVE SMOOTH",
"109 62 LINE SMOOTH",
"109 37 OFFCURVE",
"90 26 OFFCURVE",
"51 26 CURVE SMOOTH",
"22 26 LINE",
"22 0 LINE"
);
},
{
closed = 1;
nodes = (
"415 -159 OFFCURVE",
"433 -140 OFFCURVE",
"433 -112 CURVE SMOOTH",
"433 -84 OFFCURVE",
"415 -64 OFFCURVE",
"387 -64 CURVE SMOOTH",
"359 -64 OFFCURVE",
"340 -84 OFFCURVE",
"340 -112 CURVE SMOOTH",
"340 -140 OFFCURVE",
"359 -159 OFFCURVE",
"387 -159 CURVE SMOOTH"
);
}
);
};
components = (
{
name = N;
},
{
name = dotbelowcomb;
transform = "{1, 0, 0, 1, 231, 0}";
}
);
layerId = "5A4BD32C-A1D1-4EB1-A794-47BD06E3B809";
width = 689;
}
);
note = uni1E46;
unicode = 1E46;
},
{
glyphname = Eng;
lastChange = "2018-02-18 14:34:41 +0000";
layers = (
{
anchors = (
{
name = bottom;
position = "{343, 0}";
},
{
name = top;
position = "{343, 660}";
}
);
background = {
paths = (
{
closed = 1;
nodes = (
"592 -259 OFFCURVE",
"645 -182 OFFCURVE",
"645 -36 CURVE SMOOTH",
"645 637 LINE SMOOTH",
"645 662 OFFCURVE",
"665 673 OFFCURVE",
"703 673 CURVE SMOOTH",
"733 673 LINE",
"733 700 LINE",
"508 700 LINE",
"508 673 LINE",
"537 673 LINE SMOOTH",
"576 673 OFFCURVE",
"595 662 OFFCURVE",
"595 637 CURVE SMOOTH",
"595 125 LINE",
"219 700 LINE",
"22 700 LINE",
"22 673 LINE",
"51 673 LINE SMOOTH",
"90 673 OFFCURVE",
"109 662 OFFCURVE",
"109 637 CURVE SMOOTH",
"109 62 LINE SMOOTH",
"109 37 OFFCURVE",
"93 26 OFFCURVE",
"51 26 CURVE SMOOTH",
"22 26 LINE",
"22 0 LINE",
"247 0 LINE",
"247 26 LINE",
"217 26 LINE SMOOTH",
"179 26 OFFCURVE",
"159 37 OFFCURVE",
"159 62 CURVE SMOOTH",
"159 647 LINE",
"586 0 LINE",
"586 -76 LINE SMOOTH",
"586 -173 OFFCURVE",
"510 -238 OFFCURVE",
"423 -243 CURVE",
"427 -268 LINE"
);
}
);
};
hints = (
{
horizontal = 1;
origin = "{0, 33}";
target = up;
type = BottomGhost;
},
{
horizontal = 1;
origin = "{0, 32}";
target = down;
type = TopGhost;
},
{
horizontal = 1;
origin = "{0, 32}";
target = "{0, 1}";
},
{
origin = "{0, 33}";
target = "{0, 0}";
},
{
origin = "{0, 6}";
target = "{0, 24}";
}
);
layerId = "5A4BD32C-A1D1-4EB1-A794-47BD06E3B809";
paths = (
{
closed = 1;
nodes = (
"158 0 LINE",
"158 601.006 LINE",
"488 165 LINE SMOOTH",
"517 126 OFFCURVE",
"527 87 OFFCURVE",
"527 54 CURVE SMOOTH",
"527 -42 LINE SMOOTH",
"527 -102 OFFCURVE",
"498 -134 OFFCURVE",
"450 -134 CURVE SMOOTH",
"418 -134 OFFCURVE",
"390 -127 OFFCURVE",
"369 -118 CURVE",
"362 -118 OFFCURVE",
"353 -132 OFFCURVE",
"353 -147 CURVE SMOOTH",
"353 -155 OFFCURVE",
"356 -163 OFFCURVE",
"363 -169 CURVE SMOOTH",
"380 -184 OFFCURVE",
"419 -192 OFFCURVE",
"442 -192 CURVE SMOOTH",
"537 -192 OFFCURVE",
"599 -135 OFFCURVE",
"599 -33 CURVE SMOOTH",
"599 700 LINE",
"527 700 LINE",
"527 224.933 LINE",
"182 680 LINE SMOOTH",
"168 698 OFFCURVE",
"160 700 OFFCURVE",
"144 700 CURVE SMOOTH",
"86 700 LINE",
"86 0 LINE"
);
}
);
width = 685;
}
);
note = Eng;
rightMetricsKey = N;
unicode = 014A;
},
{
glyphname = Nlinebelow;
lastChange = "2018-02-18 14:34:41 +0000";
layers = (
{
background = {
paths = (
{
closed = 1;
nodes = (
"247 0 LINE",
"247 26 LINE",
"217 26 LINE SMOOTH",
"179 26 OFFCURVE",
"159 37 OFFCURVE",
"159 62 CURVE SMOOTH",
"159 642 LINE",
"587 0 LINE",
"645 0 LINE",
"645 637 LINE SMOOTH",
"645 662 OFFCURVE",
"665 673 OFFCURVE",
"703 673 CURVE SMOOTH",
"733 673 LINE",
"733 700 LINE",
"508 700 LINE",
"508 673 LINE",
"537 673 LINE SMOOTH",
"576 673 OFFCURVE",
"595 662 OFFCURVE",
"595 637 CURVE SMOOTH",
"595 126 LINE",
"217 700 LINE",
"22 700 LINE",
"22 673 LINE",
"51 673 LINE SMOOTH",
"90 673 OFFCURVE",
"109 662 OFFCURVE",
"109 637 CURVE SMOOTH",
"109 62 LINE SMOOTH",
"109 37 OFFCURVE",
"90 26 OFFCURVE",
"51 26 CURVE SMOOTH",
"22 26 LINE",
"22 0 LINE"
);
},
{
closed = 1;
nodes = (
"542 -110 LINE",
"542 -72 LINE",
"210 -72 LINE",
"210 -110 LINE"
);
}
);
};
components = (
{
name = N;
},
{
name = macronbelowcomb;
transform = "{1, 0, 0, 1, 343, 0}";
}
);
layerId = "5A4BD32C-A1D1-4EB1-A794-47BD06E3B809";
width = 689;
}
);
note = Nlinebelow;
unicode = 1E48;
},
{
glyphname = Ntilde;
lastChange = "2018-02-18 14:34:41 +0000";
layers = (
{
background = {
paths = (
{
closed = 1;
nodes = (
"247 0 LINE",
"247 26 LINE",
"217 26 LINE SMOOTH",
"179 26 OFFCURVE",
"159 37 OFFCURVE",
"159 62 CURVE SMOOTH",
"159 642 LINE",
"587 0 LINE",
"645 0 LINE",
"645 637 LINE SMOOTH",
"645 662 OFFCURVE",
"665 673 OFFCURVE",
"703 673 CURVE SMOOTH",
"733 673 LINE",
"733 700 LINE",
"508 700 LINE",
"508 673 LINE",
"537 673 LINE SMOOTH",
"576 673 OFFCURVE",
"595 662 OFFCURVE",
"595 637 CURVE SMOOTH",
"595 126 LINE",
"217 700 LINE",
"22 700 LINE",
"22 673 LINE",
"51 673 LINE SMOOTH",
"90 673 OFFCURVE",
"109 662 OFFCURVE",
"109 637 CURVE SMOOTH",
"109 62 LINE SMOOTH",
"109 37 OFFCURVE",
"90 26 OFFCURVE",
"51 26 CURVE SMOOTH",
"22 26 LINE",
"22 0 LINE"
);
},
{
closed = 1;
nodes = (
"254 818 OFFCURVE",
"272 839 OFFCURVE",
"305 839 CURVE SMOOTH",
"356 839 OFFCURVE",
"405 785 OFFCURVE",
"456 785 CURVE SMOOTH",
"514 785 OFFCURVE",
"544 833 OFFCURVE",
"556 885 CURVE",
"535 896 LINE",
"519 856 OFFCURVE",
"503 834 OFFCURVE",
"469 834 CURVE SMOOTH",
"420 834 OFFCURVE",
"368 887 OFFCURVE",
"317 887 CURVE SMOOTH",
"263 887 OFFCURVE",
"230 843 OFFCURVE",
"218 791 CURVE",
"240 780 LINE"
);
}
);
};
components = (
{
name = N;
},
{
name = tildecomb;
transform = "{1, 0, 0, 1, 343, 110}";
}
);
layerId = "5A4BD32C-A1D1-4EB1-A794-47BD06E3B809";
width = 689;
}
);
note = Ntilde;
unicode = 00D1;
},
{
glyphname = Oacute;
lastChange = "2018-02-18 14:34:41 +0000";
layers = (
{
background = {
paths = (
{
closed = 1;
nodes = (
"601 -10 OFFCURVE",
"719 124 OFFCURVE",
"719 350 CURVE SMOOTH",
"719 574 OFFCURVE",
"601 710 OFFCURVE",
"378 710 CURVE SMOOTH",
"154 710 OFFCURVE",
"36 574 OFFCURVE",
"36 350 CURVE SMOOTH",
"36 124 OFFCURVE",
"154 -10 OFFCURVE",
"378 -10 CURVE SMOOTH"
);
},
{
closed = 1;
nodes = (
"215 32 OFFCURVE",
"135 158 OFFCURVE",
"135 350 CURVE SMOOTH",
"135 541 OFFCURVE",
"215 668 OFFCURVE",
"377 668 CURVE SMOOTH",
"541 668 OFFCURVE",
"620 541 OFFCURVE",
"620 350 CURVE SMOOTH",
"620 158 OFFCURVE",
"541 32 OFFCURVE",
"377 32 CURVE SMOOTH"
);
},
{
closed = 1;
nodes = (
"440 865 LINE SMOOTH",
"462 877 OFFCURVE",
"474 890 OFFCURVE",
"474 907 CURVE SMOOTH",
"474 922 OFFCURVE",
"462 937 OFFCURVE",
"440 937 CURVE SMOOTH",
"419 937 OFFCURVE",
"404 921 OFFCURVE",
"396 914 CURVE SMOOTH",
"281 807 LINE",
"298 782 LINE"
);
}
);
};
components = (
{
name = O;
},
{
name = acutecomb;
transform = "{1, 0, 0, 1, 213, 110}";
}
);
layerId = "5A4BD32C-A1D1-4EB1-A794-47BD06E3B809";
width = 680;
}
);
leftKerningGroup = O;
note = Oacute;
rightKerningGroup = O;
unicode = 00D3;
},
{
glyphname = Obreve;
lastChange = "2018-02-18 14:34:41 +0000";
layers = (
{
background = {
paths = (
{
closed = 1;
nodes = (
"601 -10 OFFCURVE",
"719 124 OFFCURVE",
"719 350 CURVE SMOOTH",
"719 574 OFFCURVE",
"601 710 OFFCURVE",
"378 710 CURVE SMOOTH",
"154 710 OFFCURVE",
"36 574 OFFCURVE",
"36 350 CURVE SMOOTH",
"36 124 OFFCURVE",
"154 -10 OFFCURVE",
"378 -10 CURVE SMOOTH"
);
},
{
closed = 1;
nodes = (
"215 32 OFFCURVE",
"135 158 OFFCURVE",
"135 350 CURVE SMOOTH",
"135 541 OFFCURVE",
"215 668 OFFCURVE",
"377 668 CURVE SMOOTH",
"541 668 OFFCURVE",
"620 541 OFFCURVE",
"620 350 CURVE SMOOTH",
"620 158 OFFCURVE",
"541 32 OFFCURVE",
"377 32 CURVE SMOOTH"
);
},
{
closed = 1;
nodes = (
"477 774 OFFCURVE",
"519 830 OFFCURVE",
"523 905 CURVE",
"490 905 LINE",
"484 846 OFFCURVE",
"442 820 OFFCURVE",
"378 820 CURVE SMOOTH",
"314 820 OFFCURVE",
"271 846 OFFCURVE",
"264 905 CURVE",
"231 905 LINE",
"235 827 OFFCURVE",
"277 774 OFFCURVE",
"378 774 CURVE SMOOTH"
);
}
);
};
components = (
{
name = O;
},
{
name = brevecomb;
transform = "{1, 0, 0, 1, 340, 110}";
}
);
layerId = "5A4BD32C-A1D1-4EB1-A794-47BD06E3B809";
width = 680;
}
);
leftKerningGroup = O;
note = Obreve;
rightKerningGroup = O;
unicode = 014E;
},
{
glyphname = Ocaron;
lastChange = "2018-02-18 14:34:41 +0000";
layers = (
{
background = {
paths = (
{
closed = 1;
nodes = (
"601 -10 OFFCURVE",
"719 124 OFFCURVE",
"719 350 CURVE SMOOTH",
"719 574 OFFCURVE",
"601 710 OFFCURVE",
"378 710 CURVE SMOOTH",
"154 710 OFFCURVE",
"36 574 OFFCURVE",
"36 350 CURVE SMOOTH",
"36 124 OFFCURVE",
"154 -10 OFFCURVE",
"378 -10 CURVE SMOOTH"
);
},
{
closed = 1;
nodes = (
"215 32 OFFCURVE",
"135 158 OFFCURVE",
"135 350 CURVE SMOOTH",
"135 541 OFFCURVE",
"215 668 OFFCURVE",
"377 668 CURVE SMOOTH",
"541 668 OFFCURVE",
"620 541 OFFCURVE",
"620 350 CURVE SMOOTH",
"620 158 OFFCURVE",
"541 32 OFFCURVE",
"377 32 CURVE SMOOTH"
);
},
{
closed = 1;
nodes = (
"404 782 LINE",
"528 911 LINE",
"509 932 LINE",
"401 847 LINE",
"393 840 OFFCURVE",
"384 836 OFFCURVE",
"378 836 CURVE SMOOTH",
"372 836 OFFCURVE",
"364 840 OFFCURVE",
"354 847 CURVE",
"246 932 LINE",
"227 911 LINE",
"351 782 LINE"
);
}
);
};
components = (
{
name = O;
},
{
name = caroncomb;
transform = "{1, 0, 0, 1, 342, 110}";
}
);
layerId = "5A4BD32C-A1D1-4EB1-A794-47BD06E3B809";
width = 680;
}
);
leftKerningGroup = O;
note = Ocaron;
rightKerningGroup = O;
unicode = 01D1;
},
{
glyphname = Ocircumflex;
lastChange = "2018-02-18 14:34:41 +0000";
layers = (
{
background = {
paths = (
{
closed = 1;
nodes = (
"601 -10 OFFCURVE",
"719 124 OFFCURVE",
"719 350 CURVE SMOOTH",
"719 574 OFFCURVE",
"601 710 OFFCURVE",
"378 710 CURVE SMOOTH",
"154 710 OFFCURVE",
"36 574 OFFCURVE",
"36 350 CURVE SMOOTH",
"36 124 OFFCURVE",
"154 -10 OFFCURVE",
"378 -10 CURVE SMOOTH"
);
},
{
closed = 1;
nodes = (
"215 32 OFFCURVE",
"135 158 OFFCURVE",
"135 350 CURVE SMOOTH",
"135 541 OFFCURVE",
"215 668 OFFCURVE",
"377 668 CURVE SMOOTH",
"541 668 OFFCURVE",
"620 541 OFFCURVE",
"620 350 CURVE SMOOTH",
"620 158 OFFCURVE",
"541 32 OFFCURVE",
"377 32 CURVE SMOOTH"
);
},
{
closed = 1;
nodes = (
"354 868 LINE SMOOTH",
"362 874 OFFCURVE",
"372 879 OFFCURVE",
"378 879 CURVE SMOOTH",
"384 879 OFFCURVE",
"392 874 OFFCURVE",
"401 868 CURVE",
"509 782 LINE",
"528 803 LINE",
"404 932 LINE",
"351 932 LINE",
"227 803 LINE",
"246 782 LINE"
);
}
);
};
components = (
{
name = O;
},
{
name = circumflexcomb;
transform = "{1, 0, 0, 1, 341, 110}";
}
);
layerId = "5A4BD32C-A1D1-4EB1-A794-47BD06E3B809";
width = 680;
}
);
leftKerningGroup = O;
note = Ocircumflex;
rightKerningGroup = O;
unicode = 00D4;
},
{
glyphname = Ocircumflexacute;
lastChange = "2018-02-18 14:34:41 +0000";
layers = (
{
background = {
paths = (
{
closed = 1;
nodes = (
"601 -10 OFFCURVE",
"719 124 OFFCURVE",
"719 350 CURVE SMOOTH",
"719 574 OFFCURVE",
"601 710 OFFCURVE",
"378 710 CURVE SMOOTH",
"154 710 OFFCURVE",
"36 574 OFFCURVE",
"36 350 CURVE SMOOTH",
"36 124 OFFCURVE",
"154 -10 OFFCURVE",
"378 -10 CURVE SMOOTH"
);
},
{
closed = 1;
nodes = (
"215 32 OFFCURVE",
"135 158 OFFCURVE",
"135 350 CURVE SMOOTH",
"135 541 OFFCURVE",
"215 668 OFFCURVE",
"377 668 CURVE SMOOTH",
"541 668 OFFCURVE",
"620 541 OFFCURVE",
"620 350 CURVE SMOOTH",
"620 158 OFFCURVE",
"541 32 OFFCURVE",
"377 32 CURVE SMOOTH"
);
},
{
closed = 1;
nodes = (
"348 861 LINE SMOOTH",
"358 869 OFFCURVE",
"368 877 OFFCURVE",
"376 877 CURVE SMOOTH",
"382 877 OFFCURVE",
"390 872 OFFCURVE",
"399 866 CURVE",
"505 780 LINE",
"524 802 LINE",
"402 931 LINE",
"351 931 LINE",
"229 802 LINE",
"247 780 LINE"
);
},
{
closed = 1;
nodes = (
"613 959 LINE SMOOTH",
"636 971 OFFCURVE",
"649 987 OFFCURVE",
"649 1002 CURVE SMOOTH",
"649 1016 OFFCURVE",
"638 1033 OFFCURVE",
"615 1033 CURVE SMOOTH",
"596 1033 OFFCURVE",
"579 1017 OFFCURVE",
"569 1007 CURVE SMOOTH",
"473 914 LINE",
"491 892 LINE"
);
}
);
};
components = (
{
name = O;
},
{
name = circumflexcomb;
transform = "{1, 0, 0, 1, 341, 110}";
},
{
name = acutecomb;
transform = "{1, 0, 0, 1, 213, 283}";
}
);
layerId = "5A4BD32C-A1D1-4EB1-A794-47BD06E3B809";
width = 680;
}
);
leftKerningGroup = O;
note = Ocircumflexacute;
rightKerningGroup = O;
unicode = 1ED0;
},
{
glyphname = Ocircumflexdotbelow;
lastChange = "2018-02-18 14:34:41 +0000";
layers = (
{
background = {
paths = (
{
closed = 1;
nodes = (
"36 124 OFFCURVE",
"154 -10 OFFCURVE",
"378 -10 CURVE SMOOTH",
"601 -10 OFFCURVE",
"719 124 OFFCURVE",
"719 350 CURVE SMOOTH",
"719 574 OFFCURVE",
"601 710 OFFCURVE",
"378 710 CURVE SMOOTH",
"154 710 OFFCURVE",
"36 574 OFFCURVE",
"36 350 CURVE SMOOTH"
);
},
{
closed = 1;
nodes = (
"135 541 OFFCURVE",
"215 668 OFFCURVE",
"377 668 CURVE SMOOTH",
"541 668 OFFCURVE",
"620 541 OFFCURVE",
"620 350 CURVE SMOOTH",
"620 158 OFFCURVE",
"541 32 OFFCURVE",
"377 32 CURVE SMOOTH",
"215 32 OFFCURVE",
"135 158 OFFCURVE",
"135 350 CURVE SMOOTH"
);
},
{
closed = 1;
nodes = (
"245 782 LINE",
"353 868 LINE SMOOTH",
"361 874 OFFCURVE",
"371 879 OFFCURVE",
"377 879 CURVE SMOOTH",
"383 879 OFFCURVE",
"391 874 OFFCURVE",
"400 868 CURVE",
"508 782 LINE",
"527 803 LINE",
"403 932 LINE",
"350 932 LINE",
"226 803 LINE"
);
},
{
closed = 1;
nodes = (
"330 -140 OFFCURVE",
"349 -159 OFFCURVE",
"377 -159 CURVE SMOOTH",
"405 -159 OFFCURVE",
"423 -140 OFFCURVE",
"423 -112 CURVE SMOOTH",
"423 -84 OFFCURVE",
"405 -64 OFFCURVE",
"377 -64 CURVE SMOOTH",
"349 -64 OFFCURVE",
"330 -84 OFFCURVE",
"330 -112 CURVE SMOOTH"
);
}
);
};
components = (
{
name = O;
},
{
name = dotbelowcomb;
transform = "{1, 0, 0, 1, 228, 0}";
},
{
name = circumflexcomb;
transform = "{1, 0, 0, 1, 341, 110}";
}
);
layerId = "5A4BD32C-A1D1-4EB1-A794-47BD06E3B809";
width = 680;
}
);
leftKerningGroup = O;
note = Ocircumflexdotbelow;
rightKerningGroup = O;
unicode = 1ED8;
},
{
glyphname = Ocircumflexgrave;
lastChange = "2018-02-18 14:34:41 +0000";
layers = (
{
background = {
paths = (
{
closed = 1;
nodes = (
"601 -10 OFFCURVE",
"719 124 OFFCURVE",
"719 350 CURVE SMOOTH",
"719 574 OFFCURVE",
"601 710 OFFCURVE",
"378 710 CURVE SMOOTH",
"154 710 OFFCURVE",
"36 574 OFFCURVE",
"36 350 CURVE SMOOTH",
"36 124 OFFCURVE",
"154 -10 OFFCURVE",
"378 -10 CURVE SMOOTH"
);
},
{
closed = 1;
nodes = (
"215 32 OFFCURVE",
"135 158 OFFCURVE",
"135 350 CURVE SMOOTH",
"135 541 OFFCURVE",
"215 668 OFFCURVE",
"377 668 CURVE SMOOTH",
"541 668 OFFCURVE",
"620 541 OFFCURVE",
"620 350 CURVE SMOOTH",
"620 158 OFFCURVE",
"541 32 OFFCURVE",
"377 32 CURVE SMOOTH"
);
},
{
closed = 1;
nodes = (
"285 914 LINE",
"190 1007 LINE SMOOTH",
"180 1017 OFFCURVE",
"163 1033 OFFCURVE",
"143 1033 CURVE SMOOTH",
"121 1033 OFFCURVE",
"110 1016 OFFCURVE",
"110 1002 CURVE SMOOTH",
"110 987 OFFCURVE",
"123 971 OFFCURVE",
"146 959 CURVE SMOOTH",
"268 892 LINE"
);
},
{
closed = 1;
nodes = (
"348 861 LINE SMOOTH",
"358 869 OFFCURVE",
"368 877 OFFCURVE",
"376 877 CURVE SMOOTH",
"382 877 OFFCURVE",
"390 872 OFFCURVE",
"399 866 CURVE",
"505 780 LINE",
"524 802 LINE",
"402 931 LINE",
"351 931 LINE",
"229 802 LINE",
"247 780 LINE"
);
}
);
};
components = (
{
name = O;
},
{
name = circumflexcomb;
transform = "{1, 0, 0, 1, 341, 110}";
},
{
name = gravecomb;
transform = "{1, 0, 0, 1, 340, 283}";
}
);
layerId = "5A4BD32C-A1D1-4EB1-A794-47BD06E3B809";
width = 680;
}
);
leftKerningGroup = O;
note = Ocircumflexgrave;
rightKerningGroup = O;
unicode = 1ED2;
},
{
glyphname = Ocircumflexhookabove;
lastChange = "2018-02-18 14:34:41 +0000";
layers = (
{
background = {
paths = (
{
closed = 1;
nodes = (
"601 -10 OFFCURVE",
"719 124 OFFCURVE",
"719 350 CURVE SMOOTH",
"719 574 OFFCURVE",
"601 710 OFFCURVE",
"378 710 CURVE SMOOTH",
"154 710 OFFCURVE",
"36 574 OFFCURVE",
"36 350 CURVE SMOOTH",
"36 124 OFFCURVE",
"154 -10 OFFCURVE",
"378 -10 CURVE SMOOTH"
);
},
{
closed = 1;
nodes = (
"215 32 OFFCURVE",
"135 158 OFFCURVE",
"135 350 CURVE SMOOTH",
"135 541 OFFCURVE",
"215 668 OFFCURVE",
"377 668 CURVE SMOOTH",
"541 668 OFFCURVE",
"620 541 OFFCURVE",
"620 350 CURVE SMOOTH",
"620 158 OFFCURVE",
"541 32 OFFCURVE",
"377 32 CURVE SMOOTH"
);
},
{
closed = 1;
nodes = (
"344 858 LINE",
"355 868 OFFCURVE",
"367 878 OFFCURVE",
"376 878 CURVE SMOOTH",
"382 878 OFFCURVE",
"390 873 OFFCURVE",
"399 867 CURVE",
"505 781 LINE",
"524 803 LINE",
"402 932 LINE",
"351 932 LINE",
"229 803 LINE",
"247 781 LINE"
);
},
{
closed = 1;
nodes = (
"551 898 LINE",
"532 905 OFFCURVE",
"522 912 OFFCURVE",
"522 926 CURVE SMOOTH",
"522 954 OFFCURVE",
"602 965 OFFCURVE",
"602 1010 CURVE SMOOTH",
"602 1047 OFFCURVE",
"560 1063 OFFCURVE",
"518 1063 CURVE SMOOTH",
"487 1063 OFFCURVE",
"442 1053 OFFCURVE",
"442 1022 CURVE SMOOTH",
"442 1010 OFFCURVE",
"453 1001 OFFCURVE",
"463 1001 CURVE SMOOTH",
"492 1001 OFFCURVE",
"479 1040 OFFCURVE",
"522 1040 CURVE SMOOTH",
"541 1040 OFFCURVE",
"552 1028 OFFCURVE",
"552 1013 CURVE SMOOTH",
"552 973 OFFCURVE",
"479 965 OFFCURVE",
"479 925 CURVE SMOOTH",
"479 901 OFFCURVE",
"495 880 OFFCURVE",
"542 880 CURVE"
);
}
);
};
components = (
{
name = O;
},
{
name = circumflexcomb;
transform = "{1, 0, 0, 1, 341, 110}";
},
{
name = hookabovecomb;
transform = "{1, 0, 0, 1, 171, 283}";
}
);
layerId = "5A4BD32C-A1D1-4EB1-A794-47BD06E3B809";
width = 680;
}
);
leftKerningGroup = O;
note = Ocircumflexhookabove;
rightKerningGroup = O;
unicode = 1ED4;
},
{
glyphname = Ocircumflextilde;
lastChange = "2018-02-18 14:34:41 +0000";
layers = (
{
background = {
paths = (
{
closed = 1;
nodes = (
"601 -10 OFFCURVE",
"719 124 OFFCURVE",
"719 350 CURVE SMOOTH",
"719 574 OFFCURVE",
"601 710 OFFCURVE",
"378 710 CURVE SMOOTH",
"154 710 OFFCURVE",
"36 574 OFFCURVE",
"36 350 CURVE SMOOTH",
"36 124 OFFCURVE",
"154 -10 OFFCURVE",
"378 -10 CURVE SMOOTH"
);
},
{
closed = 1;
nodes = (
"215 32 OFFCURVE",
"135 158 OFFCURVE",
"135 350 CURVE SMOOTH",
"135 541 OFFCURVE",
"215 668 OFFCURVE",
"377 668 CURVE SMOOTH",
"541 668 OFFCURVE",
"620 541 OFFCURVE",
"620 350 CURVE SMOOTH",
"620 158 OFFCURVE",
"541 32 OFFCURVE",
"377 32 CURVE SMOOTH"
);
},
{
closed = 1;
nodes = (
"348 862 LINE SMOOTH",
"358 870 OFFCURVE",
"368 878 OFFCURVE",
"376 878 CURVE SMOOTH",
"382 878 OFFCURVE",
"390 873 OFFCURVE",
"399 867 CURVE",
"505 781 LINE",
"524 803 LINE",
"402 932 LINE",
"351 932 LINE",
"229 803 LINE",
"247 781 LINE"
);
},
{
closed = 1;
nodes = (
"251 997 OFFCURVE",
"269 1018 OFFCURVE",
"300 1018 CURVE SMOOTH",
"349 1018 OFFCURVE",
"396 964 OFFCURVE",
"445 964 CURVE SMOOTH",
"498 964 OFFCURVE",
"527 1012 OFFCURVE",
"539 1063 CURVE",
"518 1075 LINE",
"505 1035 OFFCURVE",
"489 1012 OFFCURVE",
"456 1012 CURVE SMOOTH",
"409 1012 OFFCURVE",
"360 1065 OFFCURVE",
"311 1065 CURVE SMOOTH",
"260 1065 OFFCURVE",
"228 1021 OFFCURVE",
"218 970 CURVE",
"238 958 LINE"
);
}
);
};
components = (
{
name = O;
},
{
name = circumflexcomb;
transform = "{1, 0, 0, 1, 341, 110}";
},
{
name = tildecomb;
transform = "{1, 0, 0, 1, 340, 283}";
}
);
layerId = "5A4BD32C-A1D1-4EB1-A794-47BD06E3B809";
width = 680;
}
);
leftKerningGroup = O;
note = Ocircumflextilde;
rightKerningGroup = O;
unicode = 1ED6;
},
{
glyphname = Odieresis;
lastChange = "2018-02-18 14:34:41 +0000";
layers = (
{
background = {
paths = (
{
closed = 1;
nodes = (
"601 -10 OFFCURVE",
"719 124 OFFCURVE",
"719 350 CURVE SMOOTH",
"719 574 OFFCURVE",
"601 710 OFFCURVE",
"378 710 CURVE SMOOTH",
"154 710 OFFCURVE",
"36 574 OFFCURVE",
"36 350 CURVE SMOOTH",
"36 124 OFFCURVE",
"154 -10 OFFCURVE",
"378 -10 CURVE SMOOTH"
);
},
{
closed = 1;
nodes = (
"215 32 OFFCURVE",
"135 158 OFFCURVE",
"135 350 CURVE SMOOTH",
"135 541 OFFCURVE",
"215 668 OFFCURVE",
"377 668 CURVE SMOOTH",
"541 668 OFFCURVE",
"620 541 OFFCURVE",
"620 350 CURVE SMOOTH",
"620 158 OFFCURVE",
"541 32 OFFCURVE",
"377 32 CURVE SMOOTH"
);
},
{
closed = 1;
nodes = (
"298 781 OFFCURVE",
"316 800 OFFCURVE",
"316 827 CURVE SMOOTH",
"316 855 OFFCURVE",
"298 875 OFFCURVE",
"269 875 CURVE SMOOTH",
"241 875 OFFCURVE",
"223 855 OFFCURVE",
"223 827 CURVE SMOOTH",
"223 800 OFFCURVE",
"241 781 OFFCURVE",
"269 781 CURVE SMOOTH"
);
},
{
closed = 1;
nodes = (
"514 781 OFFCURVE",
"532 800 OFFCURVE",
"532 827 CURVE SMOOTH",
"532 855 OFFCURVE",
"514 875 OFFCURVE",
"485 875 CURVE SMOOTH",
"456 875 OFFCURVE",
"438 855 OFFCURVE",
"438 827 CURVE SMOOTH",
"438 800 OFFCURVE",
"456 781 OFFCURVE",
"485 781 CURVE SMOOTH"
);
}
);
};
components = (
{
name = O;
},
{
name = dieresiscomb;
transform = "{1, 0, 0, 1, 341, 110}";
}
);
layerId = "5A4BD32C-A1D1-4EB1-A794-47BD06E3B809";
width = 680;
}
);
leftKerningGroup = O;
note = Odieresis;
rightKerningGroup = O;
unicode = 00D6;
},
{
glyphname = Odotbelow;
lastChange = "2018-02-18 14:34:41 +0000";
layers = (
{
background = {
paths = (
{
closed = 1;
nodes = (
"36 124 OFFCURVE",
"154 -10 OFFCURVE",
"378 -10 CURVE SMOOTH",
"601 -10 OFFCURVE",
"719 124 OFFCURVE",
"719 350 CURVE SMOOTH",
"719 574 OFFCURVE",
"601 710 OFFCURVE",
"378 710 CURVE SMOOTH",
"154 710 OFFCURVE",
"36 574 OFFCURVE",
"36 350 CURVE SMOOTH"
);
},
{
closed = 1;
nodes = (
"135 541 OFFCURVE",
"215 668 OFFCURVE",
"377 668 CURVE SMOOTH",
"541 668 OFFCURVE",
"620 541 OFFCURVE",
"620 350 CURVE SMOOTH",
"620 158 OFFCURVE",
"541 32 OFFCURVE",
"377 32 CURVE SMOOTH",
"215 32 OFFCURVE",
"135 158 OFFCURVE",
"135 350 CURVE SMOOTH"
);
},
{
closed = 1;
nodes = (
"330 -140 OFFCURVE",
"349 -159 OFFCURVE",
"377 -159 CURVE SMOOTH",
"405 -159 OFFCURVE",
"423 -140 OFFCURVE",
"423 -112 CURVE SMOOTH",
"423 -84 OFFCURVE",
"405 -64 OFFCURVE",
"377 -64 CURVE SMOOTH",
"349 -64 OFFCURVE",
"330 -84 OFFCURVE",
"330 -112 CURVE SMOOTH"
);
}
);
};
components = (
{
name = O;
},
{
name = dotbelowcomb;
transform = "{1, 0, 0, 1, 228, 0}";
}
);
layerId = "5A4BD32C-A1D1-4EB1-A794-47BD06E3B809";
width = 680;
}
);
leftKerningGroup = O;
note = Odotbelow;
rightKerningGroup = O;
unicode = 1ECC;
},
{
glyphname = Ograve;
lastChange = "2018-02-18 14:34:41 +0000";
layers = (
{
background = {
paths = (
{
closed = 1;
nodes = (
"601 -10 OFFCURVE",
"719 124 OFFCURVE",
"719 350 CURVE SMOOTH",
"719 574 OFFCURVE",
"601 710 OFFCURVE",
"378 710 CURVE SMOOTH",
"154 710 OFFCURVE",
"36 574 OFFCURVE",
"36 350 CURVE SMOOTH",
"36 124 OFFCURVE",
"154 -10 OFFCURVE",
"378 -10 CURVE SMOOTH"
);
},
{
closed = 1;
nodes = (
"215 32 OFFCURVE",
"135 158 OFFCURVE",
"135 350 CURVE SMOOTH",
"135 541 OFFCURVE",
"215 668 OFFCURVE",
"377 668 CURVE SMOOTH",
"541 668 OFFCURVE",
"620 541 OFFCURVE",
"620 350 CURVE SMOOTH",
"620 158 OFFCURVE",
"541 32 OFFCURVE",
"377 32 CURVE SMOOTH"
);
},
{
closed = 1;
nodes = (
"459 807 LINE",
"344 913 LINE",
"335 922 OFFCURVE",
"319 937 OFFCURVE",
"299 937 CURVE SMOOTH",
"279 937 OFFCURVE",
"267 924 OFFCURVE",
"267 908 CURVE SMOOTH",
"267 890 OFFCURVE",
"279 876 OFFCURVE",
"298 865 CURVE SMOOTH",
"441 782 LINE"
);
}
);
};
components = (
{
name = O;
},
{
name = gravecomb;
transform = "{1, 0, 0, 1, 340, 110}";
}
);
layerId = "5A4BD32C-A1D1-4EB1-A794-47BD06E3B809";
width = 680;
}
);
leftKerningGroup = O;
note = Ograve;
rightKerningGroup = O;
unicode = 00D2;
},
{
glyphname = Ohookabove;
lastChange = "2018-02-18 14:34:41 +0000";
layers = (
{
background = {
paths = (
{
closed = 1;
nodes = (
"601 -10 OFFCURVE",
"719 124 OFFCURVE",
"719 350 CURVE SMOOTH",
"719 574 OFFCURVE",
"601 710 OFFCURVE",
"378 710 CURVE SMOOTH",
"154 710 OFFCURVE",
"36 574 OFFCURVE",
"36 350 CURVE SMOOTH",
"36 124 OFFCURVE",
"154 -10 OFFCURVE",
"378 -10 CURVE SMOOTH"
);
},
{
closed = 1;
nodes = (
"215 32 OFFCURVE",
"135 158 OFFCURVE",
"135 350 CURVE SMOOTH",
"135 541 OFFCURVE",
"215 668 OFFCURVE",
"377 668 CURVE SMOOTH",
"541 668 OFFCURVE",
"620 541 OFFCURVE",
"620 350 CURVE SMOOTH",
"620 158 OFFCURVE",
"541 32 OFFCURVE",
"377 32 CURVE SMOOTH"
);
},
{
closed = 1;
nodes = (
"407 798 LINE",
"388 805 OFFCURVE",
"376 811 OFFCURVE",
"376 828 CURVE SMOOTH",
"376 861 OFFCURVE",
"465 876 OFFCURVE",
"465 927 CURVE SMOOTH",
"465 969 OFFCURVE",
"429 991 OFFCURVE",
"376 991 CURVE SMOOTH",
"329 991 OFFCURVE",
"288 974 OFFCURVE",
"288 940 CURVE SMOOTH",
"288 923 OFFCURVE",
"296 915 OFFCURVE",
"311 915 CURVE SMOOTH",
"334 915 OFFCURVE",
"336 934 OFFCURVE",
"339 942 CURVE SMOOTH",
"344 956 OFFCURVE",
"361 962 OFFCURVE",
"377 962 CURVE SMOOTH",
"398 962 OFFCURVE",
"411 947 OFFCURVE",
"411 930 CURVE SMOOTH",
"411 885 OFFCURVE",
"329 874 OFFCURVE",
"329 828 CURVE SMOOTH",
"329 801 OFFCURVE",
"347 778 OFFCURVE",
"398 778 CURVE"
);
}
);
};
components = (
{
name = O;
},
{
name = hookabovecomb;
transform = "{1, 0, 0, 1, 171, 110}";
}
);
layerId = "5A4BD32C-A1D1-4EB1-A794-47BD06E3B809";
width = 680;
}
);
leftKerningGroup = O;
note = Ohookabove;
rightKerningGroup = O;
unicode = 1ECE;
},
{
glyphname = Ohornacute;
lastChange = "2018-02-18 14:34:41 +0000";
layers = (
{
background = {
paths = (
{
closed = 1;
nodes = (
"602 -10 OFFCURVE",
"720 124 OFFCURVE",
"720 350 CURVE SMOOTH",
"720 574 OFFCURVE",
"602 710 OFFCURVE",
"379 710 CURVE SMOOTH",
"155 710 OFFCURVE",
"37 574 OFFCURVE",
"37 350 CURVE SMOOTH",
"37 124 OFFCURVE",
"155 -10 OFFCURVE",
"379 -10 CURVE SMOOTH"
);
},
{
closed = 1;
nodes = (
"216 32 OFFCURVE",
"136 158 OFFCURVE",
"136 350 CURVE SMOOTH",
"136 541 OFFCURVE",
"216 668 OFFCURVE",
"378 668 CURVE SMOOTH",
"542 668 OFFCURVE",
"621 541 OFFCURVE",
"621 350 CURVE SMOOTH",
"621 158 OFFCURVE",
"542 32 OFFCURVE",
"378 32 CURVE SMOOTH"
);
},
{
closed = 1;
nodes = (
"424 864 LINE SMOOTH",
"446 876 OFFCURVE",
"458 889 OFFCURVE",
"458 906 CURVE SMOOTH",
"458 921 OFFCURVE",
"446 936 OFFCURVE",
"424 936 CURVE SMOOTH",
"403 936 OFFCURVE",
"388 920 OFFCURVE",
"380 913 CURVE SMOOTH",
"265 806 LINE",
"282 781 LINE"
);
},
{
closed = 1;
nodes = (
"691 567 OFFCURVE",
"756 632 OFFCURVE",
"756 705 CURVE SMOOTH",
"756 752 OFFCURVE",
"729 772 OFFCURVE",
"701 772 CURVE SMOOTH",
"672 772 OFFCURVE",
"656 752 OFFCURVE",
"656 729 CURVE SMOOTH",
"656 695 OFFCURVE",
"689 688 OFFCURVE",
"689 653 CURVE SMOOTH",
"689 617 OFFCURVE",
"658 588 OFFCURVE",
"623 568 CURVE",
"623 543 LINE"
);
}
);
};
components = (
{
name = Ohorn;
},
{
name = acutecomb;
transform = "{1, 0, 0, 1, 213, 110}";
}
);
layerId = "5A4BD32C-A1D1-4EB1-A794-47BD06E3B809";
width = 680;
}
);
leftKerningGroup = O;
note = Ohornacute;
rightKerningGroup = O;
unicode = 1EDA;
},
{
glyphname = Ohorndotbelow;
lastChange = "2018-02-18 14:34:41 +0000";
layers = (
{
background = {
paths = (
{
closed = 1;
nodes = (
"602 -10 OFFCURVE",
"720 124 OFFCURVE",
"720 350 CURVE SMOOTH",
"720 574 OFFCURVE",
"602 710 OFFCURVE",
"379 710 CURVE SMOOTH",
"155 710 OFFCURVE",
"37 574 OFFCURVE",
"37 350 CURVE SMOOTH",
"37 124 OFFCURVE",
"155 -10 OFFCURVE",
"379 -10 CURVE SMOOTH"
);
},
{
closed = 1;
nodes = (
"216 32 OFFCURVE",
"136 158 OFFCURVE",
"136 350 CURVE SMOOTH",
"136 541 OFFCURVE",
"216 668 OFFCURVE",
"378 668 CURVE SMOOTH",
"542 668 OFFCURVE",
"621 541 OFFCURVE",
"621 350 CURVE SMOOTH",
"621 158 OFFCURVE",
"542 32 OFFCURVE",
"378 32 CURVE SMOOTH"
);
},
{
closed = 1;
nodes = (
"691 567 OFFCURVE",
"756 632 OFFCURVE",
"756 705 CURVE SMOOTH",
"756 752 OFFCURVE",
"729 772 OFFCURVE",
"701 772 CURVE SMOOTH",
"672 772 OFFCURVE",
"656 752 OFFCURVE",
"656 729 CURVE SMOOTH",
"656 695 OFFCURVE",
"689 688 OFFCURVE",
"689 653 CURVE SMOOTH",
"689 617 OFFCURVE",
"658 588 OFFCURVE",
"623 568 CURVE",
"623 543 LINE"
);
},
{
closed = 1;
nodes = (
"395 -159 OFFCURVE",
"413 -140 OFFCURVE",
"413 -112 CURVE SMOOTH",
"413 -84 OFFCURVE",
"395 -64 OFFCURVE",
"367 -64 CURVE SMOOTH",
"339 -64 OFFCURVE",
"320 -84 OFFCURVE",
"320 -112 CURVE SMOOTH",
"320 -140 OFFCURVE",
"339 -159 OFFCURVE",
"367 -159 CURVE SMOOTH"
);
}
);
};
components = (
{
name = Ohorn;
},
{
name = dotbelowcomb;
transform = "{1, 0, 0, 1, 228, 0}";
}
);
layerId = "5A4BD32C-A1D1-4EB1-A794-47BD06E3B809";
width = 680;
}
);
leftKerningGroup = O;
note = Ohorndotbelow;
rightKerningGroup = O;
unicode = 1EE2;
},
{
glyphname = Ohorngrave;
lastChange = "2018-02-18 14:34:41 +0000";
layers = (
{
background = {
paths = (
{
closed = 1;
nodes = (
"602 -10 OFFCURVE",
"720 124 OFFCURVE",
"720 350 CURVE SMOOTH",
"720 574 OFFCURVE",
"602 710 OFFCURVE",
"379 710 CURVE SMOOTH",
"155 710 OFFCURVE",
"37 574 OFFCURVE",
"37 350 CURVE SMOOTH",
"37 124 OFFCURVE",
"155 -10 OFFCURVE",
"379 -10 CURVE SMOOTH"
);
},
{
closed = 1;
nodes = (
"216 32 OFFCURVE",
"136 158 OFFCURVE",
"136 350 CURVE SMOOTH",
"136 541 OFFCURVE",
"216 668 OFFCURVE",
"378 668 CURVE SMOOTH",
"542 668 OFFCURVE",
"621 541 OFFCURVE",
"621 350 CURVE SMOOTH",
"621 158 OFFCURVE",
"542 32 OFFCURVE",
"378 32 CURVE SMOOTH"
);
},
{
closed = 1;
nodes = (
"464 816 LINE",
"349 922 LINE",
"340 931 OFFCURVE",
"324 946 OFFCURVE",
"304 946 CURVE SMOOTH",
"284 946 OFFCURVE",
"272 933 OFFCURVE",
"272 917 CURVE SMOOTH",
"272 899 OFFCURVE",
"284 885 OFFCURVE",
"303 874 CURVE SMOOTH",
"446 791 LINE"
);
},
{
closed = 1;
nodes = (
"691 567 OFFCURVE",
"756 632 OFFCURVE",
"756 705 CURVE SMOOTH",
"756 752 OFFCURVE",
"729 772 OFFCURVE",
"701 772 CURVE SMOOTH",
"672 772 OFFCURVE",
"656 752 OFFCURVE",
"656 729 CURVE SMOOTH",
"656 695 OFFCURVE",
"689 688 OFFCURVE",
"689 653 CURVE SMOOTH",
"689 617 OFFCURVE",
"658 588 OFFCURVE",
"623 568 CURVE",
"623 543 LINE"
);
}
);
};
components = (
{
name = Ohorn;
},
{
name = gravecomb;
transform = "{1, 0, 0, 1, 340, 110}";
}
);
layerId = "5A4BD32C-A1D1-4EB1-A794-47BD06E3B809";
width = 680;
}
);
leftKerningGroup = O;
note = Ohorngrave;
rightKerningGroup = O;
unicode = 1EDC;
},
{
glyphname = Ohornhookabove;
lastChange = "2018-02-18 14:34:41 +0000";
layers = (
{
background = {
paths = (
{
closed = 1;
nodes = (
"602 -10 OFFCURVE",
"720 124 OFFCURVE",
"720 350 CURVE SMOOTH",
"720 574 OFFCURVE",
"602 710 OFFCURVE",
"379 710 CURVE SMOOTH",
"155 710 OFFCURVE",
"37 574 OFFCURVE",
"37 350 CURVE SMOOTH",
"37 124 OFFCURVE",
"155 -10 OFFCURVE",
"379 -10 CURVE SMOOTH"
);
},
{
closed = 1;
nodes = (
"216 32 OFFCURVE",
"136 158 OFFCURVE",
"136 350 CURVE SMOOTH",
"136 541 OFFCURVE",
"216 668 OFFCURVE",
"378 668 CURVE SMOOTH",
"542 668 OFFCURVE",
"621 541 OFFCURVE",
"621 350 CURVE SMOOTH",
"621 158 OFFCURVE",
"542 32 OFFCURVE",
"378 32 CURVE SMOOTH"
);
},
{
closed = 1;
nodes = (
"412 809 LINE",
"393 816 OFFCURVE",
"381 822 OFFCURVE",
"381 839 CURVE SMOOTH",
"381 872 OFFCURVE",
"470 887 OFFCURVE",
"470 938 CURVE SMOOTH",
"470 980 OFFCURVE",
"434 1002 OFFCURVE",
"381 1002 CURVE SMOOTH",
"334 1002 OFFCURVE",
"293 985 OFFCURVE",
"293 951 CURVE SMOOTH",
"293 934 OFFCURVE",
"301 926 OFFCURVE",
"316 926 CURVE SMOOTH",
"339 926 OFFCURVE",
"341 945 OFFCURVE",
"344 953 CURVE SMOOTH",
"349 967 OFFCURVE",
"366 973 OFFCURVE",
"382 973 CURVE SMOOTH",
"403 973 OFFCURVE",
"416 958 OFFCURVE",
"416 941 CURVE SMOOTH",
"416 896 OFFCURVE",
"334 885 OFFCURVE",
"334 839 CURVE SMOOTH",
"334 812 OFFCURVE",
"352 789 OFFCURVE",
"403 789 CURVE"
);
},
{
closed = 1;
nodes = (
"691 567 OFFCURVE",
"756 632 OFFCURVE",
"756 705 CURVE SMOOTH",
"756 752 OFFCURVE",
"729 772 OFFCURVE",
"701 772 CURVE SMOOTH",
"672 772 OFFCURVE",
"656 752 OFFCURVE",
"656 729 CURVE SMOOTH",
"656 695 OFFCURVE",
"689 688 OFFCURVE",
"689 653 CURVE SMOOTH",
"689 617 OFFCURVE",
"658 588 OFFCURVE",
"623 568 CURVE",
"623 543 LINE"
);
}
);
};
components = (
{
name = Ohorn;
},
{
name = hookabovecomb;
transform = "{1, 0, 0, 1, 171, 110}";
}
);
layerId = "5A4BD32C-A1D1-4EB1-A794-47BD06E3B809";
width = 680;
}
);
leftKerningGroup = O;
note = Ohornhookabove;
rightKerningGroup = O;
unicode = 1EDE;
},
{
glyphname = Ohorntilde;
lastChange = "2018-02-18 14:34:41 +0000";
layers = (
{
background = {
paths = (
{
closed = 1;
nodes = (
"602 -10 OFFCURVE",
"720 124 OFFCURVE",
"720 350 CURVE SMOOTH",
"720 574 OFFCURVE",
"602 710 OFFCURVE",
"379 710 CURVE SMOOTH",
"155 710 OFFCURVE",
"37 574 OFFCURVE",
"37 350 CURVE SMOOTH",
"37 124 OFFCURVE",
"155 -10 OFFCURVE",
"379 -10 CURVE SMOOTH"
);
},
{
closed = 1;
nodes = (
"216 32 OFFCURVE",
"136 158 OFFCURVE",
"136 350 CURVE SMOOTH",
"136 541 OFFCURVE",
"216 668 OFFCURVE",
"378 668 CURVE SMOOTH",
"542 668 OFFCURVE",
"621 541 OFFCURVE",
"621 350 CURVE SMOOTH",
"621 158 OFFCURVE",
"542 32 OFFCURVE",
"378 32 CURVE SMOOTH"
);
},
{
closed = 1;
nodes = (
"234 828 OFFCURVE",
"252 849 OFFCURVE",
"285 849 CURVE SMOOTH",
"336 849 OFFCURVE",
"385 795 OFFCURVE",
"436 795 CURVE SMOOTH",
"494 795 OFFCURVE",
"524 843 OFFCURVE",
"536 895 CURVE",
"515 906 LINE",
"499 866 OFFCURVE",
"483 844 OFFCURVE",
"449 844 CURVE SMOOTH",
"400 844 OFFCURVE",
"348 897 OFFCURVE",
"297 897 CURVE SMOOTH",
"243 897 OFFCURVE",
"210 853 OFFCURVE",
"198 801 CURVE",
"220 790 LINE"
);
},
{
closed = 1;
nodes = (
"691 567 OFFCURVE",
"756 632 OFFCURVE",
"756 705 CURVE SMOOTH",
"756 752 OFFCURVE",
"729 772 OFFCURVE",
"701 772 CURVE SMOOTH",
"672 772 OFFCURVE",
"656 752 OFFCURVE",
"656 729 CURVE SMOOTH",
"656 695 OFFCURVE",
"689 688 OFFCURVE",
"689 653 CURVE SMOOTH",
"689 617 OFFCURVE",
"658 588 OFFCURVE",
"623 568 CURVE",
"623 543 LINE"
);
}
);
};
components = (
{
name = Ohorn;
},
{
name = tildecomb;
transform = "{1, 0, 0, 1, 340, 110}";
}
);
layerId = "5A4BD32C-A1D1-4EB1-A794-47BD06E3B809";
width = 680;
}
);
leftKerningGroup = O;
note = Ohorntilde;
rightKerningGroup = O;
unicode = 1EE0;
},
{
glyphname = Ohungarumlaut;
lastChange = "2018-02-18 14:34:41 +0000";
layers = (
{
background = {
paths = (
{
closed = 1;
nodes = (
"601 -10 OFFCURVE",
"719 124 OFFCURVE",
"719 350 CURVE SMOOTH",
"719 574 OFFCURVE",
"601 710 OFFCURVE",
"378 710 CURVE SMOOTH",
"154 710 OFFCURVE",
"36 574 OFFCURVE",
"36 350 CURVE SMOOTH",
"36 124 OFFCURVE",
"154 -10 OFFCURVE",
"378 -10 CURVE SMOOTH"
);
},
{
closed = 1;
nodes = (
"215 32 OFFCURVE",
"135 158 OFFCURVE",
"135 350 CURVE SMOOTH",
"135 541 OFFCURVE",
"215 668 OFFCURVE",
"377 668 CURVE SMOOTH",
"541 668 OFFCURVE",
"620 541 OFFCURVE",
"620 350 CURVE SMOOTH",
"620 158 OFFCURVE",
"541 32 OFFCURVE",
"377 32 CURVE SMOOTH"
);
},
{
closed = 1;
nodes = (
"395 864 LINE SMOOTH",
"417 877 OFFCURVE",
"429 891 OFFCURVE",
"429 908 CURVE SMOOTH",
"429 922 OFFCURVE",
"421 937 OFFCURVE",
"399 937 CURVE SMOOTH",
"378 937 OFFCURVE",
"357 919 OFFCURVE",
"350 913 CURVE",
"236 807 LINE",
"253 782 LINE"
);
},
{
closed = 1;
nodes = (
"556 864 LINE SMOOTH",
"577 877 OFFCURVE",
"589 891 OFFCURVE",
"589 908 CURVE SMOOTH",
"589 922 OFFCURVE",
"578 937 OFFCURVE",
"556 937 CURVE SMOOTH",
"534 937 OFFCURVE",
"517 919 OFFCURVE",
"510 913 CURVE",
"396 807 LINE",
"414 782 LINE"
);
}
);
};
components = (
{
name = O;
},
{
name = hungarumlautcomb;
transform = "{1, 0, 0, 1, 340, 190}";
}
);
layerId = "5A4BD32C-A1D1-4EB1-A794-47BD06E3B809";
width = 680;
}
);
leftKerningGroup = O;
note = Ohungarumlaut;
rightKerningGroup = O;
unicode = 0150;
},
{
glyphname = Omacron;
lastChange = "2018-02-18 14:34:41 +0000";
layers = (
{
background = {
paths = (
{
closed = 1;
nodes = (
"601 -10 OFFCURVE",
"719 124 OFFCURVE",
"719 350 CURVE SMOOTH",
"719 574 OFFCURVE",
"601 710 OFFCURVE",
"378 710 CURVE SMOOTH",
"154 710 OFFCURVE",
"36 574 OFFCURVE",
"36 350 CURVE SMOOTH",
"36 124 OFFCURVE",
"154 -10 OFFCURVE",
"378 -10 CURVE SMOOTH"
);
},
{
closed = 1;
nodes = (
"215 32 OFFCURVE",
"135 158 OFFCURVE",
"135 350 CURVE SMOOTH",
"135 541 OFFCURVE",
"215 668 OFFCURVE",
"377 668 CURVE SMOOTH",
"541 668 OFFCURVE",
"620 541 OFFCURVE",
"620 350 CURVE SMOOTH",
"620 158 OFFCURVE",
"541 32 OFFCURVE",
"377 32 CURVE SMOOTH"
);
},
{
closed = 1;
nodes = (
"543 793 LINE",
"543 835 LINE",
"210 835 LINE",
"210 793 LINE"
);
}
);
};
components = (
{
name = O;
},
{
name = macroncomb;
transform = "{1, 0, 0, 1, 340, 110}";
}
);
layerId = "5A4BD32C-A1D1-4EB1-A794-47BD06E3B809";
width = 680;
}
);
leftKerningGroup = O;
note = Omacron;
rightKerningGroup = O;
unicode = 014C;
},
{
glyphname = Oslash;
lastChange = "2018-02-18 14:34:41 +0000";
layers = (
{
components = (
{
name = O;
}
);
layerId = "5A4BD32C-A1D1-4EB1-A794-47BD06E3B809";
paths = (
{
closed = 1;
nodes = (
"621 701 LINE",
"549 701 LINE",
"53 0 LINE",
"125 0 LINE"
);
}
);
width = 680;
}
);
note = Oslash;
unicode = 00D8;
},
{
glyphname = Thorn;
lastChange = "2018-02-18 14:34:41 +0000";
layers = (
{
hints = (
{
horizontal = 1;
origin = "{1, 3}";
target = "{0, 16}";
},
{
horizontal = 1;
origin = "{0, 8}";
target = "{0, 7}";
},
{
horizontal = 1;
origin = "{0, 16}";
target = "{0, 17}";
},
{
horizontal = 1;
origin = "{1, 2}";
target = "{0, 8}";
},
{
origin = "{1, 3}";
target = "{1, 0}";
},
{
origin = "{0, 12}";
target = "{0, 3}";
}
);
layerId = "5A4BD32C-A1D1-4EB1-A794-47BD06E3B809";
paths = (
{
closed = 1;
nodes = (
"327 128 LINE SMOOTH",
"517 128 OFFCURVE",
"588 230 OFFCURVE",
"588 363 CURVE SMOOTH",
"588 495 OFFCURVE",
"517 598 OFFCURVE",
"327 598 CURVE SMOOTH",
"146 598 LINE",
"146 537 LINE",
"327 537 LINE SMOOTH",
"464 537 OFFCURVE",
"514 467 OFFCURVE",
"514 363 CURVE SMOOTH",
"514 259 OFFCURVE",
"464 187 OFFCURVE",
"327 187 CURVE SMOOTH",
"146 187 LINE",
"146 128 LINE"
);
},
{
closed = 1;
nodes = (
"181 0 LINE",
"181 700 LINE",
"109 700 LINE",
"109 0 LINE"
);
}
);
width = 641;
}
);
note = Thorn;
unicode = 00DE;
},
{
glyphname = Germandbls;
lastChange = "2018-02-18 14:34:41 +0000";
layers = (
{
hints = (
{
horizontal = 1;
origin = "{0, 14}";
target = up;
type = BottomGhost;
},
{
horizontal = 1;
origin = "{0, 19}";
target = "{0, 10}";
},
{
horizontal = 1;
origin = "{0, 41}";
target = "{0, 32}";
},
{
origin = "{0, 14}";
target = "{0, 15}";
},
{
origin = "{0, 29}";
target = "{0, 2}";
}
);
layerId = "5A4BD32C-A1D1-4EB1-A794-47BD06E3B809";
paths = (
{
closed = 1;
nodes = (
"534 -10 OFFCURVE",
"636 60 OFFCURVE",
"636 194 CURVE SMOOTH",
"636 338 OFFCURVE",
"522 397 OFFCURVE",
"404 400 CURVE",
"418 366 LINE",
"591 539 LINE",
"570 634 OFFCURVE",
"481 709 OFFCURVE",
"335 708 CURVE SMOOTH",
"199 707 OFFCURVE",
"84 620 OFFCURVE",
"84 469 CURVE SMOOTH",
"84 0 LINE",
"156 0 LINE",
"156 469 LINE SMOOTH",
"156 579 OFFCURVE",
"234 646 OFFCURVE",
"335 646 CURVE SMOOTH",
"438 646 OFFCURVE",
"489 608 OFFCURVE",
"509 550 CURVE",
"346 388 LINE",
"346 366 OFFCURVE",
"360 346 OFFCURVE",
"384 346 CURVE SMOOTH",
"491 346 OFFCURVE",
"562 303 OFFCURVE",
"562 193 CURVE SMOOTH",
"562 98 OFFCURVE",
"502 52 OFFCURVE",
"412 52 CURVE SMOOTH",
"354 52 OFFCURVE",
"309 70 OFFCURVE",
"267 102 CURVE",
"238 97 OFFCURVE",
"237 50 OFFCURVE",
"261 31 CURVE SMOOTH",
"291 7 OFFCURVE",
"350 -10 OFFCURVE",
"408 -10 CURVE SMOOTH"
);
}
);
width = 700;
}
);
note = uni1E9E;
unicode = 1E9E;
},
{
color = 3;
glyphname = Schwa;
lastChange = "2018-02-18 14:34:41 +0000";
layers = (
{
hints = (
{
horizontal = 1;
origin = "{0, 30}";
target = "{0, 20}";
},
{
horizontal = 1;
origin = "{0, 23}";
target = "{0, 26}";
},
{
horizontal = 1;
origin = "{0, 5}";
target = "{0, 14}";
},
{
origin = "{0, 27}";
target = "{0, 23}";
},
{
origin = "{0, 17}";
target = "{0, 2}";
}
);
layerId = "5A4BD32C-A1D1-4EB1-A794-47BD06E3B809";
paths = (
{
closed = 1;
nodes = (
"510 -10 OFFCURVE",
"634 95 OFFCURVE",
"634 348 CURVE SMOOTH",
"634 602 OFFCURVE",
"501 707 OFFCURVE",
"329 707 CURVE SMOOTH",
"221 707 OFFCURVE",
"125 667 OFFCURVE",
"85 610 CURVE",
"110 566 OFFCURVE",
"137 568 OFFCURVE",
"162 589 CURVE SMOOTH",
"199 620 OFFCURVE",
"250 644 OFFCURVE",
"330 644 CURVE SMOOTH",
"463 644 OFFCURVE",
"560 560 OFFCURVE",
"560 348 CURVE SMOOTH",
"560 138 OFFCURVE",
"472 53 OFFCURVE",
"329 53 CURVE SMOOTH",
"201 53 OFFCURVE",
"114 131 OFFCURVE",
"114 301 CURVE",
"580 301 LINE",
"580 363 LINE",
"42 363 LINE",
"42 315 LINE SMOOTH",
"42 82 OFFCURVE",
"160 -10 OFFCURVE",
"328 -10 CURVE SMOOTH"
);
}
);
width = 692;
}
);
note = uni018F;
unicode = 018F;
},
{
glyphname = Tbar;
lastChange = "2018-02-18 14:34:41 +0000";
layers = (
{
components = (
{
name = T;
}
);
layerId = "5A4BD32C-A1D1-4EB1-A794-47BD06E3B809";
paths = (
{
closed = 1;
nodes = (
"434 305 LINE",
"434 363 LINE",
"102 363 LINE",
"102 305 LINE"
);
}
);
width = 533;
}
);
leftKerningGroup = T;
note = Tbar;
rightKerningGroup = T;
unicode = 0166;
},
{
glyphname = Uacute;
lastChange = "2018-02-18 14:34:41 +0000";
layers = (
{
background = {
paths = (
{
closed = 1;
nodes = (
"539 -10 OFFCURVE",
"636 51 OFFCURVE",
"636 204 CURVE SMOOTH",
"636 637 LINE SMOOTH",
"636 662 OFFCURVE",
"660 673 OFFCURVE",
"690 673 CURVE SMOOTH",
"713 673 LINE",
"713 700 LINE",
"510 700 LINE",
"510 673 LINE",
"532 673 LINE SMOOTH",
"564 673 OFFCURVE",
"586 662 OFFCURVE",
"586 637 CURVE SMOOTH",
"586 197 LINE SMOOTH",
"586 65 OFFCURVE",
"489 31 OFFCURVE",
"397 31 CURVE SMOOTH",
"290 31 OFFCURVE",
"203 63 OFFCURVE",
"203 197 CURVE SMOOTH",
"203 637 LINE SMOOTH",
"203 662 OFFCURVE",
"226 673 OFFCURVE",
"257 673 CURVE SMOOTH",
"280 673 LINE",
"280 700 LINE",
"28 700 LINE",
"28 673 LINE",
"51 673 LINE SMOOTH",
"82 673 OFFCURVE",
"105 662 OFFCURVE",
"105 637 CURVE SMOOTH",
"105 204 LINE SMOOTH",
"105 46 OFFCURVE",
"208 -10 OFFCURVE",
"375 -10 CURVE SMOOTH"
);
},
{
closed = 1;
nodes = (
"447 865 LINE SMOOTH",
"469 877 OFFCURVE",
"481 890 OFFCURVE",
"481 907 CURVE SMOOTH",
"481 922 OFFCURVE",
"469 937 OFFCURVE",
"447 937 CURVE SMOOTH",
"426 937 OFFCURVE",
"411 921 OFFCURVE",
"403 914 CURVE SMOOTH",
"288 807 LINE",
"305 782 LINE"
);
}
);
};
components = (
{
name = U;
},
{
name = acutecomb;
transform = "{1, 0, 0, 1, 227, 100}";
}
);
layerId = "5A4BD32C-A1D1-4EB1-A794-47BD06E3B809";
width = 708;
}
);
leftKerningGroup = U;
note = Uacute;
rightKerningGroup = U;
unicode = 00DA;
},
{
glyphname = Ubreve;
lastChange = "2018-02-18 14:34:41 +0000";
layers = (
{
background = {
paths = (
{
closed = 1;
nodes = (
"539 -10 OFFCURVE",
"636 51 OFFCURVE",
"636 204 CURVE SMOOTH",
"636 637 LINE SMOOTH",
"636 662 OFFCURVE",
"660 673 OFFCURVE",
"690 673 CURVE SMOOTH",
"713 673 LINE",
"713 700 LINE",
"510 700 LINE",
"510 673 LINE",
"532 673 LINE SMOOTH",
"564 673 OFFCURVE",
"586 662 OFFCURVE",
"586 637 CURVE SMOOTH",
"586 197 LINE SMOOTH",
"586 65 OFFCURVE",
"489 31 OFFCURVE",
"397 31 CURVE SMOOTH",
"290 31 OFFCURVE",
"203 63 OFFCURVE",
"203 197 CURVE SMOOTH",
"203 637 LINE SMOOTH",
"203 662 OFFCURVE",
"226 673 OFFCURVE",
"257 673 CURVE SMOOTH",
"280 673 LINE",
"280 700 LINE",
"28 700 LINE",
"28 673 LINE",
"51 673 LINE SMOOTH",
"82 673 OFFCURVE",
"105 662 OFFCURVE",
"105 637 CURVE SMOOTH",
"105 204 LINE SMOOTH",
"105 46 OFFCURVE",
"208 -10 OFFCURVE",
"375 -10 CURVE SMOOTH"
);
},
{
closed = 1;
nodes = (
"483 774 OFFCURVE",
"525 830 OFFCURVE",
"529 905 CURVE",
"496 905 LINE",
"490 846 OFFCURVE",
"448 820 OFFCURVE",
"384 820 CURVE SMOOTH",
"320 820 OFFCURVE",
"277 846 OFFCURVE",
"270 905 CURVE",
"237 905 LINE",
"241 827 OFFCURVE",
"283 774 OFFCURVE",
"384 774 CURVE SMOOTH"
);
}
);
};
components = (
{
name = U;
},
{
name = brevecomb;
transform = "{1, 0, 0, 1, 354, 100}";
}
);
layerId = "5A4BD32C-A1D1-4EB1-A794-47BD06E3B809";
width = 708;
}
);
leftKerningGroup = U;
note = Ubreve;
rightKerningGroup = U;
unicode = 016C;
},
{
glyphname = Ucaron;
lastChange = "2018-02-18 14:34:41 +0000";
layers = (
{
background = {
paths = (
{
closed = 1;
nodes = (
"539 -10 OFFCURVE",
"636 51 OFFCURVE",
"636 204 CURVE SMOOTH",
"636 637 LINE SMOOTH",
"636 662 OFFCURVE",
"660 673 OFFCURVE",
"690 673 CURVE SMOOTH",
"713 673 LINE",
"713 700 LINE",
"510 700 LINE",
"510 673 LINE",
"532 673 LINE SMOOTH",
"564 673 OFFCURVE",
"586 662 OFFCURVE",
"586 637 CURVE SMOOTH",
"586 197 LINE SMOOTH",
"586 65 OFFCURVE",
"489 31 OFFCURVE",
"397 31 CURVE SMOOTH",
"290 31 OFFCURVE",
"203 63 OFFCURVE",
"203 197 CURVE SMOOTH",
"203 637 LINE SMOOTH",
"203 662 OFFCURVE",
"226 673 OFFCURVE",
"257 673 CURVE SMOOTH",
"280 673 LINE",
"280 700 LINE",
"28 700 LINE",
"28 673 LINE",
"51 673 LINE SMOOTH",
"82 673 OFFCURVE",
"105 662 OFFCURVE",
"105 637 CURVE SMOOTH",
"105 204 LINE SMOOTH",
"105 46 OFFCURVE",
"208 -10 OFFCURVE",
"375 -10 CURVE SMOOTH"
);
},
{
closed = 1;
nodes = (
"397 782 LINE",
"521 911 LINE",
"502 932 LINE",
"394 847 LINE",
"386 840 OFFCURVE",
"377 836 OFFCURVE",
"371 836 CURVE SMOOTH",
"365 836 OFFCURVE",
"357 840 OFFCURVE",
"347 847 CURVE",
"239 932 LINE",
"220 911 LINE",
"344 782 LINE"
);
}
);
};
components = (
{
name = U;
},
{
name = caroncomb;
transform = "{1, 0, 0, 1, 356, 100}";
}
);
layerId = "5A4BD32C-A1D1-4EB1-A794-47BD06E3B809";
width = 708;
}
);
leftKerningGroup = U;
note = Ucaron;
rightKerningGroup = U;
unicode = 01D3;
},
{
glyphname = Ucircumflex;
lastChange = "2018-02-18 14:34:41 +0000";
layers = (
{
background = {
paths = (
{
closed = 1;
nodes = (
"539 -10 OFFCURVE",
"636 51 OFFCURVE",
"636 204 CURVE SMOOTH",
"636 637 LINE SMOOTH",
"636 662 OFFCURVE",
"660 673 OFFCURVE",
"690 673 CURVE SMOOTH",
"713 673 LINE",
"713 700 LINE",
"510 700 LINE",
"510 673 LINE",
"532 673 LINE SMOOTH",
"564 673 OFFCURVE",
"586 662 OFFCURVE",
"586 637 CURVE SMOOTH",
"586 197 LINE SMOOTH",
"586 65 OFFCURVE",
"489 31 OFFCURVE",
"397 31 CURVE SMOOTH",
"290 31 OFFCURVE",
"203 63 OFFCURVE",
"203 197 CURVE SMOOTH",
"203 637 LINE SMOOTH",
"203 662 OFFCURVE",
"226 673 OFFCURVE",
"257 673 CURVE SMOOTH",
"280 673 LINE",
"280 700 LINE",
"28 700 LINE",
"28 673 LINE",
"51 673 LINE SMOOTH",
"82 673 OFFCURVE",
"105 662 OFFCURVE",
"105 637 CURVE SMOOTH",
"105 204 LINE SMOOTH",
"105 46 OFFCURVE",
"208 -10 OFFCURVE",
"375 -10 CURVE SMOOTH"
);
},
{
closed = 1;
nodes = (
"360 868 LINE SMOOTH",
"368 874 OFFCURVE",
"378 879 OFFCURVE",
"384 879 CURVE SMOOTH",
"390 879 OFFCURVE",
"398 874 OFFCURVE",
"407 868 CURVE",
"515 782 LINE",
"534 803 LINE",
"410 932 LINE",
"357 932 LINE",
"233 803 LINE",
"252 782 LINE"
);
}
);
};
components = (
{
name = U;
},
{
name = circumflexcomb;
transform = "{1, 0, 0, 1, 355, 100}";
}
);
layerId = "5A4BD32C-A1D1-4EB1-A794-47BD06E3B809";
width = 708;
}
);
leftKerningGroup = U;
note = Ucircumflex;
rightKerningGroup = U;
unicode = 00DB;
},
{
glyphname = Udieresis;
lastChange = "2018-02-18 14:34:41 +0000";
layers = (
{
background = {
paths = (
{
closed = 1;
nodes = (
"539 -10 OFFCURVE",
"636 51 OFFCURVE",
"636 204 CURVE SMOOTH",
"636 637 LINE SMOOTH",
"636 662 OFFCURVE",
"660 673 OFFCURVE",
"690 673 CURVE SMOOTH",
"713 673 LINE",
"713 700 LINE",
"510 700 LINE",
"510 673 LINE",
"532 673 LINE SMOOTH",
"564 673 OFFCURVE",
"586 662 OFFCURVE",
"586 637 CURVE SMOOTH",
"586 197 LINE SMOOTH",
"586 65 OFFCURVE",
"489 31 OFFCURVE",
"397 31 CURVE SMOOTH",
"290 31 OFFCURVE",
"203 63 OFFCURVE",
"203 197 CURVE SMOOTH",
"203 637 LINE SMOOTH",
"203 662 OFFCURVE",
"226 673 OFFCURVE",
"257 673 CURVE SMOOTH",
"280 673 LINE",
"280 700 LINE",
"28 700 LINE",
"28 673 LINE",
"51 673 LINE SMOOTH",
"82 673 OFFCURVE",
"105 662 OFFCURVE",
"105 637 CURVE SMOOTH",
"105 204 LINE SMOOTH",
"105 46 OFFCURVE",
"208 -10 OFFCURVE",
"375 -10 CURVE SMOOTH"
);
},
{
closed = 1;
nodes = (
"304 781 OFFCURVE",
"322 800 OFFCURVE",
"322 827 CURVE SMOOTH",
"322 855 OFFCURVE",
"304 875 OFFCURVE",
"275 875 CURVE SMOOTH",
"247 875 OFFCURVE",
"229 855 OFFCURVE",
"229 827 CURVE SMOOTH",
"229 800 OFFCURVE",
"247 781 OFFCURVE",
"275 781 CURVE SMOOTH"
);
},
{
closed = 1;
nodes = (
"520 781 OFFCURVE",
"538 800 OFFCURVE",
"538 827 CURVE SMOOTH",
"538 855 OFFCURVE",
"520 875 OFFCURVE",
"491 875 CURVE SMOOTH",
"462 875 OFFCURVE",
"444 855 OFFCURVE",
"444 827 CURVE SMOOTH",
"444 800 OFFCURVE",
"462 781 OFFCURVE",
"491 781 CURVE SMOOTH"
);
}
);
};
components = (
{
name = U;
},
{
name = dieresiscomb;
transform = "{1, 0, 0, 1, 355, 100}";
}
);
layerId = "5A4BD32C-A1D1-4EB1-A794-47BD06E3B809";
width = 708;
}
);
leftKerningGroup = U;
note = Udieresis;
rightKerningGroup = U;
unicode = 00DC;
},
{
glyphname = Udieresisacute;
lastChange = "2018-02-18 14:34:41 +0000";
layers = (
{
background = {
paths = (
{
closed = 1;
nodes = (
"539 -10 OFFCURVE",
"636 51 OFFCURVE",
"636 204 CURVE SMOOTH",
"636 637 LINE SMOOTH",
"636 662 OFFCURVE",
"660 673 OFFCURVE",
"690 673 CURVE SMOOTH",
"713 673 LINE",
"713 700 LINE",
"510 700 LINE",
"510 673 LINE",
"532 673 LINE SMOOTH",
"564 673 OFFCURVE",
"586 662 OFFCURVE",
"586 637 CURVE SMOOTH",
"586 197 LINE SMOOTH",
"586 65 OFFCURVE",
"489 31 OFFCURVE",
"397 31 CURVE SMOOTH",
"290 31 OFFCURVE",
"203 63 OFFCURVE",
"203 197 CURVE SMOOTH",
"203 637 LINE SMOOTH",
"203 662 OFFCURVE",
"226 673 OFFCURVE",
"257 673 CURVE SMOOTH",
"280 673 LINE",
"280 700 LINE",
"28 700 LINE",
"28 673 LINE",
"51 673 LINE SMOOTH",
"82 673 OFFCURVE",
"105 662 OFFCURVE",
"105 637 CURVE SMOOTH",
"105 204 LINE SMOOTH",
"105 46 OFFCURVE",
"208 -10 OFFCURVE",
"375 -10 CURVE SMOOTH"
);
},
{
closed = 1;
nodes = (
"291 780 OFFCURVE",
"310 799 OFFCURVE",
"310 827 CURVE SMOOTH",
"310 855 OFFCURVE",
"291 875 OFFCURVE",
"262 875 CURVE SMOOTH",
"235 875 OFFCURVE",
"216 855 OFFCURVE",
"216 827 CURVE SMOOTH",
"216 799 OFFCURVE",
"235 780 OFFCURVE",
"262 780 CURVE SMOOTH"
);
},
{
closed = 1;
nodes = (
"507 780 OFFCURVE",
"526 799 OFFCURVE",
"526 827 CURVE SMOOTH",
"526 855 OFFCURVE",
"507 875 OFFCURVE",
"479 875 CURVE SMOOTH",
"451 875 OFFCURVE",
"432 855 OFFCURVE",
"432 827 CURVE SMOOTH",
"432 799 OFFCURVE",
"451 780 OFFCURVE",
"479 780 CURVE SMOOTH"
);
},
{
closed = 1;
nodes = (
"481 969 LINE SMOOTH",
"502 981 OFFCURVE",
"512 993 OFFCURVE",
"512 1009 CURVE SMOOTH",
"512 1024 OFFCURVE",
"503 1037 OFFCURVE",
"481 1037 CURVE SMOOTH",
"460 1037 OFFCURVE",
"442 1020 OFFCURVE",
"435 1013 CURVE SMOOTH",
"344 924 LINE",
"362 899 LINE"
);
}
);
};
components = (
{
name = U;
},
{
name = dieresisacute;
transform = "{1, 0, 0, 1, 109, 100}";
}
);
layerId = "5A4BD32C-A1D1-4EB1-A794-47BD06E3B809";
width = 708;
}
);
leftKerningGroup = U;
note = Udieresisacute;
rightKerningGroup = U;
unicode = 01D7;
},
{
glyphname = Udieresiscaron;
lastChange = "2018-02-18 14:34:41 +0000";
layers = (
{
background = {
paths = (
{
closed = 1;
nodes = (
"539 -10 OFFCURVE",
"636 51 OFFCURVE",
"636 204 CURVE SMOOTH",
"636 637 LINE SMOOTH",
"636 662 OFFCURVE",
"660 673 OFFCURVE",
"690 673 CURVE SMOOTH",
"713 673 LINE",
"713 700 LINE",
"510 700 LINE",
"510 673 LINE",
"532 673 LINE SMOOTH",
"564 673 OFFCURVE",
"586 662 OFFCURVE",
"586 637 CURVE SMOOTH",
"586 197 LINE SMOOTH",
"586 65 OFFCURVE",
"489 31 OFFCURVE",
"397 31 CURVE SMOOTH",
"290 31 OFFCURVE",
"203 63 OFFCURVE",
"203 197 CURVE SMOOTH",
"203 637 LINE SMOOTH",
"203 662 OFFCURVE",
"226 673 OFFCURVE",
"257 673 CURVE SMOOTH",
"280 673 LINE",
"280 700 LINE",
"28 700 LINE",
"28 673 LINE",
"51 673 LINE SMOOTH",
"82 673 OFFCURVE",
"105 662 OFFCURVE",
"105 637 CURVE SMOOTH",
"105 204 LINE SMOOTH",
"105 46 OFFCURVE",
"208 -10 OFFCURVE",
"375 -10 CURVE SMOOTH"
);
},
{
closed = 1;
nodes = (
"296 780 OFFCURVE",
"315 799 OFFCURVE",
"315 827 CURVE SMOOTH",
"315 855 OFFCURVE",
"296 875 OFFCURVE",
"267 875 CURVE SMOOTH",
"240 875 OFFCURVE",
"221 855 OFFCURVE",
"221 827 CURVE SMOOTH",
"221 799 OFFCURVE",
"240 780 OFFCURVE",
"267 780 CURVE SMOOTH"
);
},
{
closed = 1;
nodes = (
"512 780 OFFCURVE",
"531 799 OFFCURVE",
"531 827 CURVE SMOOTH",
"531 855 OFFCURVE",
"512 875 OFFCURVE",
"484 875 CURVE SMOOTH",
"456 875 OFFCURVE",
"437 855 OFFCURVE",
"437 827 CURVE SMOOTH",
"437 799 OFFCURVE",
"456 780 OFFCURVE",
"484 780 CURVE SMOOTH"
);
},
{
closed = 1;
nodes = (
"401 911 LINE",
"523 1035 LINE",
"505 1056 LINE",
"404 978 LINE",
"394 971 OFFCURVE",
"385 963 OFFCURVE",
"376 963 CURVE SMOOTH",
"369 963 OFFCURVE",
"357 971 OFFCURVE",
"347 978 CURVE",
"246 1056 LINE",
"228 1035 LINE",
"350 911 LINE"
);
}
);
};
components = (
{
name = U;
},
{
name = dieresiscaron;
transform = "{1, 0, 0, 1, 354, 100}";
}
);
layerId = "5A4BD32C-A1D1-4EB1-A794-47BD06E3B809";
width = 708;
}
);
leftKerningGroup = U;
note = Udieresiscaron;
rightKerningGroup = U;
unicode = 01D9;
},
{
glyphname = Udieresisgrave;
lastChange = "2018-02-18 14:34:41 +0000";
layers = (
{
background = {
paths = (
{
closed = 1;
nodes = (
"539 -10 OFFCURVE",
"636 51 OFFCURVE",
"636 204 CURVE SMOOTH",
"636 637 LINE SMOOTH",
"636 662 OFFCURVE",
"660 673 OFFCURVE",
"690 673 CURVE SMOOTH",
"713 673 LINE",
"713 700 LINE",
"510 700 LINE",
"510 673 LINE",
"532 673 LINE SMOOTH",
"564 673 OFFCURVE",
"586 662 OFFCURVE",
"586 637 CURVE SMOOTH",
"586 197 LINE SMOOTH",
"586 65 OFFCURVE",
"489 31 OFFCURVE",
"397 31 CURVE SMOOTH",
"290 31 OFFCURVE",
"203 63 OFFCURVE",
"203 197 CURVE SMOOTH",
"203 637 LINE SMOOTH",
"203 662 OFFCURVE",
"226 673 OFFCURVE",
"257 673 CURVE SMOOTH",
"280 673 LINE",
"280 700 LINE",
"28 700 LINE",
"28 673 LINE",
"51 673 LINE SMOOTH",
"82 673 OFFCURVE",
"105 662 OFFCURVE",
"105 637 CURVE SMOOTH",
"105 204 LINE SMOOTH",
"105 46 OFFCURVE",
"208 -10 OFFCURVE",
"375 -10 CURVE SMOOTH"
);
},
{
closed = 1;
nodes = (
"296 780 OFFCURVE",
"315 799 OFFCURVE",
"315 827 CURVE SMOOTH",
"315 855 OFFCURVE",
"296 875 OFFCURVE",
"267 875 CURVE SMOOTH",
"240 875 OFFCURVE",
"221 855 OFFCURVE",
"221 827 CURVE SMOOTH",
"221 799 OFFCURVE",
"240 780 OFFCURVE",
"267 780 CURVE SMOOTH"
);
},
{
closed = 1;
nodes = (
"403 924 LINE",
"312 1013 LINE SMOOTH",
"305 1020 OFFCURVE",
"288 1036 OFFCURVE",
"267 1036 CURVE SMOOTH",
"245 1036 OFFCURVE",
"235 1024 OFFCURVE",
"235 1009 CURVE SMOOTH",
"235 993 OFFCURVE",
"245 981 OFFCURVE",
"266 969 CURVE SMOOTH",
"385 899 LINE"
);
},
{
closed = 1;
nodes = (
"512 780 OFFCURVE",
"531 799 OFFCURVE",
"531 827 CURVE SMOOTH",
"531 855 OFFCURVE",
"512 875 OFFCURVE",
"484 875 CURVE SMOOTH",
"456 875 OFFCURVE",
"437 855 OFFCURVE",
"437 827 CURVE SMOOTH",
"437 799 OFFCURVE",
"456 780 OFFCURVE",
"484 780 CURVE SMOOTH"
);
}
);
};
components = (
{
name = U;
},
{
name = dieresisgrave;
transform = "{1, 0, 0, 1, 109, 100}";
}
);
layerId = "5A4BD32C-A1D1-4EB1-A794-47BD06E3B809";
width = 708;
}
);
leftKerningGroup = U;
note = Udieresisgrave;
rightKerningGroup = U;
unicode = 01DB;
},
{
glyphname = Udieresismacron;
lastChange = "2018-02-18 14:34:41 +0000";
layers = (
{
background = {
paths = (
{
closed = 1;
nodes = (
"539 -10 OFFCURVE",
"636 51 OFFCURVE",
"636 204 CURVE SMOOTH",
"636 637 LINE SMOOTH",
"636 662 OFFCURVE",
"660 673 OFFCURVE",
"690 673 CURVE SMOOTH",
"713 673 LINE",
"713 700 LINE",
"510 700 LINE",
"510 673 LINE",
"532 673 LINE SMOOTH",
"564 673 OFFCURVE",
"586 662 OFFCURVE",
"586 637 CURVE SMOOTH",
"586 197 LINE SMOOTH",
"586 65 OFFCURVE",
"489 31 OFFCURVE",
"397 31 CURVE SMOOTH",
"290 31 OFFCURVE",
"203 63 OFFCURVE",
"203 197 CURVE SMOOTH",
"203 637 LINE SMOOTH",
"203 662 OFFCURVE",
"226 673 OFFCURVE",
"257 673 CURVE SMOOTH",
"280 673 LINE",
"280 700 LINE",
"28 700 LINE",
"28 673 LINE",
"51 673 LINE SMOOTH",
"82 673 OFFCURVE",
"105 662 OFFCURVE",
"105 637 CURVE SMOOTH",
"105 204 LINE SMOOTH",
"105 46 OFFCURVE",
"208 -10 OFFCURVE",
"375 -10 CURVE SMOOTH"
);
},
{
closed = 1;
nodes = (
"291 781 OFFCURVE",
"309 800 OFFCURVE",
"309 827 CURVE SMOOTH",
"309 855 OFFCURVE",
"291 875 OFFCURVE",
"262 875 CURVE SMOOTH",
"234 875 OFFCURVE",
"216 855 OFFCURVE",
"216 827 CURVE SMOOTH",
"216 800 OFFCURVE",
"234 781 OFFCURVE",
"262 781 CURVE SMOOTH"
);
},
{
closed = 1;
nodes = (
"507 781 OFFCURVE",
"525 800 OFFCURVE",
"525 827 CURVE SMOOTH",
"525 855 OFFCURVE",
"507 875 OFFCURVE",
"478 875 CURVE SMOOTH",
"449 875 OFFCURVE",
"431 855 OFFCURVE",
"431 827 CURVE SMOOTH",
"431 800 OFFCURVE",
"449 781 OFFCURVE",
"478 781 CURVE SMOOTH"
);
},
{
closed = 1;
nodes = (
"537 928 LINE",
"537 970 LINE",
"204 970 LINE",
"204 928 LINE"
);
}
);
};
components = (
{
name = U;
},
{
name = dieresis;
transform = "{1, 0, 0, 1, 148, 230}";
},
{
alignment = -1;
name = macron;
transform = "{1, 0, 0, 1, 145, 356}";
}
);
layerId = "5A4BD32C-A1D1-4EB1-A794-47BD06E3B809";
width = 742;
}
);
leftKerningGroup = U;
note = Udieresismacron;
rightKerningGroup = U;
unicode = 01D5;
},
{
glyphname = "alpha-latin";
lastChange = "2018-02-18 14:34:41 +0000";
layers = (
{
layerId = "5A4BD32C-A1D1-4EB1-A794-47BD06E3B809";
paths = (
{
closed = 1;
nodes = (
"363 -12 OFFCURVE",
"410 20 OFFCURVE",
"456 81 CURVE",
"454 154 LINE",
"413 87 OFFCURVE",
"362 44 OFFCURVE",
"278 44 CURVE SMOOTH",
"172 44 OFFCURVE",
"110 122 OFFCURVE",
"110 272 CURVE SMOOTH",
"110 419 OFFCURVE",
"176 506 OFFCURVE",
"292 506 CURVE SMOOTH",
"357 506 OFFCURVE",
"429 470 OFFCURVE",
"451 431 CURVE",
"455 498 LINE",
"436 521 OFFCURVE",
"368 560 OFFCURVE",
"292 560 CURVE SMOOTH",
"136 560 OFFCURVE",
"40 451 OFFCURVE",
"40 272 CURVE SMOOTH",
"40 69 OFFCURVE",
"151 -12 OFFCURVE",
"273 -12 CURVE SMOOTH"
);
},
{
closed = 1;
nodes = (
"488 -4 OFFCURVE",
"504 0 OFFCURVE",
"521 8 CURVE",
"515 29 OFFCURVE",
"507 73 OFFCURVE",
"507 128 CURVE SMOOTH",
"507 550 LINE",
"439 550 LINE",
"439 124 LINE SMOOTH",
"439 54 OFFCURVE",
"447 23 OFFCURVE",
"455 8 CURVE SMOOTH",
"459 0 OFFCURVE",
"466 -4 OFFCURVE",
"475 -4 CURVE SMOOTH"
);
}
);
width = 598;
}
);
leftKerningGroup = a;
leftMetricsKey = d;
note = ascript;
rightKerningGroup = a;
rightMetricsKey = d;
unicode = 0251;
},
{
glyphname = ae;
lastChange = "2018-02-18 14:34:41 +0000";
layers = (
{
layerId = "5A4BD32C-A1D1-4EB1-A794-47BD06E3B809";
paths = (
{
closed = 1;
nodes = (
"476 137 LINE",
"476 373 LINE SMOOTH",
"476 489 OFFCURVE",
"399 560 OFFCURVE",
"276 560 CURVE SMOOTH",
"177 560 OFFCURVE",
"103 513 OFFCURVE",
"51 451 CURVE",
"70 424 OFFCURVE",
"95 408 OFFCURVE",
"111 424 CURVE SMOOTH",
"151 464 OFFCURVE",
"195 504 OFFCURVE",
"273 504 CURVE SMOOTH",
"366 504 OFFCURVE",
"408 459 OFFCURVE",
"408 373 CURVE SMOOTH",
"408 116 LINE"
);
},
{
closed = 1;
nodes = (
"321 -12 OFFCURVE",
"405 41 OFFCURVE",
"465 137 CURVE",
"422 185 LINE",
"387 100 OFFCURVE",
"306 44 OFFCURVE",
"223 44 CURVE SMOOTH",
"155 44 OFFCURVE",
"120 74 OFFCURVE",
"120 133 CURVE SMOOTH",
"120 221 OFFCURVE",
"206 269 OFFCURVE",
"422 276 CURVE",
"422 332 LINE",
"186 332 OFFCURVE",
"50 269 OFFCURVE",
"50 132 CURVE SMOOTH",
"50 39 OFFCURVE",
"126 -12 OFFCURVE",
"218 -12 CURVE SMOOTH"
);
},
{
closed = 1;
nodes = (
"768 -12 OFFCURVE",
"842 43 OFFCURVE",
"867 128 CURVE",
"839 147 OFFCURVE",
"813 158 OFFCURVE",
"802 134 CURVE SMOOTH",
"775 76 OFFCURVE",
"735 46 OFFCURVE",
"648 46 CURVE SMOOTH",
"537 46 OFFCURVE",
"478 123 OFFCURVE",
"478 278 CURVE SMOOTH",
"478 424 OFFCURVE",
"532 506 OFFCURVE",
"644 506 CURVE SMOOTH",
"761 506 OFFCURVE",
"808 426 OFFCURVE",
"808 322 CURVE",
"460 322 LINE",
"460 268 LINE",
"878 268 LINE",
"878 450 OFFCURVE",
"810 560 OFFCURVE",
"647 560 CURVE SMOOTH",
"509 560 OFFCURVE",
"408 471 OFFCURVE",
"408 275 CURVE SMOOTH",
"408 79 OFFCURVE",
"506 -12 OFFCURVE",
"648 -12 CURVE SMOOTH"
);
}
);
width = 897;
}
);
note = ae;
unicode = 00E6;
},
{
glyphname = eth;
lastChange = "2018-02-18 14:34:41 +0000";
layers = (
{
hints = (
{
horizontal = 1;
origin = "{0, 19}";
target = "{1, 11}";
},
{
horizontal = 1;
origin = "{1, 5}";
target = "{0, 13}";
},
{
horizontal = 1;
origin = "{0, 6}";
target = down;
type = TopGhost;
},
{
origin = "{0, 16}";
target = "{1, 2}";
},
{
origin = "{1, 8}";
target = "{0, 2}";
}
);
layerId = "5A4BD32C-A1D1-4EB1-A794-47BD06E3B809";
paths = (
{
closed = 1;
nodes = (
"452 -12 OFFCURVE",
"507 130 OFFCURVE",
"507 275 CURVE SMOOTH",
"507 493 OFFCURVE",
"431 650 OFFCURVE",
"218 794 CURVE",
"172 747 LINE",
"266 682 OFFCURVE",
"344 612 OFFCURVE",
"394 501 CURVE",
"411 513 LINE",
"382 540 OFFCURVE",
"341 560 OFFCURVE",
"274 560 CURVE SMOOTH",
"96 560 OFFCURVE",
"40 409 OFFCURVE",
"40 275 CURVE SMOOTH",
"40 130 OFFCURVE",
"96 -12 OFFCURVE",
"274 -12 CURVE SMOOTH"
);
},
{
closed = 1;
nodes = (
"154 42 OFFCURVE",
"110 130 OFFCURVE",
"110 275 CURVE SMOOTH",
"110 411 OFFCURVE",
"154 506 OFFCURVE",
"274 506 CURVE SMOOTH",
"393 506 OFFCURVE",
"437 411 OFFCURVE",
"437 275 CURVE SMOOTH",
"437 130 OFFCURVE",
"393 42 OFFCURVE",
"274 42 CURVE SMOOTH"
);
},
{
closed = 1;
nodes = (
"449 743 LINE",
"416 795 LINE",
"169 646 LINE",
"203 595 LINE"
);
}
);
width = 547;
}
);
note = eth;
unicode = 00F0;
},
{
glyphname = dcroat;
lastChange = "2018-02-18 14:34:41 +0000";
layers = (
{
components = (
{
name = d;
}
);
layerId = "5A4BD32C-A1D1-4EB1-A794-47BD06E3B809";
paths = (
{
closed = 1;
nodes = (
"602 650 LINE",
"602 700 LINE",
"291 700 LINE",
"291 650 LINE"
);
}
);
width = 602;
}
);
note = dslash;
unicode = 0111;
},
{
glyphname = hbar;
lastChange = "2018-02-18 14:34:41 +0000";
layers = (
{
components = (
{
name = h;
}
);
layerId = "5A4BD32C-A1D1-4EB1-A794-47BD06E3B809";
paths = (
{
closed = 1;
nodes = (
"299 649 LINE",
"299 704 LINE",
"0 704 LINE",
"0 649 LINE"
);
}
);
width = 622;
}
);
note = hbar;
rightKerningGroup = h;
unicode = 0127;
},
{
glyphname = idotless;
lastChange = "2018-02-18 14:34:41 +0000";
layers = (
{
anchors = (
{
name = bottom;
position = "{144, 0}";
},
{
name = ogonek;
position = "{210, 10}";
},
{
name = top;
position = "{144, 550}";
}
);
hints = (
{
horizontal = 1;
origin = "{0, 2}";
target = up;
type = BottomGhost;
},
{
origin = "{0, 2}";
target = "{0, 3}";
}
);
layerId = "5A4BD32C-A1D1-4EB1-A794-47BD06E3B809";
paths = (
{
closed = 1;
nodes = (
"178 550 LINE",
"110 550 LINE",
"110 0 LINE",
"178 0 LINE"
);
}
);
width = 288;
}
);
note = dotlessi;
unicode = 0131;
},
{
glyphname = jdotless;
lastChange = "2018-02-18 14:34:41 +0000";
layers = (
{
anchors = (
{
name = bottom;
position = "{134, 0}";
},
{
name = top;
position = "{134, 550}";
}
);
hints = (
{
horizontal = 1;
origin = "{0, 17}";
target = "{0, 8}";
},
{
origin = "{0, 5}";
target = "{0, 2}";
}
);
layerId = "5A4BD32C-A1D1-4EB1-A794-47BD06E3B809";
paths = (
{
closed = 1;
nodes = (
"119 -192 OFFCURVE",
"168 -145 OFFCURVE",
"168 -53 CURVE SMOOTH",
"168 550 LINE",
"100 550 LINE",
"100 -62 LINE SMOOTH",
"100 -110 OFFCURVE",
"77 -134 OFFCURVE",
"37 -134 CURVE SMOOTH",
"3 -134 OFFCURVE",
"-20 -127 OFFCURVE",
"-39 -117 CURVE",
"-49 -117 OFFCURVE",
"-65 -150 OFFCURVE",
"-46 -169 CURVE SMOOTH",
"-30 -185 OFFCURVE",
"11 -192 OFFCURVE",
"34 -192 CURVE SMOOTH"
);
}
);
width = 270;
}
);
leftKerningGroup = j;
note = dotlessj;
unicode = 0237;
},
{
glyphname = kgreenlandic;
lastChange = "2018-02-18 14:34:41 +0000";
layers = (
{
layerId = "5A4BD32C-A1D1-4EB1-A794-47BD06E3B809";
paths = (
{
closed = 1;
nodes = (
"205 245 LINE",
"256 245 OFFCURVE",
"288 230 OFFCURVE",
"309 200 CURVE SMOOTH",
"437 15 LINE SMOOTH",
"450 -3 OFFCURVE",
"470 -8 OFFCURVE",
"521 15 CURVE",
"361 239 LINE SMOOTH",
"333 278 OFFCURVE",
"290 296 OFFCURVE",
"239 296 CURVE"
);
},
{
closed = 1;
nodes = (
"159 549 LINE",
"91 549 LINE",
"91 0 LINE",
"159 0 LINE"
);
},
{
closed = 1;
nodes = (
"145 241 LINE",
"205 245 LINE SMOOTH",
"249 248 OFFCURVE",
"286 272 OFFCURVE",
"310 304 CURVE SMOOTH",
"495 549 LINE",
"411 549 LINE",
"261 337 LINE SMOOTH",
"246 315 OFFCURVE",
"227 306 OFFCURVE",
"198 305 CURVE SMOOTH",
"145 303 LINE"
);
}
);
width = 591;
}
);
note = kgreenlandic;
rightKerningGroup = k;
unicode = 0138;
},
{
glyphname = lslash;
lastChange = "2018-02-18 14:34:41 +0000";
layers = (
{
components = (
{
name = l;
}
);
layerId = "5A4BD32C-A1D1-4EB1-A794-47BD06E3B809";
paths = (
{
closed = 1;
nodes = (
"268 445 LINE",
"268 514 LINE",
"0 390 LINE",
"0 320 LINE"
);
}
);
width = 268;
}
);
note = lslash;
unicode = 0142;
},
{
glyphname = eng;
lastChange = "2018-02-18 14:34:41 +0000";
layers = (
{
hints = (
{
horizontal = 1;
origin = "{2, 11}";
target = up;
type = BottomGhost;
},
{
horizontal = 1;
origin = "{1, 7}";
target = down;
type = TopGhost;
},
{
horizontal = 1;
origin = "{1, 11}";
target = "{1, 4}";
},
{
origin = "{2, 11}";
target = "{2, 0}";
},
{
origin = "{1, 15}";
target = "{2, 0}";
}
);
layerId = "5A4BD32C-A1D1-4EB1-A794-47BD06E3B809";
paths = (
{
closed = 1;
nodes = (
"461 -192 OFFCURVE",
"520 -135 OFFCURVE",
"520 -33 CURVE SMOOTH",
"520 0 LINE",
"452 0 LINE",
"452 -42 LINE SMOOTH",
"452 -102 OFFCURVE",
"422 -134 OFFCURVE",
"374 -134 CURVE SMOOTH",
"342 -134 OFFCURVE",
"314 -127 OFFCURVE",
"293 -118 CURVE",
"286 -118 OFFCURVE",
"277 -132 OFFCURVE",
"277 -147 CURVE SMOOTH",
"277 -155 OFFCURVE",
"280 -163 OFFCURVE",
"287 -169 CURVE SMOOTH",
"304 -184 OFFCURVE",
"343 -192 OFFCURVE",
"366 -192 CURVE SMOOTH"
);
},
{
closed = 1;
nodes = (
"520 0 LINE",
"520 372 LINE SMOOTH",
"520 499 OFFCURVE",
"464 560 OFFCURVE",
"349 560 CURVE SMOOTH",
"257 560 OFFCURVE",
"193 520 OFFCURVE",
"139 470 CURVE",
"139 398 LINE",
"202 465 OFFCURVE",
"269 506 OFFCURVE",
"342 506 CURVE SMOOTH",
"419 506 OFFCURVE",
"452 466 OFFCURVE",
"452 373 CURVE SMOOTH",
"452 0 LINE"
);
},
{
closed = 1;
nodes = (
"158 0 LINE",
"158 491 LINE SMOOTH",
"158 533 OFFCURVE",
"146 549 OFFCURVE",
"129 549 CURVE SMOOTH",
"117 549 OFFCURVE",
"97 543 OFFCURVE",
"78 534 CURVE",
"90 503 OFFCURVE",
"90 398 OFFCURVE",
"90 363 CURVE SMOOTH",
"90 0 LINE"
);
}
);
width = 609;
}
);
leftKerningGroup = m;
note = eng;
rightKerningGroup = m;
unicode = 014B;
},
{
glyphname = oslash;
lastChange = "2018-02-18 14:34:41 +0000";
layers = (
{
components = (
{
name = o;
}
);
layerId = "5A4BD32C-A1D1-4EB1-A794-47BD06E3B809";
paths = (
{
closed = 1;
nodes = (
"518 550 LINE",
"454 550 LINE",
"30 0 LINE",
"94 0 LINE"
);
}
);
width = 548;
}
);
note = oslash;
unicode = 00F8;
},
{
glyphname = thorn;
lastChange = "2018-02-18 14:34:41 +0000";
layers = (
{
hints = (
{
horizontal = 1;
origin = "{0, 25}";
target = "{0, 18}";
},
{
horizontal = 1;
origin = "{0, 12}";
target = "{0, 5}";
},
{
origin = "{1, 2}";
target = "{1, 3}";
},
{
origin = "{0, 15}";
target = "{0, 2}";
}
);
layerId = "5A4BD32C-A1D1-4EB1-A794-47BD06E3B809";
paths = (
{
closed = 1;
nodes = (
"453 -12 OFFCURVE",
"558 90 OFFCURVE",
"558 275 CURVE SMOOTH",
"558 479 OFFCURVE",
"460 560 OFFCURVE",
"328 560 CURVE SMOOTH",
"252 560 OFFCURVE",
"180 525 OFFCURVE",
"134 462 CURVE",
"136 393 LINE",
"176 450 OFFCURVE",
"241 504 OFFCURVE",
"328 504 CURVE SMOOTH",
"433 504 OFFCURVE",
"486 428 OFFCURVE",
"486 275 CURVE SMOOTH",
"486 122 OFFCURVE",
"415 44 OFFCURVE",
"305 44 CURVE SMOOTH",
"238 44 OFFCURVE",
"169 62 OFFCURVE",
"129 94 CURVE",
"129 32 LINE",
"160 10 OFFCURVE",
"225 -12 OFFCURVE",
"305 -12 CURVE SMOOTH"
);
},
{
closed = 1;
nodes = (
"162 791 LINE",
"92 791 LINE",
"92 -220 LINE",
"162 -220 LINE"
);
}
);
width = 609;
}
);
note = thorn;
unicode = 00FE;
},
{
glyphname = germandbls;
lastChange = "2018-02-18 14:34:41 +0000";
layers = (
{
hints = (
{
horizontal = 1;
origin = "{0, 16}";
target = up;
type = BottomGhost;
},
{
horizontal = 1;
origin = "{0, 37}";
target = "{0, 28}";
},
{
horizontal = 1;
origin = "{0, 21}";
target = "{0, 12}";
},
{
horizontal = 1;
origin = "{0, 52}";
target = "{0, 43}";
},
{
origin = "{0, 16}";
target = "{0, 17}";
},
{
origin = "{0, 40}";
target = "{0, 2}";
},
{
origin = "{0, 24}";
target = "{0, 9}";
}
);
layerId = "5A4BD32C-A1D1-4EB1-A794-47BD06E3B809";
paths = (
{
closed = 1;
nodes = (
"463 -14 OFFCURVE",
"553 57 OFFCURVE",
"553 199 CURVE SMOOTH",
"553 299 OFFCURVE",
"480 368 OFFCURVE",
"380 372 CURVE",
"384 353 LINE",
"463 369 OFFCURVE",
"527 423 OFFCURVE",
"527 530 CURVE SMOOTH",
"527 638 OFFCURVE",
"443 732 OFFCURVE",
"311 731 CURVE SMOOTH",
"186 730 OFFCURVE",
"84 657 OFFCURVE",
"84 522 CURVE SMOOTH",
"84 0 LINE",
"152 0 LINE",
"152 522 LINE SMOOTH",
"152 625 OFFCURVE",
"214 677 OFFCURVE",
"311 677 CURVE SMOOTH",
"406 677 OFFCURVE",
"460 620 OFFCURVE",
"460 533 CURVE SMOOTH",
"460 441 OFFCURVE",
"398 386 OFFCURVE",
"331 386 CURVE SMOOTH",
"262 386 LINE SMOOTH",
"257 386 OFFCURVE",
"255 382 OFFCURVE",
"255 377 CURVE SMOOTH",
"255 360 OFFCURVE",
"268 329 OFFCURVE",
"288 329 CURVE SMOOTH",
"303 329 OFFCURVE",
"323 332 OFFCURVE",
"340 332 CURVE SMOOTH",
"437 332 OFFCURVE",
"488 272 OFFCURVE",
"488 191 CURVE SMOOTH",
"488 86 OFFCURVE",
"431 42 OFFCURVE",
"346 42 CURVE SMOOTH",
"292 42 OFFCURVE",
"256 51 OFFCURVE",
"214 83 CURVE",
"190 76 OFFCURVE",
"187 38 OFFCURVE",
"211 19 CURVE SMOOTH",
"241 -5 OFFCURVE",
"288 -14 OFFCURVE",
"342 -14 CURVE SMOOTH"
);
}
);
width = 617;
}
);
note = germandbls;
unicode = 00DF;
},
{
glyphname = tbar;
lastChange = "2018-02-18 14:34:41 +0000";
layers = (
{
components = (
{
name = t;
}
);
layerId = "5A4BD32C-A1D1-4EB1-A794-47BD06E3B809";
paths = (
{
closed = 1;
nodes = (
"328 286 LINE",
"328 340 LINE",
"12 340 LINE",
"12 286 LINE"
);
}
);
width = 397;
}
);
leftKerningGroup = t;
note = tbar;
rightKerningGroup = t;
unicode = 0167;
},
{
glyphname = ordfeminine;
lastChange = "2018-02-18 14:34:41 +0000";
layers = (
{
hints = (
{
horizontal = 1;
origin = "{1, 19}";
target = "{1, 6}";
},
{
horizontal = 1;
origin = "{1, 12}";
target = "{1, 13}";
},
{
horizontal = 1;
origin = "{0, 9}";
target = "{0, 21}";
},
{
origin = "{1, 16}";
target = "{1, 9}";
},
{
origin = "{0, 25}";
target = "{0, 5}";
}
);
layerId = "5A4BD32C-A1D1-4EB1-A794-47BD06E3B809";
paths = (
{
closed = 1;
nodes = (
"324 360 OFFCURVE",
"333 364 OFFCURVE",
"340 370 CURVE",
"334 395 OFFCURVE",
"333 412 OFFCURVE",
"333 446 CURVE SMOOTH",
"333 583 LINE SMOOTH",
"333 673 OFFCURVE",
"265 712 OFFCURVE",
"203 712 CURVE SMOOTH",
"131 712 OFFCURVE",
"85 689 OFFCURVE",
"54 646 CURVE",
"57 631 OFFCURVE",
"67 619 OFFCURVE",
"84 619 CURVE SMOOTH",
"95 619 OFFCURVE",
"100 622 OFFCURVE",
"113 633 CURVE SMOOTH",
"129 646 OFFCURVE",
"152 667 OFFCURVE",
"197 667 CURVE SMOOTH",
"250 667 OFFCURVE",
"278 640 OFFCURVE",
"278 584 CURVE SMOOTH",
"278 421 LINE SMOOTH",
"278 390 OFFCURVE",
"285 360 OFFCURVE",
"311 360 CURVE"
);
},
{
closed = 1;
nodes = (
"231 359 OFFCURVE",
"265 395 OFFCURVE",
"290 432 CURVE",
"282 480 LINE",
"266 440 OFFCURVE",
"214 403 OFFCURVE",
"162 403 CURVE SMOOTH",
"123 403 OFFCURVE",
"101 416 OFFCURVE",
"101 453 CURVE SMOOTH",
"101 533 OFFCURVE",
"202 534 OFFCURVE",
"285 535 CURVE",
"286 577 LINE",
"165 576 OFFCURVE",
"46 564 OFFCURVE",
"46 451 CURVE SMOOTH",
"46 395 OFFCURVE",
"92 359 OFFCURVE",
"155 359 CURVE SMOOTH"
);
}
);
width = 380;
}
);
note = ordfeminine;
unicode = 00AA;
},
{
glyphname = ordmasculine;
lastChange = "2018-02-18 14:34:41 +0000";
layers = (
{
hints = (
{
horizontal = 1;
origin = "{0, 11}";
target = "{1, 11}";
},
{
horizontal = 1;
origin = "{0, 5}";
target = "{1, 5}";
},
{
origin = "{0, 8}";
target = "{1, 2}";
},
{
origin = "{1, 8}";
target = "{0, 2}";
}
);
layerId = "5A4BD32C-A1D1-4EB1-A794-47BD06E3B809";
paths = (
{
closed = 1;
nodes = (
"293 357 OFFCURVE",
"344 432 OFFCURVE",
"344 533 CURVE SMOOTH",
"344 635 OFFCURVE",
"293 710 OFFCURVE",
"191 710 CURVE SMOOTH",
"87 710 OFFCURVE",
"36 635 OFFCURVE",
"36 533 CURVE SMOOTH",
"36 432 OFFCURVE",
"87 357 OFFCURVE",
"191 357 CURVE SMOOTH"
);
},
{
closed = 1;
nodes = (
"129 402 OFFCURVE",
"92 440 OFFCURVE",
"92 533 CURVE SMOOTH",
"92 626 OFFCURVE",
"129 665 OFFCURVE",
"191 665 CURVE SMOOTH",
"253 665 OFFCURVE",
"288 626 OFFCURVE",
"288 533 CURVE SMOOTH",
"288 440 OFFCURVE",
"253 402 OFFCURVE",
"191 402 CURVE SMOOTH"
);
}
);
width = 380;
}
);
note = ordmasculine;
unicode = 00BA;
},
{
glyphname = nmod;
lastChange = "2018-02-18 14:34:41 +0000";
layers = (
{
hints = (
{
horizontal = 1;
origin = "{1, 4}";
target = down;
type = TopGhost;
},
{
horizontal = 1;
origin = "{0, 16}";
target = "{0, 9}";
},
{
origin = "{1, 11}";
target = "{1, 0}";
},
{
origin = "{0, 20}";
target = "{0, 5}";
}
);
layerId = "5A4BD32C-A1D1-4EB1-A794-47BD06E3B809";
paths = (
{
closed = 1;
nodes = (
"314 360 OFFCURVE",
"334 365 OFFCURVE",
"345 369 CURVE",
"340 380 OFFCURVE",
"335 390 OFFCURVE",
"335 437 CURVE SMOOTH",
"335 602 LINE SMOOTH",
"335 681 OFFCURVE",
"288 716 OFFCURVE",
"216 716 CURVE SMOOTH",
"160 716 OFFCURVE",
"119 691 OFFCURVE",
"86 660 CURVE",
"86 605 LINE",
"125 647 OFFCURVE",
"167 672 OFFCURVE",
"212 672 CURVE SMOOTH",
"260 672 OFFCURVE",
"280 650 OFFCURVE",
"280 602 CURVE SMOOTH",
"280 421 LINE SMOOTH",
"280 375 OFFCURVE",
"289 360 OFFCURVE",
"301 360 CURVE SMOOTH"
);
},
{
closed = 1;
nodes = (
"98 363 LINE",
"98 673 LINE SMOOTH",
"98 699 OFFCURVE",
"88 709 OFFCURVE",
"77 709 CURVE SMOOTH",
"70 709 OFFCURVE",
"47 705 OFFCURVE",
"35 699 CURVE",
"43 680 OFFCURVE",
"43 615 OFFCURVE",
"43 593 CURVE SMOOTH",
"43 363 LINE"
);
}
);
width = 380;
}
);
note = uni207F;
unicode = 207F;
},
{
glyphname = Delta;
lastChange = "2018-02-18 14:34:41 +0000";
layers = (
{
layerId = "5A4BD32C-A1D1-4EB1-A794-47BD06E3B809";
paths = (
{
closed = 1;
nodes = (
"546 30 LINE",
"306 700 LINE",
"240 700 LINE",
"0 30 LINE",
"0 0 LINE",
"546 0 LINE"
);
},
{
closed = 1;
nodes = (
"79 58 LINE",
"288 657 LINE",
"258 657 LINE",
"467 58 LINE"
);
}
);
width = 546;
}
);
note = Delta;
unicode = 0394;
},
{
glyphname = Omega;
lastChange = "2018-02-18 14:34:41 +0000";
layers = (
{
layerId = "5A4BD32C-A1D1-4EB1-A794-47BD06E3B809";
paths = (
{
closed = 1;
nodes = (
"626 58 LINE",
"456 58 LINE",
"456 147 LINE",
"556 177 OFFCURVE",
"626 289 OFFCURVE",
"626 410 CURVE SMOOTH",
"626 577 OFFCURVE",
"526 713 OFFCURVE",
"338 713 CURVE SMOOTH",
"151 713 OFFCURVE",
"50 577 OFFCURVE",
"50 410 CURVE SMOOTH",
"50 288 OFFCURVE",
"122 179 OFFCURVE",
"220 147 CURVE",
"220 58 LINE",
"50 58 LINE",
"50 0 LINE",
"281 0 LINE",
"281 187 LINE",
"192 206 OFFCURVE",
"115 292 OFFCURVE",
"115 410 CURVE SMOOTH",
"115 547 OFFCURVE",
"194 654 OFFCURVE",
"338 654 CURVE SMOOTH",
"482 654 OFFCURVE",
"562 547 OFFCURVE",
"562 410 CURVE SMOOTH",
"562 292 OFFCURVE",
"485 206 OFFCURVE",
"396 187 CURVE",
"396 0 LINE",
"626 0 LINE"
);
}
);
width = 676;
}
);
note = Omega;
unicode = 03A9;
},
{
glyphname = mu;
lastChange = "2018-02-18 14:34:41 +0000";
layers = (
{
components = (
{
name = u;
}
);
layerId = "5A4BD32C-A1D1-4EB1-A794-47BD06E3B809";
paths = (
{
closed = 1;
nodes = (
"156 549 LINE",
"91 549 LINE",
"91 -220 LINE",
"156 -220 LINE"
);
}
);
width = 609;
}
);
leftMetricsKey = u;
note = mu;
rightMetricsKey = u;
unicode = 03BC;
},
{
color = 0;
glyphname = pi;
lastChange = "2018-02-18 14:34:41 +0000";
layers = (
{
hints = (
{
horizontal = 1;
origin = "{0, 23}";
target = "{0, 6}";
},
{
horizontal = 1;
origin = "{0, 14}";
target = "{0, 13}";
},
{
horizontal = 1;
origin = "{0, 16}";
target = up;
type = BottomGhost;
},
{
origin = "{0, 16}";
target = "{0, 17}";
},
{
origin = "{0, 20}";
target = "{0, 9}";
}
);
layerId = "5A4BD32C-A1D1-4EB1-A794-47BD06E3B809";
paths = (
{
closed = 1;
nodes = (
"557 -10 OFFCURVE",
"583 -4 OFFCURVE",
"613 13 CURVE",
"613 64 LINE",
"598 54 OFFCURVE",
"568 46 OFFCURVE",
"541 46 CURVE SMOOTH",
"505 46 OFFCURVE",
"478 59 OFFCURVE",
"478 110 CURVE SMOOTH",
"478 490 LINE",
"597 490 LINE",
"597 550 LINE",
"29 550 LINE",
"29 490 LINE",
"136 490 LINE",
"136 0 LINE",
"201 0 LINE",
"201 490 LINE",
"413 490 LINE",
"413 106 LINE SMOOTH",
"413 42 OFFCURVE",
"446 -10 OFFCURVE",
"520 -10 CURVE SMOOTH"
);
}
);
width = 640;
}
);
note = pi;
unicode = 03C0;
},
{
color = 6;
glyphname = "koKai-thai";
lastChange = "2018-02-18 16:49:40 +0000";
layers = (
{
hints = (
{
horizontal = 1;
origin = "{0, 1}";
target = up;
type = BottomGhost;
},
{
horizontal = 1;
origin = "{2, 15}";
target = "{2, 24}";
},
{
horizontal = 1;
origin = "{2, 3}";
target = "{2, 6}";
},
{
origin = "{0, 1}";
target = "{0, 2}";
},
{
origin = "{1, 1}";
target = "{1, 2}";
},
{
origin = "{2, 27}";
target = "{2, 12}";
}
);
layerId = "5A4BD32C-A1D1-4EB1-A794-47BD06E3B809";
paths = (
{
closed = 1;
nodes = (
"92 221 LINE",
"92 0 LINE",
"157 0 LINE",
"157 221 LINE"
);
},
{
closed = 1;
nodes = (
"460 221 LINE",
"460 0 LINE",
"525 0 LINE",
"525 221 LINE"
);
},
{
closed = 1;
nodes = (
"157 221 LINE",
"157 305 OFFCURVE",
"180 355 OFFCURVE",
"267 355 CURVE SMOOTH",
"283 355 OFFCURVE",
"256 404 OFFCURVE",
"243 404 CURVE SMOOTH",
"226 404 OFFCURVE",
"204 387 OFFCURVE",
"183 387 CURVE SMOOTH",
"164 387 OFFCURVE",
"118 414 OFFCURVE",
"118 442 CURVE SMOOTH",
"118 476 OFFCURVE",
"196 533 OFFCURVE",
"298 533 CURVE SMOOTH",
"396 533 OFFCURVE",
"460 486 OFFCURVE",
"460 382 CURVE SMOOTH",
"460 221 LINE",
"525 221 LINE",
"525 382 LINE SMOOTH",
"525 520 OFFCURVE",
"418 585 OFFCURVE",
"298 585 CURVE SMOOTH",
"155 585 OFFCURVE",
"55 501 OFFCURVE",
"55 439 CURVE SMOOTH",
"55 388 OFFCURVE",
"135 346 OFFCURVE",
"155 346 CURVE",
"163 373 LINE",
"115 345 OFFCURVE",
"92 303 OFFCURVE",
"92 221 CURVE"
);
}
);
width = 605;
}
);
note = uni0E01;
unicode = 0E01;
},
{
color = 6;
glyphname = "thoThung-thai";
lastChange = "2018-02-18 14:34:41 +0000";
layers = (
{
components = (
{
name = ko_part;
}
);
guideLines = (
{
position = "{307, 21}";
}
);
hints = (
{
horizontal = 1;
origin = "{0, 25}";
target = "{0, 16}";
},
{
horizontal = 1;
origin = "{0, 9}";
target = "{0, 5}";
},
{
horizontal = 1;
origin = "{1, 3}";
target = "{0, 21}";
},
{
horizontal = 1;
origin = "{1, 3}";
target = up;
type = BottomGhost;
},
{
origin = "{0, 22}";
target = "{0, 19}";
},
{
origin = "{0, 13}";
target = "{0, 2}";
},
{
origin = "{1, 3}";
target = "{1, 0}";
}
);
layerId = "5A4BD32C-A1D1-4EB1-A794-47BD06E3B809";
paths = (
{
closed = 1;
nodes = (
"272 -7 OFFCURVE",
"316 33 OFFCURVE",
"316 90 CURVE SMOOTH",
"316 150 OFFCURVE",
"276 179 OFFCURVE",
"227 179 CURVE SMOOTH",
"199 179 OFFCURVE",
"188 163 OFFCURVE",
"188 144 CURVE SMOOTH",
"188 137 LINE",
"220 137 LINE SMOOTH",
"250 137 OFFCURVE",
"268 119 OFFCURVE",
"268 90 CURVE SMOOTH",
"268 61 OFFCURVE",
"251 41 OFFCURVE",
"216 41 CURVE SMOOTH",
"181 41 OFFCURVE",
"157 66 OFFCURVE",
"157 127 CURVE SMOOTH",
"157 221 LINE",
"92 221 LINE",
"92 126 LINE SMOOTH",
"92 33 OFFCURVE",
"146 -7 OFFCURVE",
"212 -7 CURVE SMOOTH"
);
},
{
closed = 1;
nodes = (
"535 0 LINE",
"535 221 LINE",
"470 221 LINE",
"470 0 LINE"
);
}
);
width = 615;
}
);
note = uni0E16;
rightMetricsKey = "koKai-thai";
unicode = 0E16;
},
{
color = 6;
glyphname = "phoSamphao-thai";
lastChange = "2018-02-18 16:49:34 +0000";
layers = (
{
hints = (
{
horizontal = 1;
origin = "{0, 61}";
target = "{0, 45}";
},
{
horizontal = 1;
origin = "{0, 51}";
target = "{0, 55}";
},
{
horizontal = 1;
origin = "{0, 8}";
target = "{0, 11}";
},
{
horizontal = 1;
origin = "{0, 20}";
target = "{0, 29}";
},
{
horizontal = 1;
origin = "{0, 24}";
target = up;
type = BottomGhost;
},
{
origin = "{0, 58}";
target = "{0, 48}";
},
{
origin = "{0, 42}";
target = "{0, 2}";
},
{
origin = "{0, 24}";
target = "{0, 25}";
},
{
origin = "{0, 32}";
target = "{0, 17}";
},
{
origin = "{0, 39}";
target = "{0, 5}";
}
);
layerId = "5A4BD32C-A1D1-4EB1-A794-47BD06E3B809";
paths = (
{
closed = 1;
nodes = (
"172 -8 OFFCURVE",
"207 29 OFFCURVE",
"207 89 CURVE SMOOTH",
"207 151 OFFCURVE",
"192 203 OFFCURVE",
"192 263 CURVE SMOOTH",
"192 318 OFFCURVE",
"218 361 OFFCURVE",
"279 361 CURVE SMOOTH",
"295 361 OFFCURVE",
"270 407 OFFCURVE",
"255 407 CURVE SMOOTH",
"238 407 OFFCURVE",
"210 388 OFFCURVE",
"194 388 CURVE SMOOTH",
"182 388 OFFCURVE",
"129 420 OFFCURVE",
"129 447 CURVE SMOOTH",
"129 481 OFFCURVE",
"208 534 OFFCURVE",
"314 534 CURVE SMOOTH",
"411 534 OFFCURVE",
"485 504 OFFCURVE",
"485 365 CURVE SMOOTH",
"485 0 LINE",
"550 0 LINE",
"550 365 LINE SMOOTH",
"550 534 OFFCURVE",
"436 585 OFFCURVE",
"314 585 CURVE SMOOTH",
"167 585 OFFCURVE",
"65 498 OFFCURVE",
"65 444 CURVE SMOOTH",
"65 399 OFFCURVE",
"139 346 OFFCURVE",
"182 345 CURVE",
"187 371 LINE",
"157 356 OFFCURVE",
"127 330 OFFCURVE",
"127 265 CURVE SMOOTH",
"127 211 OFFCURVE",
"151 152 OFFCURVE",
"151 88 CURVE SMOOTH",
"151 60 OFFCURVE",
"136 38 OFFCURVE",
"107 38 CURVE SMOOTH",
"78 38 OFFCURVE",
"62 58 OFFCURVE",
"62 80 CURVE SMOOTH",
"62 108 OFFCURVE",
"77 125 OFFCURVE",
"107 125 CURVE SMOOTH",
"126 125 LINE",
"126 145 OFFCURVE",
"111 159 OFFCURVE",
"88 159 CURVE SMOOTH",
"54 159 OFFCURVE",
"16 132 OFFCURVE",
"16 80 CURVE SMOOTH",
"16 30 OFFCURVE",
"53 -8 OFFCURVE",
"107 -8 CURVE SMOOTH"
);
}
);
width = 630;
}
);
note = uni0E20;
rightMetricsKey = "koKai-thai";
unicode = 0E20;
},
{
color = 6;
glyphname = "ru-thai";
lastChange = "2018-02-18 14:34:41 +0000";
layers = (
{
components = (
{
name = "thoThung-thai";
}
);
layerId = "5A4BD32C-A1D1-4EB1-A794-47BD06E3B809";
paths = (
{
closed = 1;
nodes = (
"535 -220 LINE",
"535 0 LINE",
"470 0 LINE",
"470 -220 LINE"
);
}
);
width = 615;
}
);
note = uni0E24;
rightMetricsKey = "koKai-thai";
unicode = 0E24;
},
{
color = 6;
glyphname = "ru-thai.short";
lastChange = "2018-02-18 14:34:41 +0000";
layers = (
{
components = (
{
name = "thoThung-thai";
}
);
layerId = "5A4BD32C-A1D1-4EB1-A794-47BD06E3B809";
paths = (
{
closed = 1;
nodes = (
"535 -160 LINE",
"535 0 LINE",
"470 0 LINE",
"470 -160 LINE"
);
}
);
width = 615;
}
);
note = "ru-thai.short";
rightMetricsKey = "koKai-thai";
},
{
color = 6;
glyphname = "lu-thai";
lastChange = "2018-02-18 14:34:41 +0000";
layers = (
{
components = (
{
name = "phoSamphao-thai";
}
);
layerId = "5A4BD32C-A1D1-4EB1-A794-47BD06E3B809";
paths = (
{
closed = 1;
nodes = (
"485 0 LINE",
"485 -220 LINE",
"550 -220 LINE",
"550 0 LINE"
);
}
);
width = 630;
}
);
note = uni0E26;
rightMetricsKey = "koKai-thai";
unicode = 0E26;
},
{
color = 6;
glyphname = "lu-thai.short";
lastChange = "2018-02-18 14:34:41 +0000";
layers = (
{
components = (
{
name = "phoSamphao-thai";
}
);
layerId = "5A4BD32C-A1D1-4EB1-A794-47BD06E3B809";
paths = (
{
closed = 1;
nodes = (
"550 -160 LINE",
"550 0 LINE",
"485 0 LINE",
"485 -160 LINE"
);
}
);
width = 630;
}
);
note = "lu-thai.short";
rightMetricsKey = "koKai-thai";
},
{
color = 6;
glyphname = "doChada-thai";
lastChange = "2018-02-18 16:04:43 +0000";
layers = (
{
components = (
{
name = "phoSamphao-thai";
}
);
layerId = "5A4BD32C-A1D1-4EB1-A794-47BD06E3B809";
paths = (
{
closed = 1;
nodes = (
"399 -165 OFFCURVE",
"399 -53 CURVE SMOOTH",
"399 -32 OFFCURVE",
"383 -13 OFFCURVE",
"344 -13 CURVE",
"337 -140 OFFCURVE",
"282 -200 OFFCURVE",
"207 -200 CURVE SMOOTH",
"172 -200 OFFCURVE",
"146 -184 OFFCURVE",
"146 -159 CURVE SMOOTH",
"146 -134 OFFCURVE",
"179 -106 OFFCURVE",
"243 -106 CURVE SMOOTH",
"338 -106 OFFCURVE",
"438 -182 OFFCURVE",
"484 -245 CURVE",
"550 -245 LINE",
"550 0 LINE",
"485 0 LINE",
"485 -170 LINE",
"434 -111 OFFCURVE",
"337 -59 OFFCURVE",
"237 -59 CURVE SMOOTH",
"152 -59 OFFCURVE",
"87 -105 OFFCURVE",
"87 -158 CURVE SMOOTH",
"87 -210 OFFCURVE",
"139 -249 OFFCURVE",
"208 -249 CURVE SMOOTH",
"309 -249 OFFCURVE"
);
}
);
width = 630;
}
);
note = uni0E0E;
rightMetricsKey = "koKai-thai";
unicode = 0E0E;
},
{
color = 6;
glyphname = "doChada-thai.short";
lastChange = "2018-02-18 14:34:41 +0000";
layers = (
{
components = (
{
name = "phoSamphao-thai";
}
);
layerId = "5A4BD32C-A1D1-4EB1-A794-47BD06E3B809";
paths = (
{
closed = 1;
nodes = (
"399 -164 OFFCURVE",
"399 -58 CURVE SMOOTH",
"399 -37 OFFCURVE",
"383 -23 OFFCURVE",
"354 -23 CURVE",
"347 -136 OFFCURVE",
"294 -201 OFFCURVE",
"213 -201 CURVE SMOOTH",
"171 -201 OFFCURVE",
"151 -187 OFFCURVE",
"151 -161 CURVE SMOOTH",
"151 -132 OFFCURVE",
"174 -106 OFFCURVE",
"243 -106 CURVE SMOOTH",
"338 -106 OFFCURVE",
"441 -182 OFFCURVE",
"487 -245 CURVE",
"550 -245 LINE",
"550 0 LINE",
"488 0 LINE",
"488 -180 LINE",
"437 -121 OFFCURVE",
"337 -59 OFFCURVE",
"237 -59 CURVE SMOOTH",
"152 -59 OFFCURVE",
"97 -103 OFFCURVE",
"97 -160 CURVE SMOOTH",
"97 -213 OFFCURVE",
"143 -249 OFFCURVE",
"214 -249 CURVE SMOOTH",
"311 -249 OFFCURVE"
);
}
);
width = 630;
}
);
note = "doChada-thai.short";
rightMetricsKey = "koKai-thai";
},
{
color = 6;
glyphname = "toPatak-thai";
lastChange = "2018-02-18 14:34:41 +0000";
layers = (
{
components = (
{
name = "phoSamphao-thai";
}
);
layerId = "5A4BD32C-A1D1-4EB1-A794-47BD06E3B809";
paths = (
{
closed = 1;
nodes = (
"323 -153 OFFCURVE",
"323 -75 CURVE SMOOTH",
"323 -46 OFFCURVE",
"298 -36 OFFCURVE",
"271 -36 CURVE",
"271 -121 OFFCURVE",
"229 -209 OFFCURVE",
"166 -209 CURVE SMOOTH",
"137 -209 OFFCURVE",
"112 -195 OFFCURVE",
"112 -168 CURVE SMOOTH",
"112 -140 OFFCURVE",
"139 -128 OFFCURVE",
"169 -128 CURVE SMOOTH",
"201 -128 OFFCURVE",
"226 -150 OFFCURVE",
"259 -181 CURVE SMOOTH",
"328 -247 LINE",
"406 -195 LINE",
"480 -250 LINE",
"548 -250 LINE",
"550 0 LINE",
"485 0 LINE",
"485 -195 LINE",
"407 -139 LINE",
"333 -187 LINE",
"283 -141 LINE SMOOTH",
"260 -120 OFFCURVE",
"223 -84 OFFCURVE",
"166 -84 CURVE SMOOTH",
"119 -84 OFFCURVE",
"65 -113 OFFCURVE",
"65 -170 CURVE SMOOTH",
"65 -220 OFFCURVE",
"109 -253 OFFCURVE",
"161 -253 CURVE SMOOTH",
"258 -253 OFFCURVE"
);
}
);
width = 630;
}
);
note = uni0E0F;
rightMetricsKey = "koKai-thai";
unicode = 0E0F;
},
{
color = 6;
glyphname = "ru_lakkhangyao-thai";
lastChange = "2018-02-18 14:34:41 +0000";
layers = (
{
components = (
{
name = "ru-thai";
}
);
hints = (
{
horizontal = 1;
origin = "{0, 2}";
target = "{0, 11}";
},
{
origin = "{0, 6}";
target = "{0, 7}";
}
);
layerId = "5A4BD32C-A1D1-4EB1-A794-47BD06E3B809";
paths = (
{
closed = 1;
nodes = (
"534 493 OFFCURVE",
"586 531 OFFCURVE",
"665 531 CURVE SMOOTH",
"748 531 OFFCURVE",
"800 484 OFFCURVE",
"800 394 CURVE SMOOTH",
"800 -216 LINE",
"865 -216 LINE",
"865 394 LINE SMOOTH",
"865 516 OFFCURVE",
"780 585 OFFCURVE",
"665 585 CURVE SMOOTH",
"571 585 OFFCURVE",
"506 544 OFFCURVE",
"463 492 CURVE",
"498 441 LINE"
);
}
);
width = 945;
}
);
note = "ru_lakkhangyao-thai";
rightMetricsKey = "saraAa-thai";
},
{
color = 6;
glyphname = "lu_lakkhangyao-thai";
lastChange = "2018-02-18 14:34:41 +0000";
layers = (
{
components = (
{
name = "lu-thai";
}
);
layerId = "5A4BD32C-A1D1-4EB1-A794-47BD06E3B809";
paths = (
{
closed = 1;
nodes = (
"544 493 OFFCURVE",
"596 531 OFFCURVE",
"675 531 CURVE SMOOTH",
"758 531 OFFCURVE",
"810 484 OFFCURVE",
"810 394 CURVE SMOOTH",
"810 -216 LINE",
"875 -216 LINE",
"875 394 LINE SMOOTH",
"875 516 OFFCURVE",
"790 585 OFFCURVE",
"675 585 CURVE SMOOTH",
"581 585 OFFCURVE",
"516 544 OFFCURVE",
"473 492 CURVE",
"508 441 LINE"
);
}
);
width = 955;
}
);
note = "lu_lakkhangyao-thai";
rightMetricsKey = "saraAa-thai";
},
{
color = 6;
glyphname = "yoYing-thai";
lastChange = "2018-02-18 14:34:41 +0000";
layers = (
{
components = (
{
name = "yoYing-thai.less";
}
);
hints = (
{
horizontal = 1;
origin = "{0, 30}";
target = "{0, 8}";
},
{
horizontal = 1;
place = "{-78, 1182}";
},
{
horizontal = 1;
origin = "{0, 14}";
target = "{0, 24}";
},
{
origin = "{0, 27}";
target = "{0, 11}";
},
{
origin = "{0, 18}";
target = "{0, 21}";
}
);
layerId = "5A4BD32C-A1D1-4EB1-A794-47BD06E3B809";
paths = (
{
closed = 1;
nodes = (
"817 -70 OFFCURVE",
"803 -66 OFFCURVE",
"792 -66 CURVE SMOOTH",
"778 -66 OFFCURVE",
"768 -73 OFFCURVE",
"763 -89 CURVE SMOOTH",
"744 -156 OFFCURVE",
"708 -180 OFFCURVE",
"630 -180 CURVE SMOOTH",
"563 -180 OFFCURVE",
"529 -155 OFFCURVE",
"529 -124 CURVE SMOOTH",
"529 -104 OFFCURVE",
"543 -93 OFFCURVE",
"562 -93 CURVE SMOOTH",
"581 -93 OFFCURVE",
"591 -108 OFFCURVE",
"591 -127 CURVE SMOOTH",
"591 -151 LINE",
"612 -151 OFFCURVE",
"632 -142 OFFCURVE",
"632 -113 CURVE SMOOTH",
"632 -81 OFFCURVE",
"606 -49 OFFCURVE",
"563 -49 CURVE SMOOTH",
"521 -49 OFFCURVE",
"482 -77 OFFCURVE",
"482 -130 CURVE SMOOTH",
"482 -194 OFFCURVE",
"547 -228 OFFCURVE",
"630 -228 CURVE SMOOTH",
"730 -228 OFFCURVE",
"818 -181 OFFCURVE",
"835 -78 CURVE"
);
}
);
width = 940;
}
);
note = uni0E0D;
unicode = 0E0D;
},
{
color = 6;
glyphname = "yoYing-thai.less";
lastChange = "2018-02-18 14:34:41 +0000";
layers = (
{
hints = (
{
horizontal = 1;
origin = "{1, 25}";
target = "{0, 22}";
},
{
horizontal = 1;
origin = "{1, 9}";
target = "{1, 5}";
},
{
horizontal = 1;
origin = "{2, 3}";
target = "{2, 6}";
},
{
horizontal = 1;
origin = "{2, 15}";
target = "{2, 24}";
},
{
horizontal = 1;
origin = "{1, 25}";
target = "{1, 16}";
},
{
origin = "{1, 22}";
target = "{1, 19}";
},
{
origin = "{1, 13}";
target = "{1, 2}";
},
{
origin = "{0, 1}";
target = "{0, 28}";
},
{
origin = "{0, 16}";
target = "{0, 13}";
},
{
origin = "{2, 27}";
target = "{2, 12}";
}
);
layerId = "5A4BD32C-A1D1-4EB1-A794-47BD06E3B809";
paths = (
{
closed = 1;
nodes = (
"460 221 LINE",
"460 190 LINE SMOOTH",
"460 128 OFFCURVE",
"467 79 OFFCURVE",
"492 50 CURVE SMOOTH",
"537 -2 OFFCURVE",
"608 -9 OFFCURVE",
"660 -9 CURVE SMOOTH",
"716 -9 OFFCURVE",
"782 -1 OFFCURVE",
"828 50 CURVE SMOOTH",
"856 81 OFFCURVE",
"860 117 OFFCURVE",
"860 190 CURVE SMOOTH",
"860 576 LINE",
"795 576 LINE",
"795 190 LINE SMOOTH",
"795 151 OFFCURVE",
"797 101 OFFCURVE",
"781 83 CURVE SMOOTH",
"758 57 OFFCURVE",
"722 46 OFFCURVE",
"660 46 CURVE SMOOTH",
"602 46 OFFCURVE",
"565 57 OFFCURVE",
"542 83 CURVE SMOOTH",
"526 101 OFFCURVE",
"525 146 OFFCURVE",
"525 192 CURVE SMOOTH",
"525 221 LINE"
);
},
{
closed = 1;
nodes = (
"274 -9 OFFCURVE",
"321 33 OFFCURVE",
"321 91 CURVE SMOOTH",
"321 152 OFFCURVE",
"278 183 OFFCURVE",
"229 183 CURVE SMOOTH",
"200 183 OFFCURVE",
"186 166 OFFCURVE",
"186 146 CURVE SMOOTH",
"186 139 LINE",
"221 139 LINE SMOOTH",
"252 139 OFFCURVE",
"271 121 OFFCURVE",
"271 91 CURVE SMOOTH",
"271 62 OFFCURVE",
"253 41 OFFCURVE",
"217 41 CURVE SMOOTH",
"182 41 OFFCURVE",
"157 68 OFFCURVE",
"157 132 CURVE SMOOTH",
"157 221 LINE",
"92 221 LINE",
"92 131 LINE SMOOTH",
"92 35 OFFCURVE",
"147 -9 OFFCURVE",
"213 -9 CURVE SMOOTH"
);
},
{
closed = 1;
nodes = (
"157 221 LINE",
"157 305 OFFCURVE",
"196 352 OFFCURVE",
"278 352 CURVE SMOOTH",
"294 352 OFFCURVE",
"267 401 OFFCURVE",
"254 401 CURVE SMOOTH",
"237 401 OFFCURVE",
"222 387 OFFCURVE",
"196 387 CURVE SMOOTH",
"177 387 OFFCURVE",
"118 414 OFFCURVE",
"118 442 CURVE SMOOTH",
"118 476 OFFCURVE",
"188 534 OFFCURVE",
"293 534 CURVE SMOOTH",
"405 534 OFFCURVE",
"460 486 OFFCURVE",
"460 382 CURVE SMOOTH",
"460 221 LINE",
"525 221 LINE",
"525 382 LINE SMOOTH",
"525 520 OFFCURVE",
"427 585 OFFCURVE",
"293 585 CURVE SMOOTH",
"147 585 OFFCURVE",
"55 501 OFFCURVE",
"55 439 CURVE SMOOTH",
"55 388 OFFCURVE",
"146 346 OFFCURVE",
"166 346 CURVE",
"174 373 LINE",
"126 345 OFFCURVE",
"92 303 OFFCURVE",
"92 221 CURVE"
);
}
);
width = 940;
}
);
note = "yoYing-thai.less";
rightMetricsKey = "boBaimai-thai";
},
{
color = 6;
glyphname = "khoKhai-thai";
lastChange = "2018-02-18 14:34:41 +0000";
layers = (
{
hints = (
{
horizontal = 1;
origin = "{0, 59}";
target = "{0, 8}";
},
{
horizontal = 1;
origin = "{0, 24}";
target = "{0, 40}";
},
{
horizontal = 1;
origin = "{0, 33}";
target = "{0, 30}";
},
{
horizontal = 1;
origin = "{0, 46}";
target = "{0, 18}";
},
{
origin = "{0, 21}";
target = "{0, 43}";
},
{
origin = "{0, 56}";
target = "{0, 11}";
},
{
origin = "{0, 49}";
target = "{0, 15}";
},
{
origin = "{0, 5}";
target = "{0, 2}";
},
{
origin = "{0, 37}";
target = "{0, 27}";
}
);
layerId = "5A4BD32C-A1D1-4EB1-A794-47BD06E3B809";
paths = (
{
closed = 1;
nodes = (
"432 -9 OFFCURVE",
"495 36 OFFCURVE",
"495 163 CURVE SMOOTH",
"495 576 LINE",
"430 576 LINE",
"430 159 LINE SMOOTH",
"430 68 OFFCURVE",
"400 43 OFFCURVE",
"312 43 CURVE SMOOTH",
"239 43 OFFCURVE",
"197 73 OFFCURVE",
"197 152 CURVE SMOOTH",
"197 227 LINE",
"269 276 OFFCURVE",
"345 330 OFFCURVE",
"345 438 CURVE SMOOTH",
"345 534 OFFCURVE",
"276 579 OFFCURVE",
"195 579 CURVE SMOOTH",
"116 579 OFFCURVE",
"51 531 OFFCURVE",
"51 447 CURVE SMOOTH",
"51 378 OFFCURVE",
"102 340 OFFCURVE",
"152 340 CURVE SMOOTH",
"198 340 OFFCURVE",
"240 373 OFFCURVE",
"240 420 CURVE SMOOTH",
"240 471 OFFCURVE",
"208 496 OFFCURVE",
"166 496 CURVE SMOOTH",
"143 496 OFFCURVE",
"131 479 OFFCURVE",
"131 461 CURVE",
"153 461 LINE SMOOTH",
"178 461 OFFCURVE",
"194 446 OFFCURVE",
"194 423 CURVE SMOOTH",
"194 402 OFFCURVE",
"179 384 OFFCURVE",
"154 384 CURVE SMOOTH",
"127 384 OFFCURVE",
"101 402 OFFCURVE",
"101 447 CURVE SMOOTH",
"101 503 OFFCURVE",
"145 538 OFFCURVE",
"194 538 CURVE SMOOTH",
"247 538 OFFCURVE",
"289 509 OFFCURVE",
"289 435 CURVE SMOOTH",
"289 354 OFFCURVE",
"230 309 OFFCURVE",
"145 255 CURVE SMOOTH",
"136 249 OFFCURVE",
"132 243 OFFCURVE",
"132 229 CURVE SMOOTH",
"132 151 LINE SMOOTH",
"132 43 OFFCURVE",
"207 -9 OFFCURVE",
"311 -9 CURVE SMOOTH"
);
}
);
width = 575;
}
);
note = uni0E02;
unicode = 0E02;
},
{
color = 6;
glyphname = "khoKhuat-thai";
lastChange = "2018-02-18 14:34:41 +0000";
layers = (
{
hints = (
{
horizontal = 1;
origin = "{0, 61}";
target = "{0, 8}";
},
{
horizontal = 1;
origin = "{0, 30}";
target = "{0, 39}";
},
{
horizontal = 1;
origin = "{0, 45}";
target = "{0, 24}";
},
{
origin = "{0, 27}";
target = "{0, 42}";
},
{
origin = "{0, 58}";
target = "{0, 11}";
},
{
origin = "{0, 54}";
target = "{0, 15}";
},
{
origin = "{0, 5}";
target = "{0, 2}";
},
{
origin = "{0, 36}";
target = "{0, 33}";
}
);
layerId = "5A4BD32C-A1D1-4EB1-A794-47BD06E3B809";
paths = (
{
closed = 1;
nodes = (
"444 -9 OFFCURVE",
"516 51 OFFCURVE",
"516 159 CURVE SMOOTH",
"516 576 LINE",
"451 576 LINE",
"451 159 LINE SMOOTH",
"451 77 OFFCURVE",
"412 45 OFFCURVE",
"324 45 CURVE SMOOTH",
"251 45 OFFCURVE",
"205 77 OFFCURVE",
"205 159 CURVE SMOOTH",
"205 225 LINE SMOOTH",
"205 324 OFFCURVE",
"356 357 OFFCURVE",
"356 482 CURVE SMOOTH",
"356 551 OFFCURVE",
"313 580 OFFCURVE",
"267 580 CURVE SMOOTH",
"229 580 OFFCURVE",
"208 563 OFFCURVE",
"194 541 CURVE",
"179 566 OFFCURVE",
"161 580 OFFCURVE",
"125 580 CURVE SMOOTH",
"80 580 OFFCURVE",
"34 545 OFFCURVE",
"34 481 CURVE SMOOTH",
"34 425 OFFCURVE",
"73 388 OFFCURVE",
"129 388 CURVE SMOOTH",
"165 388 OFFCURVE",
"199 416 OFFCURVE",
"199 445 CURVE SMOOTH",
"199 455 OFFCURVE",
"193 463 OFFCURVE",
"184 468 CURVE",
"176 452 OFFCURVE",
"160 432 OFFCURVE",
"130 432 CURVE SMOOTH",
"103 432 OFFCURVE",
"80 450 OFFCURVE",
"80 482 CURVE SMOOTH",
"80 514 OFFCURVE",
"101 534 OFFCURVE",
"130 534 CURVE SMOOTH",
"161 534 OFFCURVE",
"175 517 OFFCURVE",
"193 487 CURVE",
"210 516 OFFCURVE",
"229 530 OFFCURVE",
"254 530 CURVE SMOOTH",
"278 530 OFFCURVE",
"296 516 OFFCURVE",
"296 482 CURVE SMOOTH",
"296 378 OFFCURVE",
"140 347 OFFCURVE",
"140 229 CURVE SMOOTH",
"140 159 LINE SMOOTH",
"140 35 OFFCURVE",
"219 -9 OFFCURVE",
"323 -9 CURVE SMOOTH"
);
}
);
width = 595;
}
);
note = uni0E03;
unicode = 0E03;
},
{
color = 6;
glyphname = "choChang-thai";
lastChange = "2018-02-18 14:34:41 +0000";
layers = (
{
hints = (
{
horizontal = 1;
origin = "{0, 78}";
target = "{0, 32}";
},
{
horizontal = 1;
origin = "{0, 48}";
target = "{0, 59}";
},
{
horizontal = 1;
origin = "{0, 65}";
target = "{0, 42}";
},
{
origin = "{0, 75}";
target = "{0, 35}";
},
{
origin = "{0, 68}";
target = "{0, 32}";
},
{
origin = "{0, 29}";
target = "{0, 2}";
},
{
origin = "{0, 45}";
target = "{0, 62}";
},
{
origin = "{0, 56}";
target = "{0, 51}";
}
);
layerId = "5A4BD32C-A1D1-4EB1-A794-47BD06E3B809";
paths = (
{
closed = 1;
nodes = (
"442 -9 OFFCURVE",
"515 36 OFFCURVE",
"515 163 CURVE SMOOTH",
"515 339 LINE SMOOTH",
"515 422 OFFCURVE",
"465 451 OFFCURVE",
"418 461 CURVE",
"418 441 LINE",
"473 448 OFFCURVE",
"544 526 OFFCURVE",
"544 572 CURVE SMOOTH",
"544 595 OFFCURVE",
"518 611 OFFCURVE",
"491 611 CURVE",
"463 527 OFFCURVE",
"431 483 OFFCURVE",
"355 464 CURVE SMOOTH",
"351 463 OFFCURVE",
"349 461 OFFCURVE",
"349 455 CURVE SMOOTH",
"349 445 OFFCURVE",
"361 421 OFFCURVE",
"371 421 CURVE SMOOTH",
"384 421 OFFCURVE",
"395 424 OFFCURVE",
"407 424 CURVE SMOOTH",
"424 424 OFFCURVE",
"450 398 OFFCURVE",
"450 339 CURVE SMOOTH",
"450 159 LINE SMOOTH",
"450 68 OFFCURVE",
"410 43 OFFCURVE",
"322 43 CURVE SMOOTH",
"249 43 OFFCURVE",
"197 73 OFFCURVE",
"197 152 CURVE SMOOTH",
"197 243 LINE",
"244 276 OFFCURVE",
"322 346 OFFCURVE",
"322 453 CURVE SMOOTH",
"322 531 OFFCURVE",
"263 579 OFFCURVE",
"185 579 CURVE SMOOTH",
"106 579 OFFCURVE",
"52 530 OFFCURVE",
"52 470 CURVE SMOOTH",
"52 411 OFFCURVE",
"94 377 OFFCURVE",
"143 377 CURVE SMOOTH",
"197 377 OFFCURVE",
"232 415 OFFCURVE",
"232 457 CURVE SMOOTH",
"232 479 OFFCURVE",
"218 492 OFFCURVE",
"202 492 CURVE SMOOTH",
"191 492 LINE",
"191 470 LINE SMOOTH",
"191 442 OFFCURVE",
"175 423 OFFCURVE",
"146 423 CURVE SMOOTH",
"119 423 OFFCURVE",
"102 442 OFFCURVE",
"102 470 CURVE SMOOTH",
"102 506 OFFCURVE",
"131 533 OFFCURVE",
"180 533 CURVE SMOOTH",
"232 533 OFFCURVE",
"268 506 OFFCURVE",
"268 450 CURVE SMOOTH",
"268 369 OFFCURVE",
"203 316 OFFCURVE",
"145 275 CURVE SMOOTH",
"137 270 OFFCURVE",
"132 263 OFFCURVE",
"132 249 CURVE SMOOTH",
"132 151 LINE SMOOTH",
"132 43 OFFCURVE",
"217 -9 OFFCURVE",
"321 -9 CURVE SMOOTH"
);
}
);
width = 615;
}
);
note = uni0E0A;
unicode = 0E0A;
},
{
color = 6;
glyphname = "soSo-thai";
lastChange = "2018-02-18 14:34:41 +0000";
layers = (
{
layerId = "5A4BD32C-A1D1-4EB1-A794-47BD06E3B809";
paths = (
{
closed = 1;
nodes = (
"444 -9 OFFCURVE",
"526 51 OFFCURVE",
"526 159 CURVE SMOOTH",
"526 346 LINE SMOOTH",
"526 436 OFFCURVE",
"480 448 OFFCURVE",
"430 463 CURVE",
"429 447 LINE",
"484 454 OFFCURVE",
"555 526 OFFCURVE",
"555 572 CURVE SMOOTH",
"555 595 OFFCURVE",
"516 607 OFFCURVE",
"502 611 CURVE",
"474 527 OFFCURVE",
"444 488 OFFCURVE",
"368 469 CURVE SMOOTH",
"364 468 OFFCURVE",
"362 466 OFFCURVE",
"362 460 CURVE SMOOTH",
"362 450 OFFCURVE",
"374 426 OFFCURVE",
"384 426 CURVE SMOOTH",
"397 426 OFFCURVE",
"406 431 OFFCURVE",
"418 431 CURVE SMOOTH",
"435 431 OFFCURVE",
"461 409 OFFCURVE",
"461 346 CURVE SMOOTH",
"461 159 LINE SMOOTH",
"461 77 OFFCURVE",
"412 45 OFFCURVE",
"324 45 CURVE SMOOTH",
"251 45 OFFCURVE",
"195 77 OFFCURVE",
"195 159 CURVE SMOOTH",
"195 225 LINE SMOOTH",
"195 324 OFFCURVE",
"346 357 OFFCURVE",
"346 482 CURVE SMOOTH",
"346 551 OFFCURVE",
"303 580 OFFCURVE",
"257 580 CURVE SMOOTH",
"219 580 OFFCURVE",
"198 563 OFFCURVE",
"184 541 CURVE",
"169 566 OFFCURVE",
"151 580 OFFCURVE",
"115 580 CURVE SMOOTH",
"70 580 OFFCURVE",
"24 545 OFFCURVE",
"24 481 CURVE SMOOTH",
"24 425 OFFCURVE",
"63 388 OFFCURVE",
"119 388 CURVE SMOOTH",
"155 388 OFFCURVE",
"189 416 OFFCURVE",
"189 445 CURVE SMOOTH",
"189 455 OFFCURVE",
"183 463 OFFCURVE",
"174 468 CURVE",
"166 452 OFFCURVE",
"150 432 OFFCURVE",
"120 432 CURVE SMOOTH",
"93 432 OFFCURVE",
"70 450 OFFCURVE",
"70 482 CURVE SMOOTH",
"70 514 OFFCURVE",
"91 534 OFFCURVE",
"120 534 CURVE SMOOTH",
"151 534 OFFCURVE",
"165 517 OFFCURVE",
"183 487 CURVE",
"200 516 OFFCURVE",
"219 530 OFFCURVE",
"244 530 CURVE SMOOTH",
"268 530 OFFCURVE",
"286 516 OFFCURVE",
"286 482 CURVE SMOOTH",
"286 378 OFFCURVE",
"130 347 OFFCURVE",
"130 229 CURVE SMOOTH",
"130 159 LINE SMOOTH",
"130 35 OFFCURVE",
"219 -9 OFFCURVE",
"323 -9 CURVE SMOOTH"
);
}
);
width = 615;
}
);
note = uni0E0B;
unicode = 0E0B;
},
{
color = 6;
glyphname = "khoKhwai-thai";
lastChange = "2018-02-18 14:34:41 +0000";
layers = (
{
hints = (
{
horizontal = 1;
origin = "{0, 58}";
target = up;
type = BottomGhost;
},
{
horizontal = 1;
origin = "{0, 18}";
target = "{0, 9}";
},
{
horizontal = 1;
origin = "{0, 3}";
target = "{0, 24}";
},
{
horizontal = 1;
origin = "{0, 34}";
target = "{0, 43}";
},
{
origin = "{0, 55}";
target = "{0, 0}";
},
{
place = "{246.25, 20.75}";
},
{
origin = "{0, 6}";
target = "{0, 21}";
},
{
origin = "{0, 38}";
target = "{0, 39}";
},
{
origin = "{0, 46}";
target = "{0, 31}";
}
);
layerId = "5A4BD32C-A1D1-4EB1-A794-47BD06E3B809";
paths = (
{
closed = 1;
nodes = (
"164 0 LINE",
"168 199 OFFCURVE",
"232 335 OFFCURVE",
"318 335 CURVE SMOOTH",
"352 335 OFFCURVE",
"370 317 OFFCURVE",
"370 288 CURVE SMOOTH",
"370 259 OFFCURVE",
"356 240 OFFCURVE",
"325 240 CURVE SMOOTH",
"301 240 OFFCURVE",
"287 254 OFFCURVE",
"271 273 CURVE",
"255 259 OFFCURVE",
"254 239 OFFCURVE",
"265 223 CURVE SMOOTH",
"275 208 OFFCURVE",
"297 196 OFFCURVE",
"325 196 CURVE SMOOTH",
"380 196 OFFCURVE",
"419 230 OFFCURVE",
"419 288 CURVE SMOOTH",
"419 347 OFFCURVE",
"373 383 OFFCURVE",
"320 383 CURVE SMOOTH",
"222 383 OFFCURVE",
"166 300 OFFCURVE",
"137 205 CURVE",
"176 212 LINE",
"154 241 OFFCURVE",
"137 295 OFFCURVE",
"137 355 CURVE SMOOTH",
"137 481 OFFCURVE",
"209 533 OFFCURVE",
"314 533 CURVE SMOOTH",
"425 533 OFFCURVE",
"479 472 OFFCURVE",
"479 355 CURVE SMOOTH",
"479 0 LINE",
"544 0 LINE",
"544 360 LINE SMOOTH",
"544 493 OFFCURVE",
"473 585 OFFCURVE",
"314 585 CURVE SMOOTH",
"175 585 OFFCURVE",
"72 504 OFFCURVE",
"72 355 CURVE SMOOTH",
"72 284 OFFCURVE",
"99 220 OFFCURVE",
"121 182 CURVE SMOOTH",
"125 175 OFFCURVE",
"124 168 OFFCURVE",
"119 153 CURVE SMOOTH",
"107 116 OFFCURVE",
"98 55 OFFCURVE",
"98 20 CURVE SMOOTH",
"98 5 OFFCURVE",
"103 0 OFFCURVE",
"113 0 CURVE SMOOTH"
);
}
);
width = 624;
}
);
note = uni0E04;
rightMetricsKey = "koKai-thai";
unicode = 0E04;
},
{
color = 6;
glyphname = "khoKhon-thai";
lastChange = "2018-02-18 14:34:41 +0000";
layers = (
{
layerId = "5A4BD32C-A1D1-4EB1-A794-47BD06E3B809";
paths = (
{
closed = 1;
nodes = (
"168 0 LINE",
"172 199 OFFCURVE",
"236 330 OFFCURVE",
"322 330 CURVE SMOOTH",
"356 330 OFFCURVE",
"374 312 OFFCURVE",
"374 283 CURVE SMOOTH",
"374 254 OFFCURVE",
"360 235 OFFCURVE",
"329 235 CURVE SMOOTH",
"305 235 OFFCURVE",
"291 249 OFFCURVE",
"275 268 CURVE",
"259 254 OFFCURVE",
"258 234 OFFCURVE",
"269 218 CURVE SMOOTH",
"279 203 OFFCURVE",
"301 191 OFFCURVE",
"329 191 CURVE SMOOTH",
"384 191 OFFCURVE",
"423 225 OFFCURVE",
"423 283 CURVE SMOOTH",
"423 342 OFFCURVE",
"377 378 OFFCURVE",
"324 378 CURVE SMOOTH",
"226 378 OFFCURVE",
"170 300 OFFCURVE",
"141 205 CURVE",
"180 212 LINE",
"158 241 OFFCURVE",
"138 295 OFFCURVE",
"138 355 CURVE SMOOTH",
"138 455 OFFCURVE",
"179 500 OFFCURVE",
"240 525 CURVE",
"264 503 OFFCURVE",
"296 483 OFFCURVE",
"326 465 CURVE",
"354 483 OFFCURVE",
"384 502 OFFCURVE",
"409 525 CURVE",
"471 503 OFFCURVE",
"495 465 OFFCURVE",
"495 370 CURVE SMOOTH",
"495 0 LINE",
"560 0 LINE",
"560 370 LINE SMOOTH",
"560 488 OFFCURVE",
"516 551 OFFCURVE",
"410 585 CURVE",
"379 564 OFFCURVE",
"350 542 OFFCURVE",
"326 519 CURVE",
"302 542 OFFCURVE",
"273 564 OFFCURVE",
"239 585 CURVE",
"135 546 OFFCURVE",
"70 478 OFFCURVE",
"70 355 CURVE SMOOTH",
"70 284 OFFCURVE",
"103 220 OFFCURVE",
"125 182 CURVE SMOOTH",
"129 175 OFFCURVE",
"128 168 OFFCURVE",
"123 153 CURVE SMOOTH",
"111 116 OFFCURVE",
"102 55 OFFCURVE",
"102 20 CURVE SMOOTH",
"102 5 OFFCURVE",
"107 0 OFFCURVE",
"117 0 CURVE SMOOTH"
);
}
);
width = 630;
}
);
note = uni0E05;
unicode = 0E05;
},
{
color = 6;
glyphname = "soSala-thai";
lastChange = "2018-02-18 14:34:41 +0000";
layers = (
{
components = (
{
name = "khoKhwai-thai";
}
);
layerId = "5A4BD32C-A1D1-4EB1-A794-47BD06E3B809";
paths = (
{
closed = 1;
nodes = (
"513 513 OFFCURVE",
"583 549 OFFCURVE",
"583 581 CURVE SMOOTH",
"583 595 OFFCURVE",
"564 615 OFFCURVE",
"535 621 CURVE",
"516 589 OFFCURVE",
"482 560 OFFCURVE",
"440 552 CURVE",
"477 509 LINE"
);
}
);
width = 609;
}
);
note = uni0E28;
unicode = 0E28;
},
{
color = 6;
glyphname = "doDek-thai";
lastChange = "2018-02-18 14:34:41 +0000";
layers = (
{
hints = (
{
horizontal = 1;
origin = "{0, 19}";
target = up;
type = BottomGhost;
},
{
horizontal = 1;
place = "{251, 12}";
},
{
horizontal = 1;
origin = "{0, 46}";
target = "{0, 29}";
},
{
horizontal = 1;
origin = "{0, 62}";
target = "{0, 4}";
},
{
horizontal = 1;
origin = "{0, 66}";
target = up;
type = BottomGhost;
},
{
origin = "{0, 7}";
target = "{0, 59}";
},
{
origin = "{0, 32}";
target = "{0, 43}";
},
{
origin = "{0, 49}";
target = "{0, 26}";
},
{
origin = "{0, 66}";
target = "{0, 0}";
},
{
origin = "{0, 16}";
target = "{0, 20}";
}
);
layerId = "5A4BD32C-A1D1-4EB1-A794-47BD06E3B809";
paths = (
{
closed = 1;
nodes = (
"542 -1 LINE",
"542 340 LINE SMOOTH",
"542 498 OFFCURVE",
"466 585 OFFCURVE",
"305 585 CURVE SMOOTH",
"172 585 OFFCURVE",
"65 491 OFFCURVE",
"65 347 CURVE SMOOTH",
"65 232 OFFCURVE",
"108 163 OFFCURVE",
"148 123 CURVE SMOOTH",
"157 114 OFFCURVE",
"155 111 OFFCURVE",
"148 102 CURVE SMOOTH",
"126 74 OFFCURVE",
"118 50 OFFCURVE",
"112 20 CURVE SMOOTH",
"108 1 OFFCURVE",
"115 0 OFFCURVE",
"122 0 CURVE SMOOTH",
"179 0 LINE",
"179 102 OFFCURVE",
"258 148 OFFCURVE",
"336 208 CURVE SMOOTH",
"375 238 OFFCURVE",
"396 264 OFFCURVE",
"396 316 CURVE SMOOTH",
"396 359 OFFCURVE",
"361 407 OFFCURVE",
"298 407 CURVE SMOOTH",
"240 407 OFFCURVE",
"200 369 OFFCURVE",
"200 313 CURVE SMOOTH",
"200 290 OFFCURVE",
"208 271 OFFCURVE",
"224 255 CURVE SMOOTH",
"235 244 OFFCURVE",
"259 243 OFFCURVE",
"271 252 CURVE SMOOTH",
"279 258 LINE",
"266 273 LINE SMOOTH",
"258 282 OFFCURVE",
"248 296 OFFCURVE",
"248 314 CURVE SMOOTH",
"248 343 OFFCURVE",
"269 359 OFFCURVE",
"298 359 CURVE SMOOTH",
"325 359 OFFCURVE",
"344 342 OFFCURVE",
"344 309 CURVE SMOOTH",
"344 290 OFFCURVE",
"333 265 OFFCURVE",
"308 245 CURVE SMOOTH",
"284 226 OFFCURVE",
"202 171 OFFCURVE",
"185 141 CURVE",
"210 140 LINE",
"171 178 OFFCURVE",
"130 243 OFFCURVE",
"130 347 CURVE SMOOTH",
"130 467 OFFCURVE",
"206 534 OFFCURVE",
"305 534 CURVE SMOOTH",
"426 534 OFFCURVE",
"477 472 OFFCURVE",
"477 325 CURVE SMOOTH",
"477 -1 LINE"
);
}
);
width = 622;
}
);
note = uni0E14;
rightMetricsKey = "koKai-thai";
unicode = 0E14;
},
{
color = 6;
glyphname = "toTao-thai";
lastChange = "2018-02-18 14:34:41 +0000";
layers = (
{
hints = (
{
horizontal = 1;
origin = "{0, 78}";
target = up;
type = BottomGhost;
},
{
horizontal = 1;
place = "{233.5, 11.5}";
},
{
horizontal = 1;
origin = "{0, 26}";
target = "{0, 9}";
},
{
origin = "{0, 66}";
target = "{0, 39}";
},
{
origin = "{0, 12}";
target = "{0, 23}";
},
{
origin = "{0, 29}";
target = "{0, 6}";
},
{
origin = "{0, 52}";
target = "{0, 53}";
},
{
origin = "{0, 75}";
target = "{0, 0}";
}
);
layerId = "5A4BD32C-A1D1-4EB1-A794-47BD06E3B809";
paths = (
{
closed = 1;
nodes = (
"182 0 LINE",
"182 98 OFFCURVE",
"268 147 OFFCURVE",
"346 207 CURVE SMOOTH",
"385 237 OFFCURVE",
"406 261 OFFCURVE",
"406 313 CURVE SMOOTH",
"406 358 OFFCURVE",
"372 403 OFFCURVE",
"309 403 CURVE SMOOTH",
"253 403 OFFCURVE",
"210 366 OFFCURVE",
"210 310 CURVE SMOOTH",
"210 287 OFFCURVE",
"218 270 OFFCURVE",
"234 254 CURVE SMOOTH",
"245 243 OFFCURVE",
"267 241 OFFCURVE",
"279 250 CURVE SMOOTH",
"287 256 LINE",
"274 271 LINE SMOOTH",
"266 280 OFFCURVE",
"258 293 OFFCURVE",
"258 311 CURVE SMOOTH",
"258 340 OFFCURVE",
"278 355 OFFCURVE",
"307 355 CURVE SMOOTH",
"334 355 OFFCURVE",
"354 339 OFFCURVE",
"354 306 CURVE SMOOTH",
"354 287 OFFCURVE",
"341 264 OFFCURVE",
"316 244 CURVE SMOOTH",
"292 225 OFFCURVE",
"205 172 OFFCURVE",
"188 142 CURVE",
"213 141 LINE",
"174 179 OFFCURVE",
"133 236 OFFCURVE",
"133 342 CURVE SMOOTH",
"133 442 OFFCURVE",
"175 500 OFFCURVE",
"236 525 CURVE",
"260 503 OFFCURVE",
"292 483 OFFCURVE",
"322 465 CURVE",
"350 483 OFFCURVE",
"380 502 OFFCURVE",
"405 525 CURVE",
"467 503 OFFCURVE",
"485 465 OFFCURVE",
"485 370 CURVE SMOOTH",
"485 0 LINE",
"550 0 LINE",
"550 370 LINE SMOOTH",
"550 488 OFFCURVE",
"512 551 OFFCURVE",
"406 585 CURVE",
"375 564 OFFCURVE",
"346 542 OFFCURVE",
"322 519 CURVE",
"298 542 OFFCURVE",
"269 564 OFFCURVE",
"235 585 CURVE",
"131 546 OFFCURVE",
"65 465 OFFCURVE",
"65 342 CURVE SMOOTH",
"65 225 OFFCURVE",
"111 164 OFFCURVE",
"151 124 CURVE SMOOTH",
"160 115 OFFCURVE",
"158 112 OFFCURVE",
"151 103 CURVE SMOOTH",
"129 75 OFFCURVE",
"121 50 OFFCURVE",
"115 20 CURVE SMOOTH",
"111 1 OFFCURVE",
"118 0 OFFCURVE",
"125 0 CURVE SMOOTH"
);
}
);
width = 630;
}
);
note = uni0E15;
rightMetricsKey = "koKai-thai";
unicode = 0E15;
},
{
color = 6;
glyphname = "thoThahan-thai";
lastChange = "2018-02-18 14:34:41 +0000";
layers = (
{
components = (
{
name = Thai_Head_top;
}
);
hints = (
{
horizontal = 1;
origin = "{0, 32}";
target = up;
type = BottomGhost;
},
{
horizontal = 1;
origin = "{0, 7}";
target = "{0, 16}";
},
{
origin = "{0, 26}";
target = "{0, 1}";
},
{
origin = "{0, 11}";
target = "{0, 12}";
}
);
layerId = "5A4BD32C-A1D1-4EB1-A794-47BD06E3B809";
paths = (
{
closed = 1;
nodes = (
"233 0 LINE",
"234 42 LINE SMOOTH",
"237 153 OFFCURVE",
"267 250 OFFCURVE",
"339 406 CURVE SMOOTH",
"376 487 OFFCURVE",
"411 529 OFFCURVE",
"461 529 CURVE SMOOTH",
"500 529 OFFCURVE",
"520 505 OFFCURVE",
"520 454 CURVE SMOOTH",
"520 0 LINE",
"585 0 LINE",
"585 458 LINE SMOOTH",
"585 543 OFFCURVE",
"538 585 OFFCURVE",
"469 585 CURVE SMOOTH",
"385 585 OFFCURVE",
"329 518 OFFCURVE",
"293 434 CURVE SMOOTH",
"250 334 OFFCURVE",
"234 270 OFFCURVE",
"204 185 CURVE",
"234 178 LINE",
"234 300 LINE",
"169 300 LINE",
"169 112 LINE SMOOTH",
"169 61 OFFCURVE",
"164 30 OFFCURVE",
"164 18 CURVE SMOOTH",
"164 4 OFFCURVE",
"169 0 OFFCURVE",
"179 0 CURVE SMOOTH"
);
}
);
width = 665;
}
);
note = uni0E17;
rightMetricsKey = "koKai-thai";
unicode = 0E17;
},
{
color = 6;
glyphname = "thoNangmontho-thai";
lastChange = "2018-02-18 14:34:41 +0000";
layers = (
{
hints = (
{
horizontal = 1;
origin = "{0, 72}";
target = up;
type = BottomGhost;
},
{
horizontal = 1;
origin = "{0, 35}";
target = "{0, 44}";
},
{
horizontal = 1;
origin = "{0, 7}";
target = "{0, 29}";
},
{
horizontal = 1;
origin = "{0, 29}";
target = "{0, 56}";
},
{
horizontal = 1;
origin = "{0, 29}";
target = "{0, 50}";
},
{
origin = "{0, 32}";
target = "{0, 47}";
},
{
origin = "{0, 66}";
target = "{0, 1}";
},
{
place = "{266, 58}";
},
{
origin = "{0, 11}";
target = "{0, 12}";
},
{
origin = "{0, 41}";
target = "{0, 38}";
}
);
layerId = "5A4BD32C-A1D1-4EB1-A794-47BD06E3B809";
paths = (
{
closed = 1;
nodes = (
"214 0 LINE",
"215 222 LINE SMOOTH",
"215 278 OFFCURVE",
"247 322 OFFCURVE",
"278 365 CURVE SMOOTH",
"370 495 OFFCURVE",
"402 526 OFFCURVE",
"452 526 CURVE SMOOTH",
"493 526 OFFCURVE",
"510 506 OFFCURVE",
"510 439 CURVE SMOOTH",
"510 0 LINE",
"575 0 LINE",
"575 445 LINE SMOOTH",
"575 533 OFFCURVE",
"529 580 OFFCURVE",
"449 580 CURVE SMOOTH",
"391 580 OFFCURVE",
"334 536 OFFCURVE",
"306 486 CURVE",
"326 479 LINE",
"327 543 OFFCURVE",
"298 580 OFFCURVE",
"251 580 CURVE SMOOTH",
"220 580 OFFCURVE",
"196 563 OFFCURVE",
"182 541 CURVE",
"167 566 OFFCURVE",
"151 580 OFFCURVE",
"115 580 CURVE SMOOTH",
"70 580 OFFCURVE",
"26 545 OFFCURVE",
"26 481 CURVE SMOOTH",
"26 425 OFFCURVE",
"63 388 OFFCURVE",
"119 388 CURVE SMOOTH",
"155 388 OFFCURVE",
"187 416 OFFCURVE",
"187 445 CURVE SMOOTH",
"187 455 OFFCURVE",
"181 463 OFFCURVE",
"172 468 CURVE",
"164 452 OFFCURVE",
"147 432 OFFCURVE",
"120 432 CURVE SMOOTH",
"93 432 OFFCURVE",
"72 450 OFFCURVE",
"72 482 CURVE SMOOTH",
"72 514 OFFCURVE",
"91 534 OFFCURVE",
"120 534 CURVE SMOOTH",
"151 534 OFFCURVE",
"163 517 OFFCURVE",
"181 487 CURVE",
"198 516 OFFCURVE",
"216 530 OFFCURVE",
"236 530 CURVE SMOOTH",
"255 530 OFFCURVE",
"266 514 OFFCURVE",
"266 489 CURVE SMOOTH",
"266 459 OFFCURVE",
"247 422 OFFCURVE",
"226 393 CURVE SMOOTH",
"192 349 OFFCURVE",
"150 301 OFFCURVE",
"150 226 CURVE SMOOTH",
"150 106 LINE SMOOTH",
"150 60 OFFCURVE",
"145 38 OFFCURVE",
"145 20 CURVE SMOOTH",
"145 6 OFFCURVE",
"153 0 OFFCURVE",
"165 0 CURVE SMOOTH"
);
}
);
width = 655;
}
);
note = uni0E11;
rightMetricsKey = "koKai-thai";
unicode = 0E11;
},
{
color = 6;
glyphname = "noNu-thai";
lastChange = "2018-02-18 14:34:41 +0000";
layers = (
{
components = (
{
name = Thai_Head_top;
transform = "{1, 0, 0, 1, -20, 0}";
}
);
hints = (
{
horizontal = 1;
origin = "{0, 10}";
target = "{0, 39}";
},
{
horizontal = 1;
origin = "{0, 33}";
target = "{0, 16}";
},
{
horizontal = 1;
origin = "{0, 29}";
target = up;
type = BottomGhost;
},
{
origin = "{0, 23}";
target = "{0, 30}";
},
{
origin = "{0, 7}";
target = "{0, 42}";
},
{
origin = "{0, 4}";
target = "{0, 1}";
},
{
origin = "{0, 36}";
target = "{0, 13}";
}
);
layerId = "5A4BD32C-A1D1-4EB1-A794-47BD06E3B809";
paths = (
{
closed = 1;
nodes = (
"557 180 OFFCURVE",
"557 254 CURVE SMOOTH",
"557 576 LINE",
"492 576 LINE",
"492 259 LINE SMOOTH",
"492 202 OFFCURVE",
"388 192 OFFCURVE",
"388 96 CURVE SMOOTH",
"388 38 OFFCURVE",
"435 -4 OFFCURVE",
"493 -4 CURVE SMOOTH",
"550 -4 OFFCURVE",
"599 38 OFFCURVE",
"599 96 CURVE SMOOTH",
"599 187 OFFCURVE",
"506 226 OFFCURVE",
"416 226 CURVE SMOOTH",
"325 226 OFFCURVE",
"238 186 OFFCURVE",
"193 98 CURVE",
"214 81 LINE",
"214 300 LINE",
"149 300 LINE",
"150 113 LINE SMOOTH",
"150 63 OFFCURVE",
"146 34 OFFCURVE",
"146 20 CURVE SMOOTH",
"146 7 OFFCURVE",
"153 0 OFFCURVE",
"166 0 CURVE SMOOTH",
"214 0 LINE",
"214 98 OFFCURVE",
"320 178 OFFCURVE",
"413 178 CURVE SMOOTH",
"489 178 OFFCURVE",
"543 152 OFFCURVE",
"543 100 CURVE SMOOTH",
"543 68 OFFCURVE",
"526 48 OFFCURVE",
"493 48 CURVE SMOOTH",
"460 48 OFFCURVE",
"442 70 OFFCURVE",
"442 100 CURVE SMOOTH",
"442 172 OFFCURVE"
);
}
);
width = 637;
}
);
note = uni0E19;
unicode = 0E19;
},
{
color = 6;
glyphname = "moMa-thai";
lastChange = "2018-02-18 14:34:41 +0000";
layers = (
{
components = (
{
name = Thai_Head_top;
transform = "{1, 0, 0, 1, 20, 0}";
}
);
layerId = "5A4BD32C-A1D1-4EB1-A794-47BD06E3B809";
paths = (
{
closed = 1;
nodes = (
"230 -9 OFFCURVE",
"258 35 OFFCURVE",
"258 120 CURVE SMOOTH",
"258 150 OFFCURVE",
"256 180 OFFCURVE",
"255 210 CURVE",
"374 202 OFFCURVE",
"467 125 OFFCURVE",
"497 0 CURVE",
"550 0 LINE SMOOTH",
"561 0 OFFCURVE",
"565 7 OFFCURVE",
"565 20 CURVE SMOOTH",
"565 35 OFFCURVE",
"560 77 OFFCURVE",
"560 138 CURVE SMOOTH",
"560 576 LINE",
"495 576 LINE",
"495 71 LINE",
"515 94 LINE",
"473 195 OFFCURVE",
"374 260 OFFCURVE",
"254 260 CURVE",
"254 300 LINE",
"189 300 LINE",
"189 287 OFFCURVE",
"189 278 OFFCURVE",
"191 258 CURVE",
"129 247 OFFCURVE",
"70 194 OFFCURVE",
"70 108 CURVE SMOOTH",
"70 36 OFFCURVE",
"111 -9 OFFCURVE",
"165 -9 CURVE SMOOTH"
);
},
{
closed = 1;
nodes = (
"140 43 OFFCURVE",
"126 69 OFFCURVE",
"126 111 CURVE SMOOTH",
"126 168 OFFCURVE",
"159 197 OFFCURVE",
"192 207 CURVE",
"194 174 OFFCURVE",
"196 152 OFFCURVE",
"196 122 CURVE SMOOTH",
"196 58 OFFCURVE",
"186 43 OFFCURVE",
"165 43 CURVE SMOOTH"
);
}
);
width = 657;
}
);
note = uni0E21;
unicode = 0E21;
},
{
color = 6;
glyphname = "choChoe-thai";
lastChange = "2018-02-18 14:34:41 +0000";
layers = (
{
components = (
{
name = ko_part;
}
);
layerId = "5A4BD32C-A1D1-4EB1-A794-47BD06E3B809";
paths = (
{
closed = 1;
nodes = (
"514 -9 OFFCURVE",
"539 39 OFFCURVE",
"539 110 CURVE SMOOTH",
"539 158 OFFCURVE",
"538 187 OFFCURVE",
"538 221 CURVE SMOOTH",
"538 260 LINE",
"473 260 LINE",
"473 221 LINE SMOOTH",
"473 191 OFFCURVE",
"477 149 OFFCURVE",
"477 112 CURVE SMOOTH",
"477 62 OFFCURVE",
"470 43 OFFCURVE",
"449 43 CURVE SMOOTH",
"424 43 OFFCURVE",
"410 65 OFFCURVE",
"410 101 CURVE SMOOTH",
"410 169 OFFCURVE",
"461 177 OFFCURVE",
"497 177 CURVE SMOOTH",
"612 177 OFFCURVE",
"706 122 OFFCURVE",
"760 0 CURVE",
"813 0 LINE SMOOTH",
"824 0 OFFCURVE",
"828 7 OFFCURVE",
"828 20 CURVE SMOOTH",
"828 35 OFFCURVE",
"823 77 OFFCURVE",
"823 138 CURVE SMOOTH",
"823 576 LINE",
"758 576 LINE",
"758 71 LINE",
"778 90 LINE",
"713 180 OFFCURVE",
"612 228 OFFCURVE",
"497 228 CURVE SMOOTH",
"431 228 OFFCURVE",
"354 195 OFFCURVE",
"354 98 CURVE SMOOTH",
"354 32 OFFCURVE",
"395 -9 OFFCURVE",
"449 -9 CURVE SMOOTH"
);
},
{
closed = 1;
nodes = (
"274 -9 OFFCURVE",
"321 33 OFFCURVE",
"321 91 CURVE SMOOTH",
"321 152 OFFCURVE",
"278 183 OFFCURVE",
"229 183 CURVE SMOOTH",
"200 183 OFFCURVE",
"186 166 OFFCURVE",
"186 146 CURVE SMOOTH",
"186 139 LINE",
"221 139 LINE SMOOTH",
"252 139 OFFCURVE",
"271 121 OFFCURVE",
"271 91 CURVE SMOOTH",
"271 62 OFFCURVE",
"253 41 OFFCURVE",
"217 41 CURVE SMOOTH",
"182 41 OFFCURVE",
"157 68 OFFCURVE",
"157 132 CURVE SMOOTH",
"157 221 LINE",
"92 221 LINE",
"92 131 LINE SMOOTH",
"92 35 OFFCURVE",
"147 -9 OFFCURVE",
"213 -9 CURVE SMOOTH"
);
}
);
width = 920;
}
);
note = uni0E0C;
rightMetricsKey = "moMa-thai";
unicode = 0E0C;
},
